<svg width="1400" height="282" viewBox="0 0 1400 282" fill="none" xmlns="http://www.w3.org/2000/svg">
<rect x="0.0541992" y="276.066" width="23.5576" height="3.64621" rx="1.8231" transform="rotate(-90 0.0541992 276.066)" fill="#69F8D2" fill-opacity="0.2"/>
<rect x="238.881" y="281.017" width="48.8821" height="3.64621" rx="1.8231" transform="rotate(-90 238.881 281.017)" fill="#69F8D2" fill-opacity="0.2"/>
<rect x="54.7473" y="102.561" width="27.7076" height="3.64621" rx="1.82311" transform="rotate(-90 54.7473 102.561)" fill="#69F8D2" fill-opacity="0.2"/>
<rect x="475.885" y="77.2986" width="16.2986" height="3.64621" rx="1.82311" transform="rotate(-90 475.885 77.2986)" fill="#69F8D2" fill-opacity="0.2"/>
<rect width="20.3733" height="3.64621" rx="1.82311" transform="matrix(-9.77881e-08 1 1 1.9539e-08 351.913 188.944)" fill="#69F8D2" fill-opacity="0.2"/>
<rect width="49" height="3" rx="1.5" transform="matrix(-9.77881e-08 1 1 1.9539e-08 449 217)" fill="#69F8D2" fill-opacity="0.2"/>
<rect x="920.054" y="276.066" width="23.5576" height="3.64621" rx="1.8231" transform="rotate(-90 920.054 276.066)" fill="#69F8D2" fill-opacity="0.2"/>
<rect x="1158.88" y="281.017" width="48.8821" height="3.64621" rx="1.8231" transform="rotate(-90 1158.88 281.017)" fill="#69F8D2" fill-opacity="0.2"/>
<rect x="974.747" y="102.561" width="27.7076" height="3.64621" rx="1.82311" transform="rotate(-90 974.747 102.561)" fill="#69F8D2" fill-opacity="0.2"/>
<rect x="1395.88" y="77.2986" width="16.2986" height="3.64621" rx="1.82311" transform="rotate(-90 1395.88 77.2986)" fill="#69F8D2" fill-opacity="0.2"/>
<rect width="20.3733" height="3.64621" rx="1.82311" transform="matrix(-9.77881e-08 1 1 1.9539e-08 1271.91 188.944)" fill="#69F8D2" fill-opacity="0.2"/>
<rect width="16.4219" height="3.64621" rx="1.8231" transform="matrix(-9.77881e-08 1 1 1.9539e-08 1368.54 216.96)" fill="#69F8D2" fill-opacity="0.2"/>
<rect width="27.1234" height="3.64621" rx="1.8231" transform="matrix(8.49323e-08 -1 -1 -2.24966e-08 976.946 247.62)" fill="#69F8D2" fill-opacity="0.2"/>
<rect width="36" height="4" rx="2" transform="matrix(8.49323e-08 -1 -1 -2.24966e-08 738 253)" fill="#69F8D2" fill-opacity="0.2"/>
<rect width="31.9016" height="3.64621" rx="1.82311" transform="matrix(8.49323e-08 -1 -1 -2.24966e-08 922.253 47.8524)" fill="#69F8D2" fill-opacity="0.2"/>
<rect width="18.7656" height="3.64621" rx="1.82311" transform="matrix(8.49323e-08 -1 -1 -2.24966e-08 501.115 18.7657)" fill="#69F8D2" fill-opacity="0.2"/>
<rect x="625.087" y="147.31" width="23.457" height="3.64621" rx="1.82311" transform="rotate(90 625.087 147.31)" fill="#69F8D2" fill-opacity="0.2"/>
<rect x="528" y="113" width="85" height="3.00001" rx="1.5" transform="rotate(90 528 113)" fill="#69F8D2" fill-opacity="0.2"/>
</svg>
