<svg width="776" height="276" viewBox="0 0 776 276" fill="none" xmlns="http://www.w3.org/2000/svg">
<path d="M0 69.7245C0 56.4697 10.7452 45.7245 24 45.7245H396.678C405.811 45.7245 414.151 40.5418 418.196 32.354L427.574 13.3705C431.618 5.18278 439.959 0 449.091 0H752C765.255 0 776 10.7452 776 24V45.7245V252C776 265.255 765.255 276 752 276H24C10.7452 276 0 265.255 0 252V69.7245Z" fill="url(#paint0_linear_2329_23244)"/>
<path d="M0 69.7245C0 56.4697 10.7452 45.7245 24 45.7245H396.678C405.811 45.7245 414.151 40.5418 418.196 32.354L427.574 13.3705C431.618 5.18278 439.959 0 449.091 0H752C765.255 0 776 10.7452 776 24V45.7245V252C776 265.255 765.255 276 752 276H24C10.7452 276 0 265.255 0 252V69.7245Z" fill="url(#paint1_radial_2329_23244)" fill-opacity="0.2"/>
<defs>
<linearGradient id="paint0_linear_2329_23244" x1="388" y1="0" x2="388" y2="276" gradientUnits="userSpaceOnUse">
<stop stop-color="#0D0D1E"/>
<stop offset="1" stop-color="#212E6A"/>
</linearGradient>
<radialGradient id="paint1_radial_2329_23244" cx="0" cy="0" r="1" gradientUnits="userSpaceOnUse" gradientTransform="translate(147.725 260.578) rotate(-11.3342) scale(460.612 1272.31)">
<stop stop-color="#8985F9"/>
<stop offset="1" stop-color="#100050"/>
</radialGradient>
</defs>
</svg>
