<svg width="442" height="232" viewBox="0 0 442 232" fill="none" xmlns="http://www.w3.org/2000/svg">
<g filter="url(#filter0_d_2329_23364)">
<rect x="51" y="19.3125" width="359.712" height="159.685" rx="12.6067" fill="white"/>
<rect x="64.4473" y="32.7578" width="332.818" height="47.0652" rx="5.88315" fill="#F8F9FC"/>
<path fill-rule="evenodd" clip-rule="evenodd" d="M82.0963 54.6058C82.5605 54.6058 82.9368 54.9821 82.9368 55.4463V63.0103C82.9368 63.4745 82.5605 63.8507 82.0963 63.8507C81.6321 63.8507 81.2559 63.4745 81.2559 63.0103V55.4463C81.2559 54.9821 81.6321 54.6058 82.0963 54.6058Z" fill="#625EF6"/>
<path fill-rule="evenodd" clip-rule="evenodd" d="M87.9795 48.7227C88.4436 48.7227 88.8199 49.0989 88.8199 49.5631V57.1272C88.8199 57.5913 88.4436 57.9676 87.9795 57.9676C87.5153 57.9676 87.139 57.5913 87.139 57.1272V49.5631C87.139 49.0989 87.5153 48.7227 87.9795 48.7227Z" fill="#625EF6"/>
<path fill-rule="evenodd" clip-rule="evenodd" d="M93.8626 52.0845C94.3268 52.0845 94.7031 52.4607 94.7031 52.9249V60.4889C94.7031 60.9531 94.3268 61.3294 93.8626 61.3294C93.3984 61.3294 93.0222 60.9531 93.0222 60.4889V52.9249C93.0222 52.4607 93.3984 52.0845 93.8626 52.0845Z" fill="#625EF6"/>
<path d="M112.659 51.0581H118.924V52.5079H114.235V54.0837H115.962C117.181 54.0837 118.092 54.3148 118.698 54.7771C119.311 55.2393 119.618 55.9579 119.618 56.9328C119.618 57.4203 119.53 57.8489 119.353 58.2187C119.185 58.5801 118.937 58.8869 118.609 59.139C118.29 59.3827 117.903 59.5676 117.449 59.6937C116.996 59.8198 116.487 59.8828 115.924 59.8828H112.659V51.0581ZM114.235 55.5335V58.433H115.911C116.222 58.433 116.504 58.4078 116.756 58.3574C117.017 58.307 117.235 58.2229 117.412 58.1053C117.597 57.9876 117.735 57.8321 117.828 57.6388C117.929 57.4371 117.979 57.1892 117.979 56.895C117.979 56.3655 117.802 56.0083 117.449 55.8234C117.105 55.6301 116.592 55.5335 115.911 55.5335H114.235ZM121.199 53.5794H122.674V56.0378H123.633C123.759 55.1805 124.099 54.5376 124.654 54.1089C125.217 53.6803 125.919 53.466 126.759 53.466C127.246 53.466 127.688 53.5374 128.083 53.6803C128.486 53.8148 128.826 54.0207 129.104 54.298C129.39 54.5754 129.608 54.92 129.759 55.3318C129.919 55.7436 129.999 56.2269 129.999 56.7816C129.999 57.3278 129.919 57.8069 129.759 58.2187C129.6 58.6221 129.377 58.9583 129.091 59.2273C128.805 59.4962 128.457 59.7021 128.045 59.845C127.641 59.9795 127.196 60.0467 126.709 60.0467C125.843 60.0467 125.137 59.824 124.591 59.3785C124.053 58.9247 123.729 58.2439 123.62 57.3363H122.674V59.8828H121.199V53.5794ZM126.746 58.7608C127.309 58.7608 127.738 58.6011 128.032 58.2818C128.335 57.954 128.486 57.4539 128.486 56.7816V56.7437C128.486 56.0546 128.331 55.5545 128.02 55.2435C127.717 54.9242 127.288 54.7603 126.734 54.7519C126.187 54.7519 125.767 54.9158 125.473 55.2435C125.187 55.5629 125.044 56.0588 125.044 56.7311V56.7689C125.044 57.4665 125.196 57.975 125.498 58.2944C125.801 58.6053 126.217 58.7608 126.746 58.7608ZM131.359 58.5465C131.443 58.3196 131.519 58.0716 131.586 57.8027C131.662 57.5254 131.725 57.2144 131.775 56.8698C131.826 56.5252 131.863 56.1428 131.889 55.7226C131.914 55.294 131.926 54.8191 131.926 54.298V53.5794H136.767V58.5465H137.726V61.5217H136.389V59.8828H131.964V61.5217H130.628V58.5465H131.359ZM133.301 55.0292C133.284 55.7604 133.238 56.4076 133.162 56.9707C133.086 57.5254 132.96 58.0506 132.784 58.5465H135.292V54.8779H133.301V55.0292ZM142.505 57.2732H141.648L140.211 59.8828H138.559L140.425 56.6177L138.736 53.5794H140.374L141.635 56.0378H142.505V53.5794H143.967V56.0378H144.812L146.148 53.5794H147.712L146.047 56.5672L147.913 59.8828H146.237L144.837 57.2732H143.967V59.8828H142.505V57.2732ZM154.113 59.2525C154.038 59.3449 153.929 59.4374 153.786 59.5298C153.643 59.6139 153.471 59.6937 153.269 59.7694C153.067 59.845 152.84 59.9038 152.588 59.9458C152.344 59.9879 152.08 60.0089 151.794 60.0089C150.743 60.0173 149.928 59.7441 149.348 59.1894C148.768 58.6263 148.478 57.7985 148.478 56.7059C148.478 56.1848 148.554 55.7226 148.705 55.3192C148.865 54.9074 149.088 54.5628 149.373 54.2854C149.659 54.0081 149.995 53.798 150.382 53.6551C150.777 53.5122 151.214 53.4408 151.693 53.4408C152.609 53.4492 153.323 53.7223 153.836 54.2602C154.357 54.7981 154.618 55.5629 154.618 56.5546V57.1598H149.941C150.058 58.2103 150.693 58.7356 151.844 58.7356C152.424 58.7356 152.903 58.6389 153.281 58.4456C153.668 58.2523 153.945 58.017 154.113 57.7397V59.2525ZM151.655 54.7267C151.176 54.7267 150.794 54.8443 150.508 55.0796C150.222 55.315 150.041 55.6596 149.966 56.1134H153.143C153.126 55.6848 152.987 55.3486 152.727 55.1049C152.466 54.8527 152.109 54.7267 151.655 54.7267ZM157.512 54.8779H155.494V53.5794H161.016V54.8779H158.974V59.8828H157.512V54.8779ZM165.391 57.7271C165.576 58.0044 165.87 58.2397 166.274 58.433C166.677 58.6263 167.177 58.723 167.774 58.723C168.194 58.723 168.526 58.66 168.77 58.5339C169.014 58.4078 169.136 58.2103 169.136 57.9414C169.136 57.6976 169.039 57.5211 168.846 57.4119C168.652 57.3026 168.341 57.248 167.913 57.248H166.829V56.1764H167.724C168.068 56.1764 168.341 56.1218 168.543 56.0125C168.753 55.8949 168.858 55.7016 168.858 55.4326C168.858 55.2141 168.778 55.046 168.619 54.9284C168.467 54.8107 168.198 54.7477 167.812 54.7393C167.282 54.7393 166.824 54.8443 166.438 55.0544C166.06 55.2561 165.749 55.5251 165.505 55.8613V54.0207C165.749 53.861 166.072 53.7265 166.476 53.6173C166.879 53.508 167.324 53.4534 167.812 53.4534H167.862C168.736 53.4534 169.371 53.6047 169.766 53.9072C170.161 54.2014 170.358 54.5964 170.358 55.0923C170.358 55.4957 170.262 55.8066 170.068 56.0251C169.884 56.2437 169.631 56.4202 169.312 56.5546C169.741 56.6387 170.064 56.7942 170.283 57.0211C170.51 57.2396 170.623 57.5632 170.623 57.9918C170.623 58.3196 170.552 58.6095 170.409 58.8617C170.274 59.1138 170.081 59.3281 169.829 59.5046C169.585 59.6727 169.287 59.7988 168.934 59.8828C168.589 59.9669 168.203 60.0089 167.774 60.0089C167.497 60.0089 167.232 59.9837 166.98 59.9332C166.728 59.8912 166.497 59.8324 166.286 59.7567C166.076 59.6811 165.891 59.6013 165.732 59.5172C165.58 59.4248 165.467 59.3323 165.391 59.2399V57.7271ZM172.237 54.0207C172.448 53.861 172.737 53.7265 173.107 53.6173C173.485 53.508 173.948 53.4534 174.494 53.4534C175.419 53.4534 176.108 53.6257 176.562 53.9703C177.015 54.3148 177.242 54.8989 177.242 55.7226V59.8828H175.856V58.7482C175.704 59.118 175.444 59.4164 175.074 59.6433C174.713 59.8702 174.28 59.9837 173.775 59.9837C173.137 59.9837 172.637 59.8156 172.275 59.4794C171.922 59.1348 171.746 58.6516 171.746 58.0296C171.746 57.6682 171.809 57.3699 171.935 57.1345C172.061 56.8992 172.237 56.7143 172.464 56.5798C172.691 56.437 172.964 56.3361 173.284 56.2773C173.603 56.2185 173.956 56.189 174.343 56.189H175.767V55.9117C175.767 55.4663 175.658 55.1595 175.44 54.9914C175.229 54.8233 174.914 54.7393 174.494 54.7393C173.914 54.7393 173.448 54.8443 173.095 55.0544C172.742 55.2561 172.456 55.5251 172.237 55.8613V54.0207ZM174.242 58.66C174.494 58.66 174.708 58.6305 174.885 58.5717C175.07 58.5045 175.225 58.4246 175.351 58.3322C175.477 58.2313 175.574 58.1221 175.641 58.0044C175.708 57.8867 175.75 57.7733 175.767 57.664V57.1471H174.519C174.082 57.1471 173.759 57.1976 173.549 57.2984C173.338 57.3993 173.233 57.5926 173.233 57.8783C173.233 58.1221 173.317 58.3154 173.485 58.4583C173.662 58.5927 173.914 58.66 174.242 58.66ZM182.877 57.8027H181.414L180.141 59.8828H178.515L179.977 57.601C179.599 57.4497 179.313 57.227 179.12 56.9328C178.927 56.6303 178.83 56.2731 178.83 55.8613C178.83 55.0712 179.057 54.4955 179.511 54.1341C179.965 53.7643 180.683 53.5794 181.667 53.5794H184.352V59.8828H182.877V57.8027ZM181.704 54.8779C181.209 54.8779 180.851 54.9494 180.633 55.0923C180.414 55.2351 180.305 55.4915 180.305 55.8613C180.313 56.1218 180.406 56.3235 180.582 56.4664C180.759 56.6009 181.04 56.6681 181.427 56.6681H182.877V54.8779H181.704ZM186.249 53.5794H189.426C190.182 53.5794 190.72 53.7055 191.039 53.9576C191.359 54.2014 191.518 54.5628 191.518 55.0418C191.518 55.42 191.422 55.7352 191.228 55.9873C191.044 56.2311 190.779 56.3949 190.434 56.479C190.636 56.5042 190.821 56.5504 190.989 56.6177C191.165 56.6765 191.313 56.7647 191.43 56.8824C191.556 57.0001 191.653 57.1514 191.72 57.3363C191.796 57.5211 191.834 57.7481 191.834 58.017C191.834 58.6221 191.632 59.0844 191.228 59.4038C190.833 59.7231 190.22 59.8828 189.388 59.8828H186.249V53.5794ZM189.249 58.66C189.644 58.66 189.93 58.6011 190.106 58.4835C190.283 58.3574 190.371 58.1683 190.371 57.9162C190.371 57.6388 190.283 57.4497 190.106 57.3489C189.938 57.2396 189.682 57.185 189.337 57.185H187.724V58.66H189.249ZM189.073 56.126C189.367 56.126 189.602 56.0756 189.779 55.9747C189.955 55.8655 190.043 55.6764 190.043 55.4074C190.043 55.1721 189.964 55.0124 189.804 54.9284C189.644 54.8443 189.405 54.8023 189.085 54.8023L187.724 54.8149V56.126H189.073ZM193.294 53.5794H194.756V57.8531L197.782 53.5794H199.181V59.8828H197.718V55.5587L194.693 59.8828H193.294V53.5794ZM202.513 54.8779H200.496V53.5794H206.018V54.8779H203.976V59.8828H202.513V54.8779ZM212.539 59.2525C212.464 59.3449 212.354 59.4374 212.212 59.5298C212.069 59.6139 211.896 59.6937 211.695 59.7694C211.493 59.845 211.266 59.9038 211.014 59.9458C210.77 59.9879 210.506 60.0089 210.22 60.0089C209.169 60.0173 208.354 59.7441 207.774 59.1894C207.194 58.6263 206.904 57.7985 206.904 56.7059C206.904 56.1848 206.98 55.7226 207.131 55.3192C207.291 54.9074 207.514 54.5628 207.799 54.2854C208.085 54.0081 208.421 53.798 208.808 53.6551C209.203 53.5122 209.64 53.4408 210.119 53.4408C211.035 53.4492 211.749 53.7223 212.262 54.2602C212.783 54.7981 213.044 55.5629 213.044 56.5546V57.1598H208.367C208.484 58.2103 209.119 58.7356 210.27 58.7356C210.85 58.7356 211.329 58.6389 211.707 58.4456C212.094 58.2523 212.371 58.017 212.539 57.7397V59.2525ZM210.081 54.7267C209.602 54.7267 209.22 54.8443 208.934 55.0796C208.648 55.315 208.467 55.6596 208.392 56.1134H211.569C211.552 55.6848 211.413 55.3486 211.153 55.1049C210.892 54.8527 210.535 54.7267 210.081 54.7267ZM218.462 54.8779H216.42L216.382 55.6722C216.34 56.6555 216.251 57.4329 216.117 58.0044C215.991 58.5759 215.831 59.0087 215.638 59.3029C215.445 59.5887 215.23 59.7694 214.995 59.845C214.76 59.9206 214.52 59.9585 214.276 59.9585C214.159 59.9585 214.041 59.95 213.923 59.9332C213.814 59.9248 213.726 59.9122 213.659 59.8954V58.37C213.759 58.4036 213.869 58.4204 213.986 58.4204C214.121 58.4204 214.247 58.3952 214.365 58.3448C214.491 58.286 214.6 58.1431 214.692 57.9162C214.785 57.6892 214.86 57.3447 214.919 56.8824C214.987 56.4202 215.033 55.7772 215.058 54.9536L215.108 53.5794H219.924V59.8828H218.462V54.8779ZM225.66 57.8027H224.198L222.925 59.8828H221.298L222.761 57.601C222.383 57.4497 222.097 57.227 221.904 56.9328C221.71 56.6303 221.614 56.2731 221.614 55.8613C221.614 55.0712 221.841 54.4955 222.294 54.1341C222.748 53.7643 223.467 53.5794 224.45 53.5794H227.135V59.8828H225.66V57.8027ZM224.488 54.8779C223.992 54.8779 223.635 54.9494 223.416 55.0923C223.198 55.2351 223.089 55.4915 223.089 55.8613C223.097 56.1218 223.189 56.3235 223.366 56.4664C223.542 56.6009 223.824 56.6681 224.211 56.6681H225.66V54.8779H224.488Z" fill="#0B0C0E"/>
<path fill-rule="evenodd" clip-rule="evenodd" d="M366.414 60.246C366.742 60.5742 367.274 60.5742 367.603 60.246L373.732 54.1167L379.861 60.246C380.19 60.5742 380.722 60.5742 381.05 60.246C381.378 59.9178 381.378 59.3857 381.05 59.0574L374.326 52.3339C373.998 52.0056 373.466 52.0056 373.138 52.3339L366.414 59.0575C366.086 59.3857 366.086 59.9178 366.414 60.246Z" fill="#B8BEC6"/>
<path d="M79.1552 95.4448H85.1938V96.4534H80.2898V98.4704H82.0169C83.2608 98.4704 84.1937 98.7016 84.8156 99.1638C85.4376 99.6176 85.7485 100.34 85.7485 101.332C85.7485 102.307 85.4292 103.042 84.7904 103.538C84.1517 104.026 83.2272 104.27 82.0169 104.27H79.1552V95.4448ZM80.2898 99.479V103.261H81.9791C82.8196 103.261 83.4583 103.114 83.8953 102.82C84.3408 102.517 84.5635 101.996 84.5635 101.257C84.5635 100.593 84.3534 100.13 83.9332 99.8698C83.5129 99.6092 82.849 99.479 81.9413 99.479H80.2898ZM87.716 97.9662H88.7624V100.601H90.0609C90.1113 100.147 90.2164 99.7521 90.3761 99.4159C90.5441 99.0714 90.7585 98.7856 91.019 98.5587C91.2795 98.3318 91.5779 98.1595 91.9141 98.0418C92.2587 97.9241 92.6285 97.8653 93.0235 97.8653C94.0236 97.8653 94.7968 98.1385 95.3431 98.6847C95.8894 99.231 96.1626 100.059 96.1626 101.168C96.1626 101.715 96.0827 102.189 95.923 102.593C95.7633 102.996 95.5448 103.337 95.2675 103.614C94.9901 103.883 94.6624 104.085 94.2841 104.219C93.9059 104.354 93.4983 104.421 93.0613 104.421C92.162 104.421 91.4518 104.185 90.9308 103.715C90.4097 103.236 90.1155 102.513 90.0483 101.546H88.7624V104.27H87.716V97.9662ZM91.0568 101.156C91.0568 101.971 91.2249 102.568 91.5611 102.946C91.9057 103.324 92.4015 103.513 93.0487 103.513C93.7126 103.513 94.2211 103.32 94.5741 102.933C94.9271 102.538 95.1036 101.95 95.1036 101.168V101.13C95.1036 100.324 94.9229 99.7311 94.5615 99.3529C94.2085 98.9747 93.7 98.7814 93.0361 98.773C92.3973 98.773 91.9057 98.9705 91.5611 99.3655C91.2249 99.7521 91.0568 100.336 91.0568 101.118V101.156ZM97.7833 103.274C97.8925 103.038 97.9892 102.778 98.0732 102.492C98.1573 102.206 98.2287 101.883 98.2875 101.521C98.3548 101.151 98.4052 100.735 98.4388 100.273C98.4724 99.8109 98.4893 99.2815 98.4893 98.6847V97.9662H102.927V103.274H103.948V105.908H102.952V104.27H98.0228V105.908H97.0269V103.274H97.7833ZM99.4726 99.4159C99.4558 100.223 99.3969 100.933 99.2961 101.546C99.2036 102.16 99.044 102.736 98.817 103.274H101.88V98.8991H99.4852L99.4726 99.4159ZM109.074 101.496H108.028L106.301 104.27H105.09L107.158 101.004L105.267 97.9662H106.464L108.015 100.601H109.074V97.9662H110.12V100.601H111.179L112.793 97.9662H113.915L112.062 100.954L114.117 104.27H112.881L111.217 101.496H110.12V104.27H109.074V101.496ZM118.095 97.8401C118.969 97.8401 119.65 98.1006 120.137 98.6217C120.633 99.1428 120.881 99.874 120.881 100.815V101.496H116.052C116.103 102.177 116.305 102.681 116.658 103.009C117.011 103.328 117.498 103.488 118.12 103.488C118.725 103.488 119.221 103.383 119.608 103.173C119.994 102.963 120.272 102.706 120.44 102.404V103.627C120.28 103.82 120.007 103.996 119.62 104.156C119.242 104.316 118.742 104.396 118.12 104.396C117.12 104.396 116.347 104.122 115.8 103.576C115.254 103.03 114.981 102.202 114.981 101.093C114.981 100.546 115.061 100.071 115.22 99.6681C115.38 99.2562 115.599 98.9159 115.876 98.6469C116.153 98.378 116.481 98.1763 116.859 98.0418C117.237 97.9073 117.649 97.8401 118.095 97.8401ZM118.095 98.7478C117.498 98.7478 117.027 98.9033 116.683 99.2142C116.338 99.5252 116.132 99.9874 116.065 100.601H119.834V100.588C119.834 99.9832 119.671 99.5252 119.343 99.2142C119.015 98.9033 118.599 98.7478 118.095 98.7478ZM124.097 98.8991H121.991V97.9662H127.236V98.8991H125.143V104.27H124.097V98.8991ZM132.37 97.9662H133.366V99.1764C133.526 98.8066 133.794 98.4914 134.173 98.2309C134.551 97.9704 135.059 97.8401 135.698 97.8401C136.539 97.8401 137.207 98.088 137.703 98.5839C138.198 99.0798 138.446 99.8782 138.446 100.979C138.446 101.601 138.379 102.131 138.245 102.568C138.119 102.996 137.929 103.349 137.677 103.627C137.434 103.896 137.135 104.093 136.782 104.219C136.429 104.345 136.026 104.408 135.572 104.408C135.043 104.408 134.593 104.299 134.223 104.08C133.862 103.854 133.593 103.593 133.416 103.299V106.539H132.37V97.9662ZM133.416 101.383C133.416 102.038 133.597 102.551 133.958 102.921C134.328 103.282 134.811 103.463 135.408 103.463C136.097 103.463 136.597 103.278 136.908 102.908C137.228 102.538 137.387 101.916 137.387 101.042C137.387 100.622 137.341 100.269 137.249 99.9832C137.156 99.6891 137.022 99.4538 136.845 99.2773C136.677 99.1008 136.471 98.9747 136.228 98.8991C135.984 98.8234 135.715 98.7856 135.421 98.7856C134.765 98.7856 134.269 98.9621 133.933 99.3151C133.605 99.6597 133.433 100.147 133.416 100.777V101.383ZM140.323 98.4452C140.534 98.2855 140.819 98.1469 141.181 98.0292C141.55 97.9031 141.979 97.8401 142.467 97.8401C142.87 97.8401 143.231 97.8779 143.551 97.9536C143.87 98.0292 144.139 98.1553 144.358 98.3318C144.585 98.5082 144.757 98.7436 144.874 99.0377C144.992 99.3235 145.051 99.6807 145.051 100.109V104.27H144.055V103.198C143.887 103.551 143.614 103.837 143.236 104.055C142.866 104.265 142.429 104.37 141.924 104.37C141.294 104.37 140.79 104.206 140.412 103.879C140.033 103.551 139.844 103.063 139.844 102.416C139.844 102.072 139.903 101.786 140.021 101.559C140.147 101.324 140.323 101.139 140.55 101.004C140.777 100.862 141.055 100.765 141.382 100.714C141.71 100.656 142.084 100.626 142.504 100.626H144.005V100.122C144.005 99.853 143.967 99.6302 143.891 99.4538C143.816 99.2773 143.71 99.1386 143.576 99.0377C143.442 98.9285 143.278 98.8528 143.084 98.8108C142.899 98.7688 142.694 98.7478 142.467 98.7478C141.971 98.7478 141.542 98.857 141.181 99.0756C140.828 99.2941 140.542 99.5798 140.323 99.9328V98.4452ZM142.189 103.4C142.509 103.4 142.778 103.353 142.996 103.261C143.223 103.169 143.408 103.059 143.551 102.933C143.694 102.799 143.799 102.66 143.866 102.517C143.942 102.374 143.988 102.248 144.005 102.139V101.458H142.542C141.971 101.458 141.555 101.517 141.294 101.635C141.042 101.752 140.916 101.992 140.916 102.353C140.916 102.664 141.021 102.916 141.231 103.11C141.441 103.303 141.761 103.4 142.189 103.4ZM151.512 98.8991H148.284V104.27H147.238V97.9662H152.558V104.27H151.512V98.8991ZM154.366 101.093C154.366 100.546 154.445 100.071 154.605 99.6681C154.765 99.2562 154.983 98.9159 155.261 98.6469C155.538 98.378 155.866 98.1763 156.244 98.0418C156.622 97.9073 157.034 97.8401 157.479 97.8401C158.471 97.8485 159.24 98.1258 159.786 98.6721C160.333 99.2184 160.606 100.042 160.606 101.143C160.606 101.689 160.526 102.168 160.366 102.58C160.207 102.984 159.988 103.32 159.711 103.589C159.433 103.858 159.106 104.059 158.727 104.194C158.349 104.328 157.937 104.396 157.492 104.396C156.492 104.387 155.719 104.114 155.172 103.576C154.634 103.03 154.366 102.202 154.366 101.093ZM155.424 101.13C155.424 101.946 155.601 102.542 155.954 102.921C156.307 103.299 156.82 103.488 157.492 103.488C158.156 103.488 158.664 103.295 159.017 102.908C159.37 102.513 159.547 101.925 159.547 101.143V101.105C159.547 100.298 159.366 99.7059 159.005 99.3277C158.652 98.9495 158.143 98.7562 157.479 98.7478C156.815 98.7478 156.307 98.9453 155.954 99.3403C155.601 99.7269 155.424 100.311 155.424 101.093V101.13ZM162.414 97.9662H163.41V99.1764C163.57 98.8066 163.839 98.4914 164.217 98.2309C164.595 97.9704 165.104 97.8401 165.742 97.8401C166.583 97.8401 167.251 98.088 167.747 98.5839C168.243 99.0798 168.491 99.8782 168.491 100.979C168.491 101.601 168.423 102.131 168.289 102.568C168.163 102.996 167.974 103.349 167.722 103.627C167.478 103.896 167.179 104.093 166.826 104.219C166.473 104.345 166.07 104.408 165.616 104.408C165.087 104.408 164.637 104.299 164.267 104.08C163.906 103.854 163.637 103.593 163.46 103.299V106.539H162.414V97.9662ZM163.46 101.383C163.46 102.038 163.641 102.551 164.003 102.921C164.372 103.282 164.856 103.463 165.452 103.463C166.141 103.463 166.642 103.278 166.953 102.908C167.272 102.538 167.432 101.916 167.432 101.042C167.432 100.622 167.385 100.269 167.293 99.9832C167.2 99.6891 167.066 99.4538 166.889 99.2773C166.721 99.1008 166.515 98.9747 166.272 98.8991C166.028 98.8234 165.759 98.7856 165.465 98.7856C164.809 98.7856 164.314 98.9621 163.977 99.3151C163.65 99.6597 163.477 100.147 163.46 100.777V101.383ZM174.137 102H172.498L170.784 104.27H169.573L171.376 101.887C170.964 101.769 170.641 101.572 170.405 101.294C170.17 101.009 170.052 100.639 170.052 100.185C170.052 99.7815 170.103 99.4411 170.204 99.1638C170.305 98.878 170.464 98.6469 170.683 98.4704C170.91 98.2939 171.2 98.1679 171.553 98.0922C171.906 98.0082 172.33 97.9662 172.826 97.9662H175.183V104.27H174.137V102ZM172.839 98.8991C172.536 98.8991 172.275 98.9201 172.057 98.9621C171.838 98.9957 171.658 99.0629 171.515 99.1638C171.372 99.2562 171.267 99.3865 171.2 99.5546C171.132 99.7143 171.099 99.9244 171.099 100.185C171.107 100.479 171.216 100.719 171.427 100.904C171.637 101.088 171.981 101.181 172.46 101.181H174.137V98.8991H172.839ZM177.404 103.274C177.513 103.038 177.61 102.778 177.694 102.492C177.778 102.206 177.849 101.883 177.908 101.521C177.975 101.151 178.026 100.735 178.059 100.273C178.093 99.8109 178.11 99.2815 178.11 98.6847V97.9662H182.547V103.274H183.569V105.908H182.573V104.27H177.643V105.908H176.648V103.274H177.404ZM179.093 99.4159C179.076 100.223 179.018 100.933 178.917 101.546C178.824 102.16 178.665 102.736 178.438 103.274H181.501V98.8991H179.106L179.093 99.4159ZM185.147 104.27V97.9662H186.194V102.656L189.749 97.9662H190.669V104.27H189.623V99.542L186.194 104.118L186.08 104.27H185.147ZM194.363 98.8991H192.257V97.9662H197.502V98.8991H195.409V104.27H194.363V98.8991ZM201.727 97.8401C202.601 97.8401 203.282 98.1006 203.769 98.6217C204.265 99.1428 204.513 99.874 204.513 100.815V101.496H199.685C199.735 102.177 199.937 102.681 200.29 103.009C200.643 103.328 201.13 103.488 201.752 103.488C202.357 103.488 202.853 103.383 203.24 103.173C203.626 102.963 203.904 102.706 204.072 102.404V103.627C203.912 103.82 203.639 103.996 203.252 104.156C202.874 104.316 202.374 104.396 201.752 104.396C200.752 104.396 199.979 104.122 199.433 103.576C198.886 103.03 198.613 102.202 198.613 101.093C198.613 100.546 198.693 100.071 198.853 99.6681C199.012 99.2562 199.231 98.9159 199.508 98.6469C199.786 98.378 200.113 98.1763 200.492 98.0418C200.87 97.9073 201.282 97.8401 201.727 97.8401ZM201.727 98.7478C201.13 98.7478 200.66 98.9033 200.315 99.2142C199.97 99.5252 199.765 99.9874 199.697 100.601H203.467V100.588C203.467 99.9832 203.303 99.5252 202.975 99.2142C202.647 98.9033 202.231 98.7478 201.727 98.7478ZM210.304 98.8991H207.858L207.845 99.3781C207.82 100.16 207.774 100.828 207.707 101.383C207.639 101.929 207.555 102.387 207.455 102.757C207.354 103.127 207.24 103.416 207.114 103.627C206.988 103.837 206.854 103.996 206.711 104.106C206.568 104.206 206.421 104.27 206.27 104.295C206.118 104.328 205.967 104.345 205.816 104.345C205.622 104.345 205.454 104.324 205.311 104.282V103.16C205.421 103.185 205.526 103.198 205.627 103.198C205.736 103.198 205.837 103.19 205.929 103.173C206.03 103.148 206.122 103.089 206.206 102.996C206.299 102.904 206.379 102.769 206.446 102.593C206.522 102.408 206.589 102.156 206.648 101.836C206.707 101.509 206.753 101.101 206.786 100.614C206.828 100.126 206.862 99.5336 206.887 98.836L206.912 97.9662H211.35V104.27H210.304V98.8991ZM217.511 102H215.872L214.157 104.27H212.947L214.75 101.887C214.338 101.769 214.014 101.572 213.779 101.294C213.544 101.009 213.426 100.639 213.426 100.185C213.426 99.7815 213.476 99.4411 213.577 99.1638C213.678 98.878 213.838 98.6469 214.056 98.4704C214.283 98.2939 214.573 98.1679 214.926 98.0922C215.279 98.0082 215.704 97.9662 216.199 97.9662H218.557V104.27H217.511V102ZM216.212 98.8991C215.909 98.8991 215.649 98.9201 215.43 98.9621C215.212 98.9957 215.031 99.0629 214.888 99.1638C214.745 99.2562 214.64 99.3865 214.573 99.5546C214.506 99.7143 214.472 99.9244 214.472 100.185C214.481 100.479 214.59 100.719 214.8 100.904C215.01 101.088 215.355 101.181 215.834 101.181H217.511V98.8991H216.212ZM227.095 95.1549C226.994 95.2725 226.838 95.4784 226.628 95.7726C226.418 96.0667 226.208 96.4449 225.998 96.9072C225.788 97.3694 225.603 97.9157 225.443 98.5461C225.283 99.1764 225.204 99.8824 225.204 100.664C225.204 101.454 225.283 102.164 225.443 102.795C225.603 103.416 225.788 103.959 225.998 104.421C226.208 104.891 226.418 105.274 226.628 105.568C226.838 105.862 226.994 106.068 227.095 106.186L226.553 106.602C226.401 106.493 226.187 106.274 225.91 105.946C225.641 105.618 225.372 105.194 225.103 104.673C224.842 104.16 224.615 103.568 224.422 102.895C224.229 102.215 224.132 101.475 224.132 100.677C224.132 100.147 224.178 99.6429 224.271 99.1638C224.363 98.6763 224.481 98.2267 224.624 97.8149C224.767 97.3947 224.931 97.0122 225.115 96.6677C225.3 96.3231 225.481 96.0205 225.657 95.76C225.834 95.4994 226.002 95.2851 226.162 95.117C226.321 94.9405 226.452 94.8145 226.553 94.7388L227.095 95.1549ZM228.882 104.27V95.4448H232.538C232.975 95.4448 233.366 95.4868 233.71 95.5709C234.055 95.6549 234.349 95.7852 234.593 95.9617C234.836 96.1298 235.021 96.3483 235.147 96.6172C235.282 96.8862 235.349 97.2098 235.349 97.588C235.349 98.6721 234.878 99.3655 233.937 99.6681C234.525 99.7437 234.95 99.958 235.21 100.311C235.479 100.656 235.614 101.118 235.614 101.698C235.614 102.152 235.534 102.542 235.374 102.87C235.215 103.198 234.988 103.467 234.694 103.677C234.399 103.879 234.034 104.03 233.597 104.131C233.168 104.223 232.685 104.27 232.147 104.27H228.882ZM232.311 103.261C233.008 103.261 233.542 103.139 233.912 102.895C234.282 102.652 234.467 102.257 234.467 101.71C234.467 101.425 234.412 101.189 234.303 101.004C234.202 100.819 234.055 100.672 233.861 100.563C233.677 100.445 233.454 100.366 233.193 100.324C232.941 100.273 232.66 100.248 232.349 100.248H230.016V103.261H232.311ZM232.248 99.3403C232.517 99.3403 232.769 99.3067 233.004 99.2394C233.248 99.1722 233.458 99.0756 233.635 98.9495C233.811 98.815 233.95 98.6553 234.051 98.4704C234.16 98.2771 234.214 98.0544 234.214 97.8023C234.214 97.3484 234.059 97.0122 233.748 96.7937C233.445 96.5668 232.958 96.4534 232.286 96.4534H230.016V99.3403H232.248ZM241.823 98.8991H239.378L239.365 99.3781C239.34 100.16 239.294 100.828 239.226 101.383C239.159 101.929 239.075 102.387 238.974 102.757C238.873 103.127 238.76 103.416 238.634 103.627C238.508 103.837 238.373 103.996 238.23 104.106C238.088 104.206 237.94 104.27 237.789 104.295C237.638 104.328 237.487 104.345 237.335 104.345C237.142 104.345 236.974 104.324 236.831 104.282V103.16C236.94 103.185 237.045 103.198 237.146 103.198C237.255 103.198 237.356 103.19 237.449 103.173C237.55 103.148 237.642 103.089 237.726 102.996C237.819 102.904 237.898 102.769 237.966 102.593C238.041 102.408 238.109 102.156 238.167 101.836C238.226 101.509 238.272 101.101 238.306 100.614C238.348 100.126 238.382 99.5336 238.407 98.836L238.432 97.9662H242.87V104.27H241.823V98.8991ZM245.261 98.4452C245.471 98.2855 245.757 98.1469 246.118 98.0292C246.488 97.9031 246.916 97.8401 247.404 97.8401C247.807 97.8401 248.169 97.8779 248.488 97.9536C248.807 98.0292 249.076 98.1553 249.295 98.3318C249.522 98.5082 249.694 98.7436 249.812 99.0377C249.929 99.3235 249.988 99.6807 249.988 100.109V104.27H248.992V103.198C248.824 103.551 248.551 103.837 248.173 104.055C247.803 104.265 247.366 104.37 246.862 104.37C246.231 104.37 245.727 104.206 245.349 103.879C244.971 103.551 244.782 103.063 244.782 102.416C244.782 102.072 244.841 101.786 244.958 101.559C245.084 101.324 245.261 101.139 245.488 101.004C245.715 100.862 245.992 100.765 246.32 100.714C246.648 100.656 247.022 100.626 247.442 100.626H248.942V100.122C248.942 99.853 248.904 99.6302 248.828 99.4538C248.753 99.2773 248.648 99.1386 248.513 99.0377C248.379 98.9285 248.215 98.8528 248.022 98.8108C247.837 98.7688 247.631 98.7478 247.404 98.7478C246.908 98.7478 246.479 98.857 246.118 99.0756C245.765 99.2941 245.479 99.5798 245.261 99.9328V98.4452ZM247.127 103.4C247.446 103.4 247.715 103.353 247.933 103.261C248.16 103.169 248.345 103.059 248.488 102.933C248.631 102.799 248.736 102.66 248.803 102.517C248.879 102.374 248.925 102.248 248.942 102.139V101.458H247.48C246.908 101.458 246.492 101.517 246.231 101.635C245.979 101.752 245.853 101.992 245.853 102.353C245.853 102.664 245.958 102.916 246.168 103.11C246.379 103.303 246.698 103.4 247.127 103.4ZM252.112 103.274C252.222 103.038 252.318 102.778 252.402 102.492C252.486 102.206 252.558 101.883 252.617 101.521C252.684 101.151 252.734 100.735 252.768 100.273C252.802 99.8109 252.818 99.2815 252.818 98.6847V97.9662H257.256V103.274H258.277V105.908H257.281V104.27H252.352V105.908H251.356V103.274H252.112ZM253.802 99.4159C253.785 100.223 253.726 100.933 253.625 101.546C253.533 102.16 253.373 102.736 253.146 103.274H256.21V98.8991H253.814L253.802 99.4159ZM262.491 97.8401C263.365 97.8401 264.045 98.1006 264.533 98.6217C265.029 99.1428 265.277 99.874 265.277 100.815V101.496H260.448C260.499 102.177 260.7 102.681 261.053 103.009C261.406 103.328 261.894 103.488 262.516 103.488C263.121 103.488 263.617 103.383 264.003 103.173C264.39 102.963 264.667 102.706 264.835 102.404V103.627C264.676 103.82 264.403 103.996 264.016 104.156C263.638 104.316 263.138 104.396 262.516 104.396C261.516 104.396 260.742 104.122 260.196 103.576C259.65 103.03 259.377 102.202 259.377 101.093C259.377 100.546 259.457 100.071 259.616 99.6681C259.776 99.2562 259.994 98.9159 260.272 98.6469C260.549 98.378 260.877 98.1763 261.255 98.0418C261.633 97.9073 262.045 97.8401 262.491 97.8401ZM262.491 98.7478C261.894 98.7478 261.423 98.9033 261.079 99.2142C260.734 99.5252 260.528 99.9874 260.461 100.601H264.23V100.588C264.23 99.9832 264.066 99.5252 263.739 99.2142C263.411 98.9033 262.995 98.7478 262.491 98.7478ZM271.067 98.8991H268.622L268.609 99.3781C268.584 100.16 268.538 100.828 268.47 101.383C268.403 101.929 268.319 102.387 268.218 102.757C268.117 103.127 268.004 103.416 267.878 103.627C267.752 103.837 267.617 103.996 267.474 104.106C267.331 104.206 267.184 104.27 267.033 104.295C266.882 104.328 266.731 104.345 266.579 104.345C266.386 104.345 266.218 104.324 266.075 104.282V103.16C266.184 103.185 266.289 103.198 266.39 103.198C266.499 103.198 266.6 103.19 266.693 103.173C266.794 103.148 266.886 103.089 266.97 102.996C267.063 102.904 267.142 102.769 267.21 102.593C267.285 102.408 267.352 102.156 267.411 101.836C267.47 101.509 267.516 101.101 267.55 100.614C267.592 100.126 267.626 99.5336 267.651 98.836L267.676 97.9662H272.114V104.27H271.067V98.8991ZM279.51 102.051C279.51 102.454 279.455 102.799 279.346 103.084C279.245 103.362 279.081 103.589 278.854 103.765C278.636 103.942 278.35 104.072 277.997 104.156C277.652 104.232 277.232 104.27 276.736 104.27H274.404V97.9662H275.45V99.9958H276.9C277.329 99.9958 277.703 100.025 278.022 100.084C278.35 100.143 278.623 100.252 278.841 100.412C279.068 100.563 279.236 100.773 279.346 101.042C279.455 101.303 279.51 101.639 279.51 102.051ZM278.463 102.038C278.455 101.803 278.421 101.614 278.362 101.471C278.312 101.328 278.22 101.219 278.085 101.143C277.959 101.059 277.787 101.004 277.568 100.979C277.358 100.946 277.098 100.929 276.787 100.929H275.45V103.337H276.724C277.026 103.337 277.287 103.32 277.505 103.286C277.724 103.244 277.904 103.177 278.047 103.084C278.19 102.984 278.295 102.849 278.362 102.681C278.43 102.513 278.463 102.299 278.463 102.038ZM281.296 97.9662H282.343V103.274H285.532V97.9662H286.579V103.274H287.574V105.908H286.579V104.27H281.296V97.9662ZM289.25 98.4452C289.46 98.2855 289.746 98.1469 290.107 98.0292C290.477 97.9031 290.906 97.8401 291.393 97.8401C291.796 97.8401 292.158 97.8779 292.477 97.9536C292.797 98.0292 293.065 98.1553 293.284 98.3318C293.511 98.5082 293.683 98.7436 293.801 99.0377C293.919 99.3235 293.977 99.6807 293.977 100.109V104.27H292.981V103.198C292.813 103.551 292.54 103.837 292.162 104.055C291.792 104.265 291.355 104.37 290.851 104.37C290.221 104.37 289.716 104.206 289.338 103.879C288.96 103.551 288.771 103.063 288.771 102.416C288.771 102.072 288.83 101.786 288.947 101.559C289.073 101.324 289.25 101.139 289.477 101.004C289.704 100.862 289.981 100.765 290.309 100.714C290.637 100.656 291.011 100.626 291.431 100.626H292.931V100.122C292.931 99.853 292.893 99.6302 292.818 99.4538C292.742 99.2773 292.637 99.1386 292.502 99.0377C292.368 98.9285 292.204 98.8528 292.011 98.8108C291.826 98.7688 291.62 98.7478 291.393 98.7478C290.897 98.7478 290.468 98.857 290.107 99.0756C289.754 99.2941 289.468 99.5798 289.25 99.9328V98.4452ZM291.116 103.4C291.435 103.4 291.704 103.353 291.922 103.261C292.149 103.169 292.334 103.059 292.477 102.933C292.62 102.799 292.725 102.66 292.792 102.517C292.868 102.374 292.914 102.248 292.931 102.139V101.458H291.469C290.897 101.458 290.481 101.517 290.221 101.635C289.968 101.752 289.842 101.992 289.842 102.353C289.842 102.664 289.947 102.916 290.158 103.11C290.368 103.303 290.687 103.4 291.116 103.4ZM299.708 97.9662H300.755V100.601H301.889L303.868 97.9662H305.066L302.759 100.941L305.482 104.27H304.158L301.889 101.496H300.755V104.27H299.708V97.9662ZM307.108 98.4452C307.318 98.2855 307.604 98.1469 307.965 98.0292C308.335 97.9031 308.763 97.8401 309.251 97.8401C309.654 97.8401 310.016 97.8779 310.335 97.9536C310.654 98.0292 310.923 98.1553 311.142 98.3318C311.369 98.5082 311.541 98.7436 311.659 99.0377C311.776 99.3235 311.835 99.6807 311.835 100.109V104.27H310.839V103.198C310.671 103.551 310.398 103.837 310.02 104.055C309.65 104.265 309.213 104.37 308.709 104.37C308.079 104.37 307.574 104.206 307.196 103.879C306.818 103.551 306.629 103.063 306.629 102.416C306.629 102.072 306.688 101.786 306.805 101.559C306.931 101.324 307.108 101.139 307.335 101.004C307.562 100.862 307.839 100.765 308.167 100.714C308.495 100.656 308.869 100.626 309.289 100.626H310.789V100.122C310.789 99.853 310.751 99.6302 310.675 99.4538C310.6 99.2773 310.495 99.1386 310.36 99.0377C310.226 98.9285 310.062 98.8528 309.869 98.8108C309.684 98.7688 309.478 98.7478 309.251 98.7478C308.755 98.7478 308.326 98.857 307.965 99.0756C307.612 99.2941 307.326 99.5798 307.108 99.9328V98.4452ZM308.974 103.4C309.293 103.4 309.562 103.353 309.78 103.261C310.007 103.169 310.192 103.059 310.335 102.933C310.478 102.799 310.583 102.66 310.65 102.517C310.726 102.374 310.772 102.248 310.789 102.139V101.458H309.327C308.755 101.458 308.339 101.517 308.079 101.635C307.826 101.752 307.7 101.992 307.7 102.353C307.7 102.664 307.805 102.916 308.015 103.11C308.226 103.303 308.545 103.4 308.974 103.4ZM315.434 98.8991H313.329V97.9662H318.573V98.8991H316.481V104.27H315.434V98.8991ZM322.799 97.8401C323.673 97.8401 324.354 98.1006 324.841 98.6217C325.337 99.1428 325.585 99.874 325.585 100.815V101.496H320.756C320.807 102.177 321.009 102.681 321.362 103.009C321.715 103.328 322.202 103.488 322.824 103.488C323.429 103.488 323.925 103.383 324.311 103.173C324.698 102.963 324.975 102.706 325.144 102.404V103.627C324.984 103.82 324.711 103.996 324.324 104.156C323.946 104.316 323.446 104.396 322.824 104.396C321.824 104.396 321.051 104.122 320.504 103.576C319.958 103.03 319.685 102.202 319.685 101.093C319.685 100.546 319.765 100.071 319.924 99.6681C320.084 99.2562 320.303 98.9159 320.58 98.6469C320.857 98.378 321.185 98.1763 321.563 98.0418C321.941 97.9073 322.353 97.8401 322.799 97.8401ZM322.799 98.7478C322.202 98.7478 321.731 98.9033 321.387 99.2142C321.042 99.5252 320.836 99.9874 320.769 100.601H324.538V100.588C324.538 99.9832 324.375 99.5252 324.047 99.2142C323.719 98.9033 323.303 98.7478 322.799 98.7478ZM327.389 97.9662H331.599V98.8991H328.435V104.27H327.389V97.9662ZM333.026 101.093C333.026 100.546 333.106 100.071 333.266 99.6681C333.426 99.2562 333.644 98.9159 333.922 98.6469C334.199 98.378 334.527 98.1763 334.905 98.0418C335.283 97.9073 335.695 97.8401 336.14 97.8401C337.132 97.8485 337.901 98.1258 338.447 98.6721C338.994 99.2184 339.267 100.042 339.267 101.143C339.267 101.689 339.187 102.168 339.027 102.58C338.868 102.984 338.649 103.32 338.372 103.589C338.094 103.858 337.767 104.059 337.388 104.194C337.01 104.328 336.598 104.396 336.153 104.396C335.153 104.387 334.38 104.114 333.833 103.576C333.295 103.03 333.026 102.202 333.026 101.093ZM334.085 101.13C334.085 101.946 334.262 102.542 334.615 102.921C334.968 103.299 335.481 103.488 336.153 103.488C336.817 103.488 337.325 103.295 337.678 102.908C338.031 102.513 338.208 101.925 338.208 101.143V101.105C338.208 100.298 338.027 99.7059 337.666 99.3277C337.313 98.9495 336.804 98.7562 336.14 98.7478C335.476 98.7478 334.968 98.9453 334.615 99.3403C334.262 99.7269 334.085 100.311 334.085 101.093V101.13ZM341.075 97.9662H342.071V99.1764C342.231 98.8066 342.5 98.4914 342.878 98.2309C343.256 97.9704 343.764 97.8401 344.403 97.8401C345.244 97.8401 345.912 98.088 346.408 98.5839C346.904 99.0798 347.151 99.8782 347.151 100.979C347.151 101.601 347.084 102.131 346.95 102.568C346.824 102.996 346.635 103.349 346.382 103.627C346.139 103.896 345.84 104.093 345.487 104.219C345.134 104.345 344.731 104.408 344.277 104.408C343.748 104.408 343.298 104.299 342.928 104.08C342.567 103.854 342.298 103.593 342.121 103.299V106.539H341.075V97.9662ZM342.121 101.383C342.121 102.038 342.302 102.551 342.663 102.921C343.033 103.282 343.517 103.463 344.113 103.463C344.802 103.463 345.302 103.278 345.613 102.908C345.933 102.538 346.092 101.916 346.092 101.042C346.092 100.622 346.046 100.269 345.954 99.9832C345.861 99.6891 345.727 99.4538 345.55 99.2773C345.382 99.1008 345.176 98.9747 344.933 98.8991C344.689 98.8234 344.42 98.7856 344.126 98.7856C343.47 98.7856 342.974 98.9621 342.638 99.3151C342.31 99.6597 342.138 100.147 342.121 100.777V101.383ZM348.928 104.27V97.9662H349.974V102.656L353.529 97.9662H354.449V104.27H353.403V99.542L349.974 104.118L349.861 104.27H348.928ZM356.731 104.27V97.9662H357.777V102.656L361.333 97.9662H362.253V104.27H361.207V99.542L357.777 104.118L357.664 104.27H356.731ZM366.753 100.677C366.753 101.475 366.653 102.215 366.451 102.895C366.257 103.568 366.026 104.16 365.757 104.673C365.497 105.186 365.232 105.606 364.963 105.934C364.694 106.261 364.484 106.48 364.333 106.589L363.791 106.173C363.892 106.055 364.047 105.85 364.257 105.555C364.467 105.261 364.677 104.879 364.888 104.408C365.098 103.946 365.283 103.404 365.442 102.782C365.602 102.152 365.682 101.441 365.682 100.651C365.682 99.8698 365.602 99.168 365.442 98.5461C365.283 97.9157 365.098 97.3694 364.888 96.9072C364.677 96.4449 364.467 96.0667 364.257 95.7726C364.047 95.4784 363.892 95.2725 363.791 95.1549L364.333 94.7388C364.484 94.8481 364.694 95.0708 364.963 95.407C365.232 95.7348 365.497 96.155 365.757 96.6677C366.026 97.1803 366.257 97.7771 366.451 98.4578C366.653 99.1386 366.753 99.8782 366.753 100.677Z" fill="#0B0C0E"/>
<path d="M64.4473 121.844H397.265" stroke="#E4E4E4" stroke-width="0.840449"/>
<path d="M84.3492 137.884H84.8408C85.5132 137.884 86.1099 137.973 86.631 138.149C87.1521 138.326 87.5891 138.582 87.9421 138.918C88.3035 139.254 88.5766 139.666 88.7615 140.153C88.9464 140.633 89.0389 141.175 89.0389 141.78C89.0389 142.427 88.9422 142.994 88.7489 143.482C88.5556 143.969 88.2741 144.377 87.9043 144.705C87.5345 145.032 87.0806 145.28 86.5428 145.448C86.0133 145.616 85.4081 145.7 84.7274 145.7H84.3492V146.545H83.2146V145.7H82.7229C81.3698 145.7 80.3318 145.356 79.609 144.667C78.8863 143.978 78.5249 143.024 78.5249 141.805C78.5249 141.158 78.6215 140.591 78.8148 140.103C79.0081 139.616 79.2897 139.208 79.6595 138.88C80.0293 138.552 80.4789 138.304 81.0084 138.136C81.5463 137.968 82.1556 137.884 82.8364 137.884H83.2146V137.216H84.3492V137.884ZM79.7099 141.704C79.7099 142.234 79.7813 142.692 79.9242 143.078C80.0755 143.456 80.2856 143.772 80.5546 144.024C80.8235 144.276 81.1471 144.465 81.5253 144.591C81.9035 144.709 82.3237 144.768 82.7859 144.768H83.2146V138.817H82.8112C82.2565 138.817 81.7816 138.884 81.3866 139.019C81 139.145 80.6806 139.334 80.4285 139.586C80.1764 139.83 79.9915 140.132 79.8738 140.494C79.7645 140.847 79.7099 141.25 79.7099 141.704ZM84.3492 138.817V144.768H84.7526C85.3073 144.768 85.7779 144.705 86.1646 144.578C86.5596 144.444 86.8831 144.255 87.1353 144.011C87.3874 143.759 87.5681 143.456 87.6774 143.103C87.795 142.742 87.8539 142.334 87.8539 141.881C87.8539 141.351 87.7782 140.897 87.6269 140.519C87.4841 140.132 87.2782 139.813 87.0092 139.561C86.7403 139.309 86.4167 139.124 86.0385 139.006C85.6603 138.88 85.2401 138.817 84.7778 138.817H84.3492ZM90.4625 143.116C90.4625 142.57 90.5424 142.095 90.7021 141.692C90.8617 141.28 91.0803 140.939 91.3576 140.67C91.635 140.401 91.9627 140.2 92.3409 140.065C92.7191 139.931 93.131 139.864 93.5764 139.864C94.5681 139.872 95.3371 140.149 95.8834 140.696C96.4297 141.242 96.7029 142.066 96.7029 143.166C96.7029 143.713 96.623 144.192 96.4633 144.604C96.3037 145.007 96.0851 145.343 95.8078 145.612C95.5304 145.881 95.2027 146.083 94.8245 146.217C94.4463 146.352 94.0344 146.419 93.589 146.419C92.5889 146.411 91.8157 146.137 91.2694 145.6C90.7315 145.053 90.4625 144.225 90.4625 143.116ZM91.5215 143.154C91.5215 143.969 91.698 144.566 92.051 144.944C92.404 145.322 92.9166 145.511 93.589 145.511C94.253 145.511 94.7614 145.318 95.1144 144.931C95.4674 144.536 95.6439 143.948 95.6439 143.166V143.129C95.6439 142.322 95.4632 141.729 95.1018 141.351C94.7488 140.973 94.2404 140.78 93.5764 140.771C92.9124 140.771 92.404 140.969 92.051 141.364C91.698 141.75 91.5215 142.334 91.5215 143.116V143.154ZM98.5111 139.99H99.5071V141.2C99.6667 140.83 99.9357 140.515 100.314 140.254C100.692 139.994 101.201 139.864 101.839 139.864C102.68 139.864 103.348 140.111 103.844 140.607C104.34 141.103 104.588 141.902 104.588 143.003C104.588 143.625 104.52 144.154 104.386 144.591C104.26 145.02 104.071 145.373 103.819 145.65C103.575 145.919 103.276 146.116 102.923 146.243C102.57 146.369 102.167 146.432 101.713 146.432C101.184 146.432 100.734 146.322 100.364 146.104C100.003 145.877 99.734 145.616 99.5575 145.322V148.562H98.5111V139.99ZM99.5575 143.406C99.5575 144.062 99.7382 144.574 100.1 144.944C100.469 145.305 100.953 145.486 101.549 145.486C102.239 145.486 102.739 145.301 103.05 144.931C103.369 144.562 103.529 143.94 103.529 143.066C103.529 142.645 103.482 142.292 103.39 142.007C103.297 141.713 103.163 141.477 102.987 141.301C102.818 141.124 102.613 140.998 102.369 140.922C102.125 140.847 101.856 140.809 101.562 140.809C100.906 140.809 100.411 140.986 100.074 141.339C99.7466 141.683 99.5743 142.171 99.5575 142.801V143.406ZM112.176 141.528L110.032 144.679H109.566L107.41 141.528V146.293H106.364V139.99H107.498L109.843 143.33L112.15 139.99H113.222V146.293H112.176V141.528ZM115.509 146.293V139.99H116.556V144.679L120.111 139.99H121.031V146.293H119.985V141.565L116.556 146.142L116.442 146.293H115.509ZM123.313 139.99H124.309V141.2C124.468 140.83 124.737 140.515 125.115 140.254C125.494 139.994 126.002 139.864 126.641 139.864C127.481 139.864 128.149 140.111 128.645 140.607C129.141 141.103 129.389 141.902 129.389 143.003C129.389 143.625 129.322 144.154 129.187 144.591C129.061 145.02 128.872 145.373 128.62 145.65C128.376 145.919 128.078 146.116 127.725 146.243C127.372 146.369 126.969 146.432 126.515 146.432C125.985 146.432 125.536 146.322 125.166 146.104C124.804 145.877 124.535 145.616 124.359 145.322V148.562H123.313V139.99ZM124.359 143.406C124.359 144.062 124.54 144.574 124.901 144.944C125.271 145.305 125.754 145.486 126.351 145.486C127.04 145.486 127.54 145.301 127.851 144.931C128.17 144.562 128.33 143.94 128.33 143.066C128.33 142.645 128.284 142.292 128.191 142.007C128.099 141.713 127.965 141.477 127.788 141.301C127.62 141.124 127.414 140.998 127.17 140.922C126.927 140.847 126.658 140.809 126.363 140.809C125.708 140.809 125.212 140.986 124.876 141.339C124.548 141.683 124.376 142.171 124.359 142.801V143.406ZM130.686 143.116C130.686 142.57 130.766 142.095 130.926 141.692C131.085 141.28 131.304 140.939 131.581 140.67C131.859 140.401 132.186 140.2 132.565 140.065C132.943 139.931 133.355 139.864 133.8 139.864C134.792 139.872 135.561 140.149 136.107 140.696C136.653 141.242 136.927 142.066 136.927 143.166C136.927 143.713 136.847 144.192 136.687 144.604C136.527 145.007 136.309 145.343 136.032 145.612C135.754 145.881 135.426 146.083 135.048 146.217C134.67 146.352 134.258 146.419 133.813 146.419C132.813 146.411 132.039 146.137 131.493 145.6C130.955 145.053 130.686 144.225 130.686 143.116ZM131.745 143.154C131.745 143.969 131.922 144.566 132.275 144.944C132.628 145.322 133.14 145.511 133.813 145.511C134.477 145.511 134.985 145.318 135.338 144.931C135.691 144.536 135.868 143.948 135.868 143.166V143.129C135.868 142.322 135.687 141.729 135.326 141.351C134.973 140.973 134.464 140.78 133.8 140.771C133.136 140.771 132.628 140.969 132.275 141.364C131.922 141.75 131.745 142.334 131.745 143.116V143.154ZM138.735 139.99H141.546C142.345 139.99 142.899 140.116 143.21 140.368C143.53 140.612 143.689 140.96 143.689 141.414C143.689 141.818 143.593 142.145 143.399 142.397C143.214 142.641 142.95 142.805 142.605 142.889C142.807 142.914 142.992 142.956 143.16 143.015C143.336 143.074 143.483 143.162 143.601 143.28C143.727 143.398 143.824 143.549 143.891 143.734C143.967 143.919 144.004 144.15 144.004 144.427C144.004 145.058 143.803 145.528 143.399 145.839C142.996 146.142 142.361 146.293 141.496 146.293H138.735V139.99ZM141.483 145.385C142.004 145.385 142.378 145.31 142.605 145.158C142.84 144.999 142.958 144.759 142.958 144.44C142.958 144.062 142.845 143.809 142.618 143.683C142.391 143.549 142.076 143.482 141.672 143.482H139.781V145.385H141.483ZM141.332 142.587C141.727 142.587 142.042 142.519 142.277 142.385C142.513 142.25 142.63 142.007 142.63 141.654C142.63 141.343 142.529 141.141 142.328 141.049C142.126 140.948 141.823 140.897 141.42 140.897L139.781 140.91V142.587H141.332ZM145.95 140.469C146.16 140.309 146.446 140.17 146.807 140.053C147.177 139.927 147.605 139.864 148.093 139.864C148.496 139.864 148.858 139.901 149.177 139.977C149.496 140.053 149.765 140.179 149.984 140.355C150.211 140.532 150.383 140.767 150.501 141.061C150.618 141.347 150.677 141.704 150.677 142.133V146.293H149.681V145.221C149.513 145.574 149.24 145.86 148.862 146.079C148.492 146.289 148.055 146.394 147.551 146.394C146.92 146.394 146.416 146.23 146.038 145.902C145.66 145.574 145.471 145.087 145.471 144.44C145.471 144.095 145.529 143.809 145.647 143.583C145.773 143.347 145.95 143.162 146.177 143.028C146.404 142.885 146.681 142.788 147.009 142.738C147.336 142.679 147.71 142.65 148.131 142.65H149.631V142.145C149.631 141.876 149.593 141.654 149.517 141.477C149.442 141.301 149.337 141.162 149.202 141.061C149.068 140.952 148.904 140.876 148.711 140.834C148.526 140.792 148.32 140.771 148.093 140.771C147.597 140.771 147.168 140.88 146.807 141.099C146.454 141.318 146.168 141.603 145.95 141.956V140.469ZM147.815 145.423C148.135 145.423 148.404 145.377 148.622 145.284C148.849 145.192 149.034 145.083 149.177 144.957C149.32 144.822 149.425 144.684 149.492 144.541C149.568 144.398 149.614 144.272 149.631 144.162V143.482H148.168C147.597 143.482 147.181 143.54 146.92 143.658C146.668 143.776 146.542 144.015 146.542 144.377C146.542 144.688 146.647 144.94 146.857 145.133C147.067 145.326 147.387 145.423 147.815 145.423ZM157.239 143.57H153.911V146.293H152.864V139.99H153.911V142.624H157.239V139.99H158.285V146.293H157.239V143.57ZM160.569 146.293V139.99H161.616V144.679L165.171 139.99H166.091V146.293H165.045V141.565L161.616 146.142L161.502 146.293H160.569ZM171.008 139.864C171.882 139.864 172.562 140.124 173.05 140.645C173.546 141.166 173.794 141.897 173.794 142.839V143.519H168.965C169.016 144.2 169.217 144.705 169.57 145.032C169.923 145.352 170.411 145.511 171.033 145.511C171.638 145.511 172.134 145.406 172.52 145.196C172.907 144.986 173.184 144.73 173.352 144.427V145.65C173.193 145.843 172.92 146.02 172.533 146.18C172.155 146.339 171.655 146.419 171.033 146.419C170.033 146.419 169.259 146.146 168.713 145.6C168.167 145.053 167.894 144.225 167.894 143.116C167.894 142.57 167.974 142.095 168.133 141.692C168.293 141.28 168.511 140.939 168.789 140.67C169.066 140.401 169.394 140.2 169.772 140.065C170.15 139.931 170.562 139.864 171.008 139.864ZM171.008 140.771C170.411 140.771 169.94 140.927 169.596 141.238C169.251 141.549 169.045 142.011 168.978 142.624H172.747V142.612C172.747 142.007 172.583 141.549 172.256 141.238C171.928 140.927 171.512 140.771 171.008 140.771ZM179.141 146.293V139.99H180.188V144.679L183.743 139.99H184.663V146.293H183.617V141.565L180.188 146.142L180.074 146.293H179.141ZM195.203 145.65C195.061 145.843 194.817 146.02 194.472 146.18C194.128 146.339 193.686 146.419 193.149 146.419C192.148 146.419 191.375 146.146 190.829 145.6C190.283 145.053 190.009 144.225 190.009 143.116C190.009 142.57 190.089 142.095 190.249 141.692C190.409 141.28 190.627 140.939 190.905 140.67C191.182 140.401 191.51 140.2 191.888 140.065C192.266 139.931 192.678 139.864 193.123 139.864C193.552 139.864 193.943 139.927 194.296 140.053C194.649 140.17 194.93 140.309 195.14 140.469V141.956C194.922 141.603 194.636 141.318 194.283 141.099C193.939 140.88 193.552 140.771 193.123 140.771C192.459 140.771 191.951 140.969 191.598 141.364C191.245 141.75 191.068 142.334 191.068 143.116V143.154C191.068 143.969 191.245 144.566 191.598 144.944C191.959 145.322 192.476 145.511 193.149 145.511C193.678 145.511 194.111 145.406 194.447 145.196C194.792 144.986 195.044 144.73 195.203 144.427V145.65ZM196.385 143.116C196.385 142.57 196.465 142.095 196.624 141.692C196.784 141.28 197.002 140.939 197.28 140.67C197.557 140.401 197.885 140.2 198.263 140.065C198.641 139.931 199.053 139.864 199.499 139.864C200.49 139.872 201.259 140.149 201.806 140.696C202.352 141.242 202.625 142.066 202.625 143.166C202.625 143.713 202.545 144.192 202.386 144.604C202.226 145.007 202.007 145.343 201.73 145.612C201.453 145.881 201.125 146.083 200.747 146.217C200.368 146.352 199.957 146.419 199.511 146.419C198.511 146.411 197.738 146.137 197.192 145.6C196.654 145.053 196.385 144.225 196.385 143.116ZM197.444 143.154C197.444 143.969 197.62 144.566 197.973 144.944C198.326 145.322 198.839 145.511 199.511 145.511C200.175 145.511 200.684 145.318 201.037 144.931C201.39 144.536 201.566 143.948 201.566 143.166V143.129C201.566 142.322 201.385 141.729 201.024 141.351C200.671 140.973 200.163 140.78 199.499 140.771C198.835 140.771 198.326 140.969 197.973 141.364C197.62 141.75 197.444 142.334 197.444 143.116V143.154ZM204.433 139.99H208.644V140.922H205.48V146.293H204.433V139.99ZM214.278 140.922H211.833L211.82 141.402C211.795 142.183 211.749 142.851 211.681 143.406C211.614 143.952 211.53 144.41 211.429 144.78C211.328 145.15 211.215 145.44 211.089 145.65C210.963 145.86 210.828 146.02 210.685 146.129C210.543 146.23 210.395 146.293 210.244 146.318C210.093 146.352 209.942 146.369 209.79 146.369C209.597 146.369 209.429 146.348 209.286 146.306V145.184C209.395 145.209 209.5 145.221 209.601 145.221C209.71 145.221 209.811 145.213 209.904 145.196C210.005 145.171 210.097 145.112 210.181 145.02C210.274 144.927 210.353 144.793 210.421 144.616C210.496 144.431 210.564 144.179 210.622 143.86C210.681 143.532 210.727 143.124 210.761 142.637C210.803 142.15 210.837 141.557 210.862 140.859L210.887 139.99H215.325V146.293H214.278V140.922ZM217.716 140.469C217.926 140.309 218.212 140.17 218.573 140.053C218.943 139.927 219.371 139.864 219.859 139.864C220.262 139.864 220.624 139.901 220.943 139.977C221.262 140.053 221.531 140.179 221.75 140.355C221.977 140.532 222.149 140.767 222.267 141.061C222.384 141.347 222.443 141.704 222.443 142.133V146.293H221.447V145.221C221.279 145.574 221.006 145.86 220.628 146.079C220.258 146.289 219.821 146.394 219.317 146.394C218.686 146.394 218.182 146.23 217.804 145.902C217.426 145.574 217.237 145.087 217.237 144.44C217.237 144.095 217.296 143.809 217.413 143.583C217.539 143.347 217.716 143.162 217.943 143.028C218.17 142.885 218.447 142.788 218.775 142.738C219.103 142.679 219.477 142.65 219.897 142.65H221.397V142.145C221.397 141.876 221.359 141.654 221.283 141.477C221.208 141.301 221.103 141.162 220.968 141.061C220.834 140.952 220.67 140.876 220.477 140.834C220.292 140.792 220.086 140.771 219.859 140.771C219.363 140.771 218.934 140.88 218.573 141.099C218.22 141.318 217.934 141.603 217.716 141.956V140.469ZM219.582 145.423C219.901 145.423 220.17 145.377 220.388 145.284C220.615 145.192 220.8 145.083 220.943 144.957C221.086 144.822 221.191 144.684 221.258 144.541C221.334 144.398 221.38 144.272 221.397 144.162V143.482H219.935C219.363 143.482 218.947 143.54 218.686 143.658C218.434 143.776 218.308 144.015 218.308 144.377C218.308 144.688 218.413 144.94 218.623 145.133C218.834 145.326 219.153 145.423 219.582 145.423ZM229.345 145.65C229.202 145.843 228.959 146.02 228.614 146.18C228.27 146.339 227.828 146.419 227.29 146.419C226.29 146.419 225.517 146.146 224.971 145.6C224.425 145.053 224.151 144.225 224.151 143.116C224.151 142.57 224.231 142.095 224.391 141.692C224.551 141.28 224.769 140.939 225.046 140.67C225.324 140.401 225.652 140.2 226.03 140.065C226.408 139.931 226.82 139.864 227.265 139.864C227.694 139.864 228.085 139.927 228.438 140.053C228.791 140.17 229.072 140.309 229.282 140.469V141.956C229.064 141.603 228.778 141.318 228.425 141.099C228.08 140.88 227.694 140.771 227.265 140.771C226.601 140.771 226.093 140.969 225.74 141.364C225.387 141.75 225.21 142.334 225.21 143.116V143.154C225.21 143.969 225.387 144.566 225.74 144.944C226.101 145.322 226.618 145.511 227.29 145.511C227.82 145.511 228.253 145.406 228.589 145.196C228.934 144.986 229.186 144.73 229.345 144.427V145.65ZM230.527 143.116C230.527 142.57 230.607 142.095 230.766 141.692C230.926 141.28 231.144 140.939 231.422 140.67C231.699 140.401 232.027 140.2 232.405 140.065C232.783 139.931 233.195 139.864 233.641 139.864C234.632 139.872 235.401 140.149 235.948 140.696C236.494 141.242 236.767 142.066 236.767 143.166C236.767 143.713 236.687 144.192 236.528 144.604C236.368 145.007 236.149 145.343 235.872 145.612C235.595 145.881 235.267 146.083 234.889 146.217C234.51 146.352 234.099 146.419 233.653 146.419C232.653 146.411 231.88 146.137 231.334 145.6C230.796 145.053 230.527 144.225 230.527 143.116ZM231.586 143.154C231.586 143.969 231.762 144.566 232.115 144.944C232.468 145.322 232.981 145.511 233.653 145.511C234.317 145.511 234.826 145.318 235.179 144.931C235.532 144.536 235.708 143.948 235.708 143.166V143.129C235.708 142.322 235.527 141.729 235.166 141.351C234.813 140.973 234.305 140.78 233.641 140.771C232.977 140.771 232.468 140.969 232.115 141.364C231.762 141.75 231.586 142.334 231.586 143.116V143.154ZM238.575 139.99H241.387C242.185 139.99 242.74 140.116 243.051 140.368C243.37 140.612 243.53 140.96 243.53 141.414C243.53 141.818 243.433 142.145 243.24 142.397C243.055 142.641 242.79 142.805 242.446 142.889C242.647 142.914 242.832 142.956 243 143.015C243.177 143.074 243.324 143.162 243.441 143.28C243.568 143.398 243.664 143.549 243.731 143.734C243.807 143.919 243.845 144.15 243.845 144.427C243.845 145.058 243.643 145.528 243.24 145.839C242.836 146.142 242.202 146.293 241.336 146.293H238.575V139.99ZM241.324 145.385C241.845 145.385 242.219 145.31 242.446 145.158C242.681 144.999 242.799 144.759 242.799 144.44C242.799 144.062 242.685 143.809 242.458 143.683C242.231 143.549 241.916 143.482 241.513 143.482H239.622V145.385H241.324ZM241.172 142.587C241.567 142.587 241.882 142.519 242.118 142.385C242.353 142.25 242.471 142.007 242.471 141.654C242.471 141.343 242.37 141.141 242.168 141.049C241.967 140.948 241.664 140.897 241.261 140.897L239.622 140.91V142.587H241.172ZM245.79 140.469C246 140.309 246.286 140.17 246.647 140.053C247.017 139.927 247.446 139.864 247.933 139.864C248.337 139.864 248.698 139.901 249.017 139.977C249.337 140.053 249.606 140.179 249.824 140.355C250.051 140.532 250.224 140.767 250.341 141.061C250.459 141.347 250.518 141.704 250.518 142.133V146.293H249.522V145.221C249.354 145.574 249.081 145.86 248.702 146.079C248.333 146.289 247.895 146.394 247.391 146.394C246.761 146.394 246.257 146.23 245.878 145.902C245.5 145.574 245.311 145.087 245.311 144.44C245.311 144.095 245.37 143.809 245.488 143.583C245.614 143.347 245.79 143.162 246.017 143.028C246.244 142.885 246.521 142.788 246.849 142.738C247.177 142.679 247.551 142.65 247.971 142.65H249.471V142.145C249.471 141.876 249.434 141.654 249.358 141.477C249.282 141.301 249.177 141.162 249.043 141.061C248.908 140.952 248.744 140.876 248.551 140.834C248.366 140.792 248.16 140.771 247.933 140.771C247.437 140.771 247.009 140.88 246.647 141.099C246.294 141.318 246.009 141.603 245.79 141.956V140.469ZM247.656 145.423C247.975 145.423 248.244 145.377 248.463 145.284C248.69 145.192 248.875 145.083 249.017 144.957C249.16 144.822 249.265 144.684 249.333 144.541C249.408 144.398 249.455 144.272 249.471 144.162V143.482H248.009C247.437 143.482 247.021 143.54 246.761 143.658C246.509 143.776 246.383 144.015 246.383 144.377C246.383 144.688 246.488 144.94 246.698 145.133C246.908 145.326 247.227 145.423 247.656 145.423ZM257.079 143.57H253.751V146.293H252.705V139.99H253.751V142.624H257.079V139.99H258.126V146.293H257.079V143.57ZM260.41 146.293V139.99H261.456V144.679L265.011 139.99H265.932V146.293H264.885V141.565L261.456 146.142L261.343 146.293H260.41ZM270.848 139.864C271.722 139.864 272.403 140.124 272.89 140.645C273.386 141.166 273.634 141.897 273.634 142.839V143.519H268.806C268.856 144.2 269.058 144.705 269.411 145.032C269.764 145.352 270.251 145.511 270.873 145.511C271.478 145.511 271.974 145.406 272.361 145.196C272.747 144.986 273.025 144.73 273.193 144.427V145.65C273.033 145.843 272.76 146.02 272.373 146.18C271.995 146.339 271.495 146.419 270.873 146.419C269.873 146.419 269.1 146.146 268.554 145.6C268.007 145.053 267.734 144.225 267.734 143.116C267.734 142.57 267.814 142.095 267.974 141.692C268.133 141.28 268.352 140.939 268.629 140.67C268.907 140.401 269.234 140.2 269.613 140.065C269.991 139.931 270.403 139.864 270.848 139.864ZM270.848 140.771C270.251 140.771 269.781 140.927 269.436 141.238C269.091 141.549 268.886 142.011 268.818 142.624H272.588V142.612C272.588 142.007 272.424 141.549 272.096 141.238C271.768 140.927 271.352 140.771 270.848 140.771ZM284.277 137.708C284.151 137.775 283.932 137.825 283.621 137.859C283.318 137.893 282.907 137.93 282.386 137.973C281.814 138.015 281.348 138.12 280.986 138.288C280.633 138.456 280.352 138.683 280.142 138.968C279.931 139.254 279.78 139.599 279.688 140.002C279.595 140.397 279.528 140.847 279.486 141.351C279.78 140.897 280.146 140.557 280.583 140.33C281.02 140.103 281.507 139.99 282.045 139.99C282.457 139.99 282.835 140.044 283.18 140.153C283.524 140.254 283.819 140.427 284.062 140.67C284.314 140.906 284.508 141.221 284.642 141.616C284.785 142.002 284.857 142.482 284.857 143.053C284.857 144.179 284.588 145.024 284.05 145.587C283.52 146.142 282.755 146.419 281.755 146.419C280.679 146.419 279.881 146.087 279.36 145.423C278.839 144.751 278.578 143.688 278.578 142.234C278.578 141.368 278.633 140.624 278.742 140.002C278.852 139.372 279.024 138.847 279.259 138.426C279.503 138.006 279.814 137.683 280.192 137.456C280.579 137.229 281.045 137.077 281.591 137.002C281.751 136.977 281.957 136.956 282.209 136.939C282.461 136.914 282.718 136.888 282.978 136.863C283.247 136.83 283.499 136.792 283.735 136.75C283.97 136.699 284.151 136.64 284.277 136.573V137.708ZM279.663 142.977C279.663 143.725 279.831 144.322 280.167 144.768C280.511 145.205 281.024 145.423 281.705 145.423C281.999 145.423 282.268 145.385 282.512 145.31C282.764 145.226 282.982 145.095 283.167 144.919C283.352 144.734 283.495 144.499 283.596 144.213C283.697 143.927 283.747 143.583 283.747 143.179C283.747 142.372 283.571 141.801 283.218 141.465C282.865 141.12 282.381 140.948 281.768 140.948C281.121 140.948 280.608 141.124 280.23 141.477C279.852 141.822 279.663 142.322 279.663 142.977ZM286.662 139.99H287.708V142.624H289.007C289.057 142.171 289.162 141.776 289.322 141.439C289.49 141.095 289.705 140.809 289.965 140.582C290.226 140.355 290.524 140.183 290.86 140.065C291.205 139.948 291.575 139.889 291.97 139.889C292.97 139.889 293.743 140.162 294.289 140.708C294.835 141.254 295.109 142.082 295.109 143.192C295.109 143.738 295.029 144.213 294.869 144.616C294.709 145.02 294.491 145.36 294.214 145.637C293.936 145.906 293.608 146.108 293.23 146.243C292.852 146.377 292.444 146.444 292.007 146.444C291.108 146.444 290.398 146.209 289.877 145.738C289.356 145.259 289.062 144.536 288.994 143.57H287.708V146.293H286.662V139.99ZM290.003 143.179C290.003 143.994 290.171 144.591 290.507 144.969C290.852 145.347 291.348 145.537 291.995 145.537C292.659 145.537 293.167 145.343 293.52 144.957C293.873 144.562 294.05 143.973 294.05 143.192V143.154C294.05 142.347 293.869 141.755 293.508 141.376C293.155 140.998 292.646 140.805 291.982 140.796C291.343 140.796 290.852 140.994 290.507 141.389C290.171 141.776 290.003 142.36 290.003 143.141V143.179ZM296.729 145.297C296.839 145.062 296.935 144.801 297.019 144.515C297.103 144.23 297.175 143.906 297.234 143.545C297.301 143.175 297.351 142.759 297.385 142.297C297.419 141.834 297.435 141.305 297.435 140.708V139.99H301.873V145.297H302.894V147.932H301.898V146.293H296.969V147.932H295.973V145.297H296.729ZM298.419 141.439C298.402 142.246 298.343 142.956 298.242 143.57C298.15 144.183 297.99 144.759 297.763 145.297H300.827V140.922H298.431L298.419 141.439ZM308.02 143.519H306.974L305.247 146.293H304.036L306.104 143.028L304.213 139.99H305.411L306.961 142.624H308.02V139.99H309.066V142.624H310.125L311.739 139.99H312.861L311.008 142.977L313.063 146.293H311.827L310.163 143.519H309.066V146.293H308.02V143.519ZM317.041 139.864C317.915 139.864 318.596 140.124 319.083 140.645C319.579 141.166 319.827 141.897 319.827 142.839V143.519H314.999C315.049 144.2 315.251 144.705 315.604 145.032C315.957 145.352 316.444 145.511 317.066 145.511C317.671 145.511 318.167 145.406 318.554 145.196C318.94 144.986 319.218 144.73 319.386 144.427V145.65C319.226 145.843 318.953 146.02 318.566 146.18C318.188 146.339 317.688 146.419 317.066 146.419C316.066 146.419 315.293 146.146 314.746 145.6C314.2 145.053 313.927 144.225 313.927 143.116C313.927 142.57 314.007 142.095 314.166 141.692C314.326 141.28 314.545 140.939 314.822 140.67C315.099 140.401 315.427 140.2 315.805 140.065C316.184 139.931 316.595 139.864 317.041 139.864ZM317.041 140.771C316.444 140.771 315.973 140.927 315.629 141.238C315.284 141.549 315.078 142.011 315.011 142.624H318.781V142.612C318.781 142.007 318.617 141.549 318.289 141.238C317.961 140.927 317.545 140.771 317.041 140.771ZM323.043 140.922H320.937V139.99H326.182V140.922H324.089V146.293H323.043V140.922ZM327.873 140.469C328.083 140.309 328.369 140.17 328.73 140.053C329.1 139.927 329.529 139.864 330.016 139.864C330.42 139.864 330.781 139.901 331.1 139.977C331.42 140.053 331.689 140.179 331.907 140.355C332.134 140.532 332.306 140.767 332.424 141.061C332.542 141.347 332.601 141.704 332.601 142.133V146.293H331.605V145.221C331.437 145.574 331.163 145.86 330.785 146.079C330.415 146.289 329.978 146.394 329.474 146.394C328.844 146.394 328.34 146.23 327.961 145.902C327.583 145.574 327.394 145.087 327.394 144.44C327.394 144.095 327.453 143.809 327.571 143.583C327.697 143.347 327.873 143.162 328.1 143.028C328.327 142.885 328.604 142.788 328.932 142.738C329.26 142.679 329.634 142.65 330.054 142.65H331.554V142.145C331.554 141.876 331.516 141.654 331.441 141.477C331.365 141.301 331.26 141.162 331.126 141.061C330.991 140.952 330.827 140.876 330.634 140.834C330.449 140.792 330.243 140.771 330.016 140.771C329.52 140.771 329.092 140.88 328.73 141.099C328.377 141.318 328.092 141.603 327.873 141.956V140.469ZM329.739 145.423C330.058 145.423 330.327 145.377 330.546 145.284C330.773 145.192 330.958 145.083 331.1 144.957C331.243 144.822 331.348 144.684 331.416 144.541C331.491 144.398 331.537 144.272 331.554 144.162V143.482H330.092C329.52 143.482 329.104 143.54 328.844 143.658C328.592 143.776 328.466 144.015 328.466 144.377C328.466 144.688 328.571 144.94 328.781 145.133C328.991 145.326 329.31 145.423 329.739 145.423ZM78.7896 154.237C78.8905 154.136 79.0333 154.036 79.2182 153.935C79.4031 153.825 79.6175 153.729 79.8612 153.645C80.1133 153.552 80.3949 153.481 80.7058 153.43C81.0168 153.372 81.353 153.342 81.7144 153.342C82.143 153.342 82.538 153.388 82.8994 153.481C83.2692 153.565 83.5886 153.695 83.8575 153.872C84.1265 154.048 84.3366 154.271 84.4879 154.54C84.6475 154.809 84.7274 155.132 84.7274 155.511C84.7274 156.015 84.6055 156.452 84.3618 156.822C84.1181 157.183 83.7399 157.456 83.2272 157.641C83.8743 157.75 84.3618 157.986 84.6896 158.347C85.0173 158.708 85.1812 159.188 85.1812 159.784C85.1812 160.146 85.1056 160.486 84.9543 160.805C84.8114 161.125 84.5971 161.406 84.3114 161.65C84.0256 161.885 83.6768 162.074 83.265 162.217C82.8616 162.352 82.3951 162.419 81.8657 162.419C81.4538 162.419 81.0714 162.381 80.7184 162.306C80.3655 162.238 80.0461 162.15 79.7603 162.041C79.4746 161.932 79.2266 161.81 79.0165 161.675C78.8064 161.541 78.6425 161.406 78.5249 161.272V159.633C78.6509 159.868 78.819 160.095 79.0291 160.314C79.2477 160.524 79.4998 160.713 79.7855 160.881C80.0713 161.041 80.3907 161.171 80.7437 161.272C81.105 161.364 81.5001 161.41 81.9287 161.41C82.2228 161.402 82.496 161.36 82.7481 161.284C83.0003 161.209 83.2146 161.1 83.3911 160.957C83.576 160.805 83.7188 160.625 83.8197 160.415C83.929 160.204 83.9836 159.965 83.9836 159.696C83.9836 159.217 83.8113 158.864 83.4667 158.637C83.1305 158.402 82.58 158.284 81.8152 158.284H80.4159V157.339H81.8026C82.1388 157.339 82.4161 157.296 82.6347 157.212C82.8616 157.128 83.0423 157.019 83.1768 156.885C83.3112 156.742 83.4037 156.578 83.4541 156.393C83.5129 156.208 83.5424 156.015 83.5424 155.813C83.5424 155.561 83.4877 155.347 83.3785 155.17C83.2776 154.985 83.1389 154.834 82.9624 154.716C82.7944 154.599 82.601 154.51 82.3825 154.452C82.164 154.393 81.9413 154.359 81.7144 154.351C81.3866 154.342 81.0714 154.389 80.7689 154.489C80.4663 154.582 80.189 154.708 79.9368 154.868C79.6847 155.019 79.462 155.195 79.2687 155.397C79.0754 155.599 78.9157 155.805 78.7896 156.015V154.237ZM87.3737 156.469C87.5838 156.309 87.8696 156.17 88.2309 156.053C88.6007 155.927 89.0294 155.864 89.5168 155.864C89.9202 155.864 90.2816 155.901 90.601 155.977C90.9204 156.053 91.1893 156.179 91.4078 156.355C91.6348 156.532 91.8071 156.767 91.9247 157.061C92.0424 157.347 92.1012 157.704 92.1012 158.133V162.293H91.1053V161.221C90.9372 161.574 90.664 161.86 90.2858 162.079C89.916 162.289 89.479 162.394 88.9747 162.394C88.3444 162.394 87.8401 162.23 87.4619 161.902C87.0837 161.574 86.8946 161.087 86.8946 160.44C86.8946 160.095 86.9535 159.809 87.0711 159.583C87.1972 159.347 87.3737 159.162 87.6006 159.028C87.8275 158.885 88.1049 158.788 88.4327 158.738C88.7604 158.679 89.1344 158.65 89.5547 158.65H91.0549V158.145C91.0549 157.876 91.017 157.654 90.9414 157.477C90.8658 157.301 90.7607 157.162 90.6262 157.061C90.4918 156.952 90.3279 156.876 90.1346 156.834C89.9497 156.792 89.7438 156.771 89.5168 156.771C89.021 156.771 88.5923 156.88 88.2309 157.099C87.878 157.318 87.5922 157.603 87.3737 157.956V156.469ZM89.2395 161.423C89.5589 161.423 89.8278 161.377 90.0463 161.284C90.2732 161.192 90.4581 161.083 90.601 160.957C90.7439 160.822 90.8489 160.684 90.9162 160.541C90.9918 160.398 91.038 160.272 91.0549 160.162V159.482H89.5925C89.021 159.482 88.6049 159.54 88.3444 159.658C88.0923 159.776 87.9662 160.015 87.9662 160.377C87.9662 160.688 88.0713 160.94 88.2814 161.133C88.4915 161.326 88.8109 161.423 89.2395 161.423ZM98.1586 160.024H96.5197L94.8052 162.293H93.595L95.3977 159.91C94.9859 159.793 94.6624 159.595 94.427 159.318C94.1917 159.032 94.074 158.662 94.074 158.208C94.074 157.805 94.1245 157.465 94.2253 157.187C94.3262 156.901 94.4859 156.67 94.7044 156.494C94.9313 156.317 95.2213 156.191 95.5742 156.116C95.9272 156.032 96.3517 155.99 96.8475 155.99H99.205V162.293H98.1586V160.024ZM96.8601 156.922C96.5576 156.922 96.297 156.944 96.0785 156.986C95.86 157.019 95.6793 157.086 95.5364 157.187C95.3935 157.28 95.2885 157.41 95.2213 157.578C95.154 157.738 95.1204 157.948 95.1204 158.208C95.1288 158.503 95.2381 158.742 95.4482 158.927C95.6583 159.112 96.0029 159.204 96.4819 159.204H98.1586V156.922H96.8601ZM101.489 155.99H104.3C105.098 155.99 105.653 156.116 105.964 156.368C106.283 156.612 106.443 156.96 106.443 157.414C106.443 157.818 106.346 158.145 106.153 158.397C105.968 158.641 105.703 158.805 105.359 158.889C105.561 158.914 105.745 158.956 105.914 159.015C106.09 159.074 106.237 159.162 106.355 159.28C106.481 159.398 106.577 159.549 106.645 159.734C106.72 159.919 106.758 160.15 106.758 160.427C106.758 161.058 106.556 161.528 106.153 161.839C105.75 162.142 105.115 162.293 104.249 162.293H101.489V155.99ZM104.237 161.385C104.758 161.385 105.132 161.31 105.359 161.158C105.594 160.999 105.712 160.759 105.712 160.44C105.712 160.062 105.598 159.809 105.371 159.683C105.144 159.549 104.829 159.482 104.426 159.482H102.535V161.385H104.237ZM104.086 158.587C104.481 158.587 104.796 158.519 105.031 158.385C105.266 158.25 105.384 158.007 105.384 157.654C105.384 157.343 105.283 157.141 105.081 157.049C104.88 156.948 104.577 156.897 104.174 156.897L102.535 156.91V158.587H104.086ZM108.603 162.293V155.99H109.649V160.679L113.204 155.99H114.124V162.293H113.078V157.565L109.649 162.142L109.535 162.293H108.603ZM117.818 156.922H115.713V155.99H120.957V156.922H118.864V162.293H117.818V156.922ZM125.182 155.864C126.056 155.864 126.737 156.124 127.225 156.645C127.72 157.166 127.968 157.897 127.968 158.839V159.519H123.14C123.19 160.2 123.392 160.705 123.745 161.032C124.098 161.352 124.586 161.511 125.207 161.511C125.813 161.511 126.308 161.406 126.695 161.196C127.082 160.986 127.359 160.73 127.527 160.427V161.65C127.367 161.843 127.094 162.02 126.708 162.18C126.329 162.339 125.829 162.419 125.207 162.419C124.207 162.419 123.434 162.146 122.888 161.6C122.342 161.053 122.068 160.225 122.068 159.116C122.068 158.57 122.148 158.095 122.308 157.692C122.468 157.28 122.686 156.939 122.963 156.67C123.241 156.401 123.569 156.2 123.947 156.065C124.325 155.931 124.737 155.864 125.182 155.864ZM125.182 156.771C124.586 156.771 124.115 156.927 123.77 157.238C123.426 157.549 123.22 158.011 123.153 158.624H126.922V158.612C126.922 158.007 126.758 157.549 126.43 157.238C126.103 156.927 125.686 156.771 125.182 156.771ZM133.759 156.922H131.313L131.301 157.402C131.275 158.183 131.229 158.851 131.162 159.406C131.095 159.952 131.011 160.41 130.91 160.78C130.809 161.15 130.695 161.44 130.569 161.65C130.443 161.86 130.309 162.02 130.166 162.129C130.023 162.23 129.876 162.293 129.725 162.318C129.573 162.352 129.422 162.369 129.271 162.369C129.078 162.369 128.91 162.348 128.767 162.306V161.184C128.876 161.209 128.981 161.221 129.082 161.221C129.191 161.221 129.292 161.213 129.384 161.196C129.485 161.171 129.578 161.112 129.662 161.02C129.754 160.927 129.834 160.793 129.901 160.616C129.977 160.431 130.044 160.179 130.103 159.86C130.162 159.532 130.208 159.124 130.242 158.637C130.284 158.15 130.317 157.557 130.342 156.859L130.368 155.99H134.805V162.293H133.759V156.922ZM140.966 160.024H139.327L137.612 162.293H136.402L138.205 159.91C137.793 159.793 137.47 159.595 137.234 159.318C136.999 159.032 136.881 158.662 136.881 158.208C136.881 157.805 136.932 157.465 137.032 157.187C137.133 156.901 137.293 156.67 137.512 156.494C137.738 156.317 138.028 156.191 138.381 156.116C138.734 156.032 139.159 155.99 139.655 155.99H142.012V162.293H140.966V160.024ZM139.667 156.922C139.365 156.922 139.104 156.944 138.886 156.986C138.667 157.019 138.486 157.086 138.344 157.187C138.201 157.28 138.096 157.41 138.028 157.578C137.961 157.738 137.928 157.948 137.928 158.208C137.936 158.503 138.045 158.742 138.255 158.927C138.465 159.112 138.81 159.204 139.289 159.204H140.966V156.922H139.667Z" fill="#0B0C0E"/>
<g clip-path="url(#clip0_2329_23364)">
<path d="M395.585 143.698C396.514 143.698 397.266 142.945 397.266 142.017C397.266 141.089 396.514 140.336 395.585 140.336C394.657 140.336 393.904 141.089 393.904 142.017C393.904 142.945 394.657 143.698 395.585 143.698Z" fill="#B8BEC6"/>
<path d="M395.585 150.42C396.514 150.42 397.266 149.668 397.266 148.739C397.266 147.811 396.514 147.059 395.585 147.059C394.657 147.059 393.904 147.811 393.904 148.739C393.904 149.668 394.657 150.42 395.585 150.42Z" fill="#B8BEC6"/>
<path d="M395.585 157.143C396.514 157.143 397.266 156.39 397.266 155.462C397.266 154.534 396.514 153.781 395.585 153.781C394.657 153.781 393.904 154.534 393.904 155.462C393.904 156.39 394.657 157.143 395.585 157.143Z" fill="#B8BEC6"/>
</g>
</g>
<g filter="url(#filter1_d_2329_23364)">
<rect x="241.812" y="164.711" width="189.942" height="40.3416" rx="5.88315" fill="white"/>
<g clip-path="url(#clip1_2329_23364)">
<rect width="13.4472" height="13.4472" transform="translate(255.26 178.156)" fill="white"/>
<path fill-rule="evenodd" clip-rule="evenodd" d="M261.983 178.457C262.216 178.457 262.429 178.589 262.531 178.798L264.278 182.336L268.184 182.907C268.414 182.941 268.605 183.102 268.677 183.323C268.749 183.545 268.689 183.788 268.522 183.95L265.696 186.702L266.363 190.591C266.403 190.82 266.308 191.052 266.12 191.188C265.932 191.325 265.682 191.343 265.476 191.235L261.983 189.398L258.49 191.235C258.285 191.343 258.035 191.325 257.847 191.188C257.658 191.052 257.564 190.82 257.604 190.591L258.27 186.702L255.445 183.95C255.278 183.788 255.218 183.545 255.29 183.323C255.361 183.102 255.552 182.941 255.783 182.907L259.689 182.336L261.435 178.798C261.538 178.589 261.751 178.457 261.983 178.457ZM261.983 180.449L260.643 183.165C260.554 183.345 260.382 183.47 260.183 183.499L257.184 183.938L259.354 186.051C259.498 186.191 259.564 186.394 259.53 186.592L259.018 189.576L261.699 188.166C261.877 188.073 262.09 188.073 262.268 188.166L264.949 189.576L264.437 186.592C264.403 186.394 264.469 186.191 264.613 186.051L266.783 183.938L263.784 183.499C263.585 183.47 263.413 183.345 263.324 183.165L261.983 180.449Z" fill="#B8BEC6"/>
</g>
<path d="M278.233 187.308C278.485 186.694 278.704 185.888 278.889 184.887C279.082 183.879 279.187 182.69 279.204 181.32L279.229 179.492H285.154V187.308H286.289V189.955H285.23V188.316H278.233V189.955H277.174V187.308H278.233ZM280.213 181.357C280.196 181.946 280.162 182.522 280.112 183.085C280.07 183.639 280.011 184.173 279.935 184.686C279.86 185.19 279.767 185.665 279.658 186.11C279.549 186.556 279.431 186.955 279.305 187.308H284.02V180.5H280.225L280.213 181.357ZM287.402 185.14C287.402 184.593 287.482 184.118 287.641 183.715C287.801 183.303 288.019 182.963 288.297 182.694C288.574 182.425 288.902 182.223 289.28 182.089C289.658 181.954 290.07 181.887 290.516 181.887C291.507 181.895 292.276 182.173 292.823 182.719C293.369 183.265 293.642 184.089 293.642 185.19C293.642 185.736 293.562 186.215 293.403 186.627C293.243 187.031 293.024 187.367 292.747 187.636C292.47 187.905 292.142 188.106 291.764 188.241C291.385 188.375 290.974 188.442 290.528 188.442C289.528 188.434 288.755 188.161 288.209 187.623C287.671 187.077 287.402 186.249 287.402 185.14ZM288.461 185.177C288.461 185.993 288.637 186.589 288.99 186.967C289.343 187.346 289.856 187.535 290.528 187.535C291.192 187.535 291.701 187.341 292.054 186.955C292.407 186.56 292.583 185.972 292.583 185.19V185.152C292.583 184.345 292.402 183.753 292.041 183.375C291.688 182.996 291.18 182.803 290.516 182.795C289.852 182.795 289.343 182.992 288.99 183.387C288.637 183.774 288.461 184.358 288.461 185.14V185.177ZM300.745 179.731C300.619 179.798 300.401 179.849 300.09 179.882C299.787 179.916 299.375 179.954 298.854 179.996C298.283 180.038 297.816 180.143 297.455 180.311C297.102 180.479 296.82 180.706 296.61 180.992C296.4 181.278 296.249 181.622 296.156 182.026C296.064 182.421 295.997 182.87 295.955 183.375C296.249 182.921 296.614 182.58 297.051 182.353C297.488 182.126 297.976 182.013 298.514 182.013C298.926 182.013 299.304 182.068 299.648 182.177C299.993 182.278 300.287 182.45 300.531 182.694C300.783 182.929 300.976 183.244 301.111 183.639C301.254 184.026 301.325 184.505 301.325 185.076C301.325 186.203 301.056 187.047 300.518 187.61C299.989 188.165 299.224 188.442 298.224 188.442C297.148 188.442 296.35 188.11 295.829 187.447C295.307 186.774 295.047 185.711 295.047 184.257C295.047 183.391 295.102 182.648 295.211 182.026C295.32 181.395 295.492 180.87 295.728 180.45C295.971 180.03 296.282 179.706 296.661 179.479C297.047 179.252 297.514 179.101 298.06 179.025C298.22 179 298.426 178.979 298.678 178.962C298.93 178.937 299.186 178.912 299.447 178.887C299.716 178.853 299.968 178.815 300.203 178.773C300.438 178.723 300.619 178.664 300.745 178.597V179.731ZM296.131 185.001C296.131 185.749 296.299 186.346 296.635 186.791C296.98 187.228 297.493 187.447 298.173 187.447C298.468 187.447 298.736 187.409 298.98 187.333C299.232 187.249 299.451 187.119 299.636 186.942C299.821 186.757 299.964 186.522 300.064 186.236C300.165 185.951 300.216 185.606 300.216 185.203C300.216 184.396 300.039 183.824 299.686 183.488C299.333 183.143 298.85 182.971 298.236 182.971C297.589 182.971 297.077 183.148 296.698 183.501C296.32 183.845 296.131 184.345 296.131 185.001ZM303.232 182.492C303.442 182.332 303.727 182.194 304.089 182.076C304.459 181.95 304.887 181.887 305.375 181.887C305.778 181.887 306.139 181.925 306.459 182C306.778 182.076 307.047 182.202 307.266 182.379C307.493 182.555 307.665 182.79 307.783 183.085C307.9 183.37 307.959 183.728 307.959 184.156V188.316H306.963V187.245C306.795 187.598 306.522 187.884 306.144 188.102C305.774 188.312 305.337 188.417 304.833 188.417C304.202 188.417 303.698 188.253 303.32 187.926C302.942 187.598 302.752 187.11 302.752 186.463C302.752 186.119 302.811 185.833 302.929 185.606C303.055 185.371 303.232 185.186 303.458 185.051C303.685 184.908 303.963 184.812 304.29 184.761C304.618 184.702 304.992 184.673 305.412 184.673H306.913V184.169C306.913 183.9 306.875 183.677 306.799 183.501C306.724 183.324 306.619 183.185 306.484 183.085C306.35 182.975 306.186 182.9 305.992 182.858C305.807 182.816 305.602 182.795 305.375 182.795C304.879 182.795 304.45 182.904 304.089 183.122C303.736 183.341 303.45 183.627 303.232 183.98V182.492ZM305.097 187.447C305.417 187.447 305.686 187.4 305.904 187.308C306.131 187.215 306.316 187.106 306.459 186.98C306.602 186.846 306.707 186.707 306.774 186.564C306.85 186.421 306.896 186.295 306.913 186.186V185.505H305.45C304.879 185.505 304.463 185.564 304.202 185.682C303.95 185.799 303.824 186.039 303.824 186.4C303.824 186.711 303.929 186.963 304.139 187.157C304.349 187.35 304.669 187.447 305.097 187.447ZM310.146 182.013H312.957C313.756 182.013 314.311 182.139 314.622 182.391C314.941 182.635 315.101 182.984 315.101 183.438C315.101 183.841 315.004 184.169 314.811 184.421C314.626 184.665 314.361 184.829 314.016 184.913C314.218 184.938 314.403 184.98 314.571 185.039C314.748 185.097 314.895 185.186 315.012 185.303C315.138 185.421 315.235 185.572 315.302 185.757C315.378 185.942 315.416 186.173 315.416 186.451C315.416 187.081 315.214 187.552 314.811 187.863C314.407 188.165 313.773 188.316 312.907 188.316H310.146V182.013ZM312.894 187.409C313.416 187.409 313.79 187.333 314.016 187.182C314.252 187.022 314.369 186.783 314.369 186.463C314.369 186.085 314.256 185.833 314.029 185.707C313.802 185.572 313.487 185.505 313.084 185.505H311.193V187.409H312.894ZM312.743 184.61C313.138 184.61 313.453 184.543 313.689 184.408C313.924 184.274 314.042 184.03 314.042 183.677C314.042 183.366 313.941 183.164 313.739 183.072C313.537 182.971 313.235 182.921 312.831 182.921L311.193 182.933V184.61H312.743ZM317.26 188.316V182.013H318.307V186.703L321.862 182.013H322.782V188.316H321.736V183.589L318.307 188.165L318.193 188.316H317.26ZM326.476 182.946H324.37V182.013H329.615V182.946H327.522V188.316H326.476V182.946ZM336.311 186.098C336.311 186.501 336.256 186.846 336.147 187.131C336.046 187.409 335.882 187.636 335.655 187.812C335.437 187.989 335.151 188.119 334.798 188.203C334.453 188.279 334.033 188.316 333.537 188.316H331.205V182.013H332.251V184.043H333.701C334.13 184.043 334.504 184.072 334.823 184.131C335.151 184.19 335.424 184.299 335.643 184.459C335.87 184.61 336.038 184.82 336.147 185.089C336.256 185.35 336.311 185.686 336.311 186.098ZM335.264 186.085C335.256 185.85 335.222 185.661 335.164 185.518C335.113 185.375 335.021 185.266 334.886 185.19C334.76 185.106 334.588 185.051 334.369 185.026C334.159 184.992 333.899 184.976 333.588 184.976H332.251V187.384H333.525C333.827 187.384 334.088 187.367 334.306 187.333C334.525 187.291 334.706 187.224 334.848 187.131C334.991 187.031 335.096 186.896 335.164 186.728C335.231 186.56 335.264 186.346 335.264 186.085ZM341.641 182.013H344.453C345.251 182.013 345.806 182.139 346.117 182.391C346.436 182.635 346.596 182.984 346.596 183.438C346.596 183.841 346.499 184.169 346.306 184.421C346.121 184.665 345.856 184.829 345.511 184.913C345.713 184.938 345.898 184.98 346.066 185.039C346.243 185.097 346.39 185.186 346.507 185.303C346.633 185.421 346.73 185.572 346.797 185.757C346.873 185.942 346.911 186.173 346.911 186.451C346.911 187.081 346.709 187.552 346.306 187.863C345.902 188.165 345.268 188.316 344.402 188.316H341.641V182.013ZM344.389 187.409C344.911 187.409 345.285 187.333 345.511 187.182C345.747 187.022 345.864 186.783 345.864 186.463C345.864 186.085 345.751 185.833 345.524 185.707C345.297 185.572 344.982 185.505 344.579 185.505H342.688V187.409H344.389ZM344.238 184.61C344.633 184.61 344.948 184.543 345.184 184.408C345.419 184.274 345.537 184.03 345.537 183.677C345.537 183.366 345.436 183.164 345.234 183.072C345.032 182.971 344.73 182.921 344.326 182.921L342.688 182.933V184.61H344.238ZM352.299 188.316V182.013H353.345V186.703L356.9 182.013H357.821V188.316H356.774V183.589L353.345 188.165L353.232 188.316H352.299ZM359.724 186.451C359.901 186.753 360.182 187.01 360.569 187.22C360.964 187.43 361.451 187.535 362.031 187.535C362.468 187.526 362.825 187.434 363.103 187.257C363.389 187.081 363.531 186.816 363.531 186.463C363.531 186.127 363.405 185.892 363.153 185.757C362.901 185.623 362.527 185.556 362.031 185.556H361.086V184.723H361.842C362.246 184.723 362.573 184.644 362.825 184.484C363.078 184.324 363.204 184.068 363.204 183.715C363.204 183.421 363.12 183.198 362.952 183.047C362.783 182.896 362.498 182.811 362.094 182.795C361.598 182.795 361.149 182.904 360.745 183.122C360.35 183.341 360.031 183.627 359.787 183.98V182.492C360.031 182.332 360.355 182.194 360.758 182.076C361.161 181.95 361.607 181.887 362.094 181.887H362.119C362.523 181.887 362.859 181.925 363.128 182C363.405 182.076 363.628 182.185 363.796 182.328C363.964 182.471 364.082 182.643 364.149 182.845C364.225 183.047 364.263 183.274 364.263 183.526C364.263 183.921 364.179 184.223 364.01 184.434C363.842 184.644 363.603 184.82 363.292 184.963C363.712 185.047 364.031 185.203 364.25 185.429C364.469 185.656 364.578 185.98 364.578 186.4C364.578 186.753 364.511 187.06 364.376 187.32C364.242 187.581 364.057 187.795 363.821 187.963C363.594 188.123 363.326 188.241 363.015 188.316C362.712 188.4 362.384 188.442 362.031 188.442C361.443 188.442 360.951 188.363 360.556 188.203C360.17 188.043 359.892 187.867 359.724 187.673V186.451ZM371.723 179.731C371.597 179.798 371.379 179.849 371.068 179.882C370.765 179.916 370.353 179.954 369.832 179.996C369.261 180.038 368.794 180.143 368.433 180.311C368.08 180.479 367.798 180.706 367.588 180.992C367.378 181.278 367.227 181.622 367.134 182.026C367.042 182.421 366.975 182.87 366.933 183.375C367.227 182.921 367.593 182.58 368.03 182.353C368.467 182.126 368.954 182.013 369.492 182.013C369.904 182.013 370.282 182.068 370.627 182.177C370.971 182.278 371.265 182.45 371.509 182.694C371.761 182.929 371.954 183.244 372.089 183.639C372.232 184.026 372.303 184.505 372.303 185.076C372.303 186.203 372.034 187.047 371.496 187.61C370.967 188.165 370.202 188.442 369.202 188.442C368.126 188.442 367.328 188.11 366.807 187.447C366.286 186.774 366.025 185.711 366.025 184.257C366.025 183.391 366.08 182.648 366.189 182.026C366.298 181.395 366.471 180.87 366.706 180.45C366.95 180.03 367.261 179.706 367.639 179.479C368.025 179.252 368.492 179.101 369.038 179.025C369.198 179 369.404 178.979 369.656 178.962C369.908 178.937 370.164 178.912 370.425 178.887C370.694 178.853 370.946 178.815 371.181 178.773C371.417 178.723 371.597 178.664 371.723 178.597V179.731ZM367.109 185.001C367.109 185.749 367.277 186.346 367.614 186.791C367.958 187.228 368.471 187.447 369.152 187.447C369.446 187.447 369.715 187.409 369.958 187.333C370.211 187.249 370.429 187.119 370.614 186.942C370.799 186.757 370.942 186.522 371.043 186.236C371.143 185.951 371.194 185.606 371.194 185.203C371.194 184.396 371.017 183.824 370.664 183.488C370.311 183.143 369.828 182.971 369.215 182.971C368.567 182.971 368.055 183.148 367.677 183.501C367.298 183.845 367.109 184.345 367.109 185.001ZM374.109 182.013H375.105V183.223C375.264 182.853 375.533 182.538 375.912 182.278C376.29 182.017 376.798 181.887 377.437 181.887C378.277 181.887 378.946 182.135 379.441 182.631C379.937 183.127 380.185 183.925 380.185 185.026C380.185 185.648 380.118 186.177 379.984 186.614C379.857 187.043 379.668 187.396 379.416 187.673C379.173 187.942 378.874 188.14 378.521 188.266C378.168 188.392 377.765 188.455 377.311 188.455C376.781 188.455 376.332 188.346 375.962 188.127C375.601 187.9 375.332 187.64 375.155 187.346V190.586H374.109V182.013ZM375.155 185.429C375.155 186.085 375.336 186.598 375.697 186.967C376.067 187.329 376.55 187.51 377.147 187.51C377.836 187.51 378.336 187.325 378.647 186.955C378.967 186.585 379.126 185.963 379.126 185.089C379.126 184.669 379.08 184.316 378.988 184.03C378.895 183.736 378.761 183.501 378.584 183.324C378.416 183.148 378.21 183.022 377.966 182.946C377.723 182.87 377.454 182.832 377.16 182.832C376.504 182.832 376.008 183.009 375.672 183.362C375.344 183.707 375.172 184.194 375.155 184.824V185.429ZM382.062 182.492C382.272 182.332 382.558 182.194 382.92 182.076C383.289 181.95 383.718 181.887 384.206 181.887C384.609 181.887 384.97 181.925 385.29 182C385.609 182.076 385.878 182.202 386.097 182.379C386.323 182.555 386.496 182.79 386.613 183.085C386.731 183.37 386.79 183.728 386.79 184.156V188.316H385.794V187.245C385.626 187.598 385.353 187.884 384.975 188.102C384.605 188.312 384.168 188.417 383.663 188.417C383.033 188.417 382.529 188.253 382.151 187.926C381.772 187.598 381.583 187.11 381.583 186.463C381.583 186.119 381.642 185.833 381.76 185.606C381.886 185.371 382.062 185.186 382.289 185.051C382.516 184.908 382.794 184.812 383.121 184.761C383.449 184.702 383.823 184.673 384.243 184.673H385.744V184.169C385.744 183.9 385.706 183.677 385.63 183.501C385.554 183.324 385.449 183.185 385.315 183.085C385.18 182.975 385.017 182.9 384.823 182.858C384.638 182.816 384.432 182.795 384.206 182.795C383.71 182.795 383.281 182.904 382.92 183.122C382.567 183.341 382.281 183.627 382.062 183.98V182.492ZM383.928 187.447C384.248 187.447 384.516 187.4 384.735 187.308C384.962 187.215 385.147 187.106 385.29 186.98C385.433 186.846 385.538 186.707 385.605 186.564C385.68 186.421 385.727 186.295 385.744 186.186V185.505H384.281C383.71 185.505 383.294 185.564 383.033 185.682C382.781 185.799 382.655 186.039 382.655 186.4C382.655 186.711 382.76 186.963 382.97 187.157C383.18 187.35 383.5 187.447 383.928 187.447ZM393.352 185.593H390.023V188.316H388.977V182.013H390.023V184.648H393.352V182.013H394.398V188.316H393.352V185.593ZM401.057 185.593H397.728V188.316H396.682V182.013H397.728V184.648H401.057V182.013H402.103V188.316H401.057V185.593ZM403.908 185.14C403.908 184.593 403.988 184.118 404.147 183.715C404.307 183.303 404.526 182.963 404.803 182.694C405.08 182.425 405.408 182.223 405.786 182.089C406.164 181.954 406.576 181.887 407.022 181.887C408.013 181.895 408.782 182.173 409.329 182.719C409.875 183.265 410.148 184.089 410.148 185.19C410.148 185.736 410.068 186.215 409.909 186.627C409.749 187.031 409.53 187.367 409.253 187.636C408.976 187.905 408.648 188.106 408.27 188.241C407.892 188.375 407.48 188.442 407.034 188.442C406.034 188.434 405.261 188.161 404.715 187.623C404.177 187.077 403.908 186.249 403.908 185.14ZM404.967 185.177C404.967 185.993 405.143 186.589 405.496 186.967C405.849 187.346 406.362 187.535 407.034 187.535C407.698 187.535 408.207 187.341 408.56 186.955C408.913 186.56 409.089 185.972 409.089 185.19V185.152C409.089 184.345 408.909 183.753 408.547 183.375C408.194 182.996 407.686 182.803 407.022 182.795C406.358 182.795 405.849 182.992 405.496 183.387C405.143 183.774 404.967 184.358 404.967 185.14V185.177ZM414.591 181.887C415.465 181.887 416.146 182.148 416.634 182.669C417.129 183.19 417.377 183.921 417.377 184.862V185.543H412.549C412.599 186.224 412.801 186.728 413.154 187.056C413.507 187.375 413.995 187.535 414.616 187.535C415.222 187.535 415.717 187.43 416.104 187.22C416.491 187.01 416.768 186.753 416.936 186.451V187.673C416.776 187.867 416.503 188.043 416.117 188.203C415.738 188.363 415.238 188.442 414.616 188.442C413.616 188.442 412.843 188.169 412.297 187.623C411.751 187.077 411.477 186.249 411.477 185.14C411.477 184.593 411.557 184.118 411.717 183.715C411.877 183.303 412.095 182.963 412.372 182.694C412.65 182.425 412.978 182.223 413.356 182.089C413.734 181.954 414.146 181.887 414.591 181.887ZM414.591 182.795C413.995 182.795 413.524 182.95 413.179 183.261C412.835 183.572 412.629 184.034 412.562 184.648H416.331V184.635C416.331 184.03 416.167 183.572 415.839 183.261C415.512 182.95 415.096 182.795 414.591 182.795Z" fill="#0B0C0E"/>
<rect x="242.312" y="165.211" width="188.942" height="39.3416" rx="5.38315" stroke="#CFCFCF"/>
</g>
<defs>
<filter id="filter0_d_2329_23364" x="0" y="0.3125" width="431.713" height="231.684" filterUnits="userSpaceOnUse" color-interpolation-filters="sRGB">
<feFlood flood-opacity="0" result="BackgroundImageFix"/>
<feColorMatrix in="SourceAlpha" type="matrix" values="0 0 0 0 0 0 0 0 0 0 0 0 0 0 0 0 0 0 127 0" result="hardAlpha"/>
<feOffset dx="-15" dy="17"/>
<feGaussianBlur stdDeviation="18"/>
<feColorMatrix type="matrix" values="0 0 0 0 0.384314 0 0 0 0 0.368627 0 0 0 0 0.964706 0 0 0 0.35 0"/>
<feBlend mode="normal" in2="BackgroundImageFix" result="effect1_dropShadow_2329_23364"/>
<feBlend mode="normal" in="SourceGraphic" in2="effect1_dropShadow_2329_23364" result="shape"/>
</filter>
<filter id="filter1_d_2329_23364" x="231.812" y="158.711" width="209.941" height="60.3398" filterUnits="userSpaceOnUse" color-interpolation-filters="sRGB">
<feFlood flood-opacity="0" result="BackgroundImageFix"/>
<feColorMatrix in="SourceAlpha" type="matrix" values="0 0 0 0 0 0 0 0 0 0 0 0 0 0 0 0 0 0 127 0" result="hardAlpha"/>
<feOffset dy="4"/>
<feGaussianBlur stdDeviation="5"/>
<feColorMatrix type="matrix" values="0 0 0 0 0.25625 0 0 0 0 0.567167 0 0 0 0 0.854167 0 0 0 0.12 0"/>
<feBlend mode="normal" in2="BackgroundImageFix" result="effect1_dropShadow_2329_23364"/>
<feBlend mode="normal" in="SourceGraphic" in2="effect1_dropShadow_2329_23364" result="shape"/>
</filter>
<clipPath id="clip0_2329_23364">
<rect width="26.8944" height="26.8944" fill="white" transform="translate(370.371 135.293)"/>
</clipPath>
<clipPath id="clip1_2329_23364">
<rect width="13.4472" height="13.4472" fill="white" transform="translate(255.26 178.156)"/>
</clipPath>
</defs>
</svg>
