<svg width="53" height="26" viewBox="0 0 53 26" fill="none" xmlns="http://www.w3.org/2000/svg">
<path fill-rule="evenodd" clip-rule="evenodd" d="M7.47549 3.8144L3.66994 18.0436L17.8991 21.8492L21.7047 7.61996L7.47549 3.8144ZM7.52145 0.721252C6.32355 0.400875 5.09274 1.11225 4.77236 2.31016L0.576789 17.9976C0.256413 19.1955 0.967791 20.4264 2.1657 20.7467L17.8532 24.9423C19.0511 25.2627 20.2819 24.5513 20.6023 23.3534L24.7978 7.66591C25.1182 6.46801 24.4068 5.2372 23.2089 4.91682L7.52145 0.721252Z" fill="#625EF6"/>
<path fill-rule="evenodd" clip-rule="evenodd" d="M33.607 4.54171L34.7785 19.2244L49.4611 18.0529L48.2897 3.37025L33.607 4.54171ZM32.6161 1.61124C31.38 1.70986 30.4579 2.79185 30.5565 4.02793L31.848 20.2153C31.9466 21.4514 33.0286 22.3735 34.2647 22.2749L50.4521 20.9834C51.6882 20.8847 52.6103 19.8028 52.5117 18.5667L51.2201 2.37928C51.1215 1.1432 50.0395 0.221107 48.8035 0.319728L32.6161 1.61124Z" fill="#625EF6"/>
</svg>
