<svg width="42" height="24" viewBox="0 0 42 24" fill="none" xmlns="http://www.w3.org/2000/svg">
<path d="M1.96511 12.55L0.502107 12.5849L0.571896 15.5108L2.03489 15.476L1.96511 12.55ZM39.3268 7.89865C39.6678 7.16587 39.3502 6.29543 38.6174 5.95445L26.6762 0.397877C25.9434 0.0568981 25.073 0.374509 24.732 1.10728C24.391 1.84005 24.7086 2.7105 25.4414 3.05148L36.0558 7.99066L31.1166 18.6051C30.7756 19.3378 31.0933 20.2083 31.826 20.5493C32.5588 20.8902 33.4293 20.5726 33.7702 19.8399L39.3268 7.89865ZM21.3171 12.2569L21.0326 10.8214L21.3171 12.2569ZM2 14.013C2.03489 15.476 2.03502 15.476 2.03519 15.4759C2.0353 15.4759 2.03552 15.4759 2.03575 15.4759C2.03622 15.4759 2.03686 15.4759 2.03769 15.4759C2.03934 15.4758 2.04171 15.4758 2.0448 15.4757C2.05096 15.4756 2.05997 15.4753 2.07176 15.475C2.09535 15.4744 2.13006 15.4735 2.1754 15.4723C2.26609 15.4698 2.3993 15.466 2.57105 15.4606C2.91453 15.4498 3.41228 15.4329 4.03232 15.4079C5.27202 15.3579 7.00255 15.2759 8.9676 15.1474C12.8797 14.8917 17.788 14.4481 21.6016 13.6924L21.0326 10.8214C17.4157 11.5382 12.6656 11.9726 8.77669 12.2268C6.84126 12.3533 5.13573 12.4342 3.91447 12.4834C3.30403 12.508 2.81508 12.5247 2.47948 12.5352C2.3117 12.5405 2.18228 12.5442 2.09521 12.5465C2.05168 12.5477 2.01874 12.5486 1.99689 12.5492C1.98596 12.5494 1.97781 12.5496 1.97249 12.5498C1.96983 12.5498 1.96788 12.5499 1.96665 12.5499C1.96603 12.5499 1.96559 12.5499 1.96534 12.55C1.96521 12.55 1.96515 12.55 1.96509 12.55C1.96507 12.55 1.96511 12.55 2 14.013ZM21.6016 13.6924C25.0243 13.014 29.2624 11.7478 32.6095 10.6659C34.2907 10.1225 35.7615 9.62078 36.8124 9.25484C37.338 9.07182 37.7589 8.92261 38.0491 8.81892C38.1942 8.76707 38.3066 8.7266 38.3831 8.69896C38.4214 8.68514 38.4507 8.67453 38.4705 8.66731C38.4805 8.6637 38.4881 8.66094 38.4933 8.65905C38.4959 8.6581 38.4979 8.65737 38.4993 8.65687C38.5 8.65661 38.5005 8.65641 38.5009 8.65627C38.5011 8.6562 38.5013 8.65613 38.5014 8.6561C38.5015 8.65604 38.5016 8.65601 38 7.28125C37.4984 5.90649 37.4984 5.90648 37.4984 5.90649C37.4983 5.90651 37.4983 5.90653 37.4982 5.90656C37.498 5.90664 37.4976 5.90678 37.4971 5.90697C37.496 5.90735 37.4944 5.90794 37.4922 5.90876C37.4877 5.91039 37.4808 5.91289 37.4716 5.91623C37.4532 5.92292 37.4254 5.93299 37.3887 5.94625C37.3152 5.97279 37.206 6.0121 37.0643 6.06275C36.7808 6.16405 36.3673 6.31063 35.8499 6.49081C34.8147 6.85129 33.3652 7.3457 31.7093 7.88095C28.3821 8.95642 24.2789 10.178 21.0326 10.8214L21.6016 13.6924Z" fill="#625EF6"/>
</svg>
