<svg width="29" height="30" viewBox="0 0 29 30" fill="none" xmlns="http://www.w3.org/2000/svg">
<g clip-path="url(#clip0_2329_23225)">
<path d="M22.9583 13.793H6.04167C4.70698 13.793 3.625 14.8749 3.625 16.2096V23.4596C3.625 24.7943 4.70698 25.8763 6.04167 25.8763H22.9583C24.293 25.8763 25.375 24.7943 25.375 23.4596V16.2096C25.375 14.8749 24.293 13.793 22.9583 13.793Z" stroke="#625EF6" stroke-width="3" stroke-linecap="round" stroke-linejoin="round"/>
<path d="M14.5007 8.95833C15.8353 8.95833 16.9173 7.87635 16.9173 6.54167C16.9173 5.20698 15.8353 4.125 14.5007 4.125C13.166 4.125 12.084 5.20698 12.084 6.54167C12.084 7.87635 13.166 8.95833 14.5007 8.95833Z" stroke="#625EF6" stroke-width="3" stroke-linecap="round" stroke-linejoin="round"/>
<path d="M9.66732 21.0417C10.3347 21.0417 10.8757 20.5007 10.8757 19.8333C10.8757 19.166 10.3347 18.625 9.66732 18.625C8.99997 18.625 8.45898 19.166 8.45898 19.8333C8.45898 20.5007 8.99997 21.0417 9.66732 21.0417Z" fill="#625EF6"/>
<path d="M19.3333 21.0417C20.0007 21.0417 20.5417 20.5007 20.5417 19.8333C20.5417 19.166 20.0007 18.625 19.3333 18.625C18.666 18.625 18.125 19.166 18.125 19.8333C18.125 20.5007 18.666 21.0417 19.3333 21.0417Z" fill="#625EF6"/>
<path d="M14.5 8.95703V13.7904" stroke="#625EF6" stroke-width="3" stroke-linecap="round" stroke-linejoin="round"/>
</g>
<defs>
<clipPath id="clip0_2329_23225">
<rect width="29" height="29" fill="white" transform="translate(0 0.5)"/>
</clipPath>
</defs>
</svg>
