<svg width="166" height="32" viewBox="0 0 166 32" fill="none" xmlns="http://www.w3.org/2000/svg">
<path d="M101.272 24.0014C101.034 24.3042 100.695 24.6071 100.255 24.91C99.8329 25.1939 99.3287 25.4589 98.742 25.705C98.1552 25.9321 97.4951 26.1214 96.7617 26.2729C96.0466 26.4243 95.2765 26.5 94.4514 26.5C92.8745 26.5 91.4443 26.2634 90.1608 25.7902C88.8773 25.3169 87.7772 24.645 86.8604 23.7742C85.9619 22.8846 85.256 21.8056 84.7426 20.5374C84.2475 19.2692 84 17.8306 84 16.2216C84 14.7262 84.2475 13.3539 84.7426 12.1046C85.2377 10.8553 85.9436 9.77632 86.8604 8.86773C87.7772 7.95914 88.8773 7.25877 90.1608 6.76662C91.4627 6.25554 92.9112 6 94.5064 6C96.0283 6 97.3301 6.19875 98.4119 6.59626C99.4937 6.97484 100.319 7.37235 100.887 7.78878V12.7292C100.594 12.2939 100.227 11.868 99.7871 11.4515C99.3654 11.0351 98.8795 10.666 98.3294 10.3442C97.7977 10.0224 97.2017 9.76685 96.5417 9.57756C95.8999 9.36934 95.2215 9.26524 94.5064 9.26524C93.4613 9.26524 92.517 9.4356 91.6735 9.77632C90.8301 10.117 90.115 10.5903 89.5282 11.196C88.9415 11.8017 88.4923 12.5399 88.1806 13.4107C87.8688 14.2625 87.713 15.2089 87.713 16.25C87.713 17.2154 87.8505 18.124 88.1255 18.9758C88.4189 19.8086 88.8406 20.5374 89.3907 21.1621C89.9591 21.7867 90.665 22.2883 91.5085 22.6669C92.3519 23.0265 93.3237 23.2158 94.4239 23.2348C95.2673 23.2348 96.0374 23.1401 96.7342 22.9508C97.4493 22.7615 98.091 22.506 98.6594 22.1842C99.2462 21.8624 99.7596 21.4838 100.2 21.0485C100.64 20.6131 100.997 20.1399 101.272 19.6288V24.0014Z" fill="#B8BEC6"/>
<path d="M104.233 16.2216C104.233 14.7262 104.471 13.3539 104.948 12.1046C105.443 10.8553 106.139 9.77632 107.038 8.86773C107.936 7.95914 109.018 7.25877 110.283 6.76662C111.549 6.25554 112.97 6 114.546 6C116.087 6 117.489 6.23661 118.754 6.70983C120.038 7.18306 121.129 7.8645 122.027 8.75416C122.926 9.62488 123.623 10.6944 124.118 11.9626C124.613 13.2308 124.86 14.6694 124.86 16.2784C124.86 17.7738 124.613 19.1461 124.118 20.3954C123.641 21.6447 122.953 22.7237 122.055 23.6323C121.156 24.5409 120.065 25.2507 118.782 25.7618C117.517 26.2539 116.105 26.5 114.546 26.5C113.006 26.5 111.594 26.2729 110.311 25.8186C109.046 25.3453 107.964 24.6734 107.065 23.8026C106.167 22.913 105.47 21.834 104.975 20.5658C104.48 19.2786 104.233 17.8306 104.233 16.2216ZM107.863 16.25C107.863 17.2154 108.001 18.124 108.276 18.9758C108.569 19.8276 109 20.5658 109.568 21.1904C110.137 21.8151 110.833 22.3167 111.659 22.6953C112.502 23.0549 113.474 23.2348 114.574 23.2348C115.601 23.2348 116.517 23.0644 117.324 22.7237C118.149 22.383 118.846 21.9097 119.415 21.304C120.001 20.6983 120.451 19.9695 120.762 19.1177C121.074 18.247 121.23 17.2911 121.23 16.25C121.23 15.2846 121.083 14.376 120.79 13.5242C120.515 12.6724 120.093 11.9342 119.525 11.3096C118.956 10.6849 118.25 10.1928 117.407 9.8331C116.582 9.45452 115.619 9.26524 114.519 9.26524C113.492 9.26524 112.566 9.4356 111.741 9.77632C110.916 10.117 110.21 10.5997 109.623 11.2244C109.055 11.8301 108.615 12.5589 108.303 13.4107C108.01 14.2625 107.863 15.2089 107.863 16.25Z" fill="#B8BEC6"/>
<path d="M141.958 12.7008C141.683 12.2655 141.325 11.8396 140.885 11.4231C140.464 11.0067 139.978 10.6376 139.428 10.3158C138.896 9.994 138.309 9.73846 137.667 9.54917C137.044 9.35988 136.375 9.26524 135.66 9.26524C134.303 9.28416 133.322 9.49238 132.717 9.88989C132.13 10.2874 131.837 10.8269 131.837 11.5083C131.837 12.0194 131.993 12.4358 132.304 12.7576C132.634 13.0794 133.056 13.3444 133.569 13.5526C134.083 13.7608 134.67 13.9501 135.33 14.1205C135.99 14.2719 136.668 14.4423 137.365 14.6316C138.062 14.8209 138.74 15.0575 139.4 15.3414C140.06 15.6064 140.647 15.9566 141.16 16.392C141.674 16.8273 142.086 17.3763 142.398 18.0388C142.728 18.7013 142.893 19.5152 142.893 20.4806C142.893 21.3135 142.746 22.099 142.453 22.8373C142.16 23.5755 141.701 24.2191 141.078 24.768C140.455 25.298 139.666 25.7239 138.713 26.0457C137.777 26.3486 136.668 26.5 135.385 26.5C134.541 26.5 133.744 26.4243 132.992 26.2729C132.258 26.1214 131.589 25.9321 130.984 25.705C130.379 25.4589 129.847 25.1939 129.389 24.91C128.949 24.6071 128.6 24.3042 128.344 24.0014V19.6288C128.637 20.1399 129.013 20.6131 129.471 21.0485C129.93 21.4838 130.452 21.8624 131.039 22.1842C131.644 22.506 132.313 22.7615 133.047 22.9508C133.78 23.1401 134.569 23.2348 135.412 23.2348C136.769 23.2348 137.768 23.0076 138.41 22.5533C139.052 22.099 139.373 21.4649 139.373 20.651C139.373 19.9506 139.098 19.4301 138.548 19.0893C138.016 18.7297 137.337 18.4363 136.512 18.2091C135.687 17.982 134.798 17.7548 133.844 17.5277C132.909 17.3006 132.029 16.9693 131.204 16.5339C130.379 16.0986 129.691 15.5023 129.141 14.7452C128.61 13.9691 128.344 12.9185 128.344 11.5935C128.344 9.81417 128.985 8.44183 130.269 7.47645C131.552 6.49215 133.349 6 135.66 6C137.145 6.01893 138.428 6.21768 139.51 6.59626C140.592 6.95591 141.408 7.35342 141.958 7.78878V12.7008Z" fill="#B8BEC6"/>
<path d="M163 9.57756H156.509V26.1877H153.071V9.57756H146.69V6.31233H163V9.57756Z" fill="#B8BEC6"/>
<path d="M11.5943 10.4211C11.0488 10.0914 10.4468 9.82964 9.78845 9.63573C9.14886 9.44183 8.46225 9.34488 7.7286 9.34488C6.33656 9.36427 5.33014 9.57756 4.70936 9.98477C4.1074 10.392 3.80642 10.9446 3.80642 11.6427C3.80642 12.1662 3.96631 12.5928 4.28611 12.9224C4.62471 13.2521 5.05738 13.5235 5.5841 13.7368C6.11082 13.9501 6.71278 14.144 7.38999 14.3186C8.06721 14.4737 8.76323 14.6482 9.47806 14.8421C10.1929 15.036 10.8889 15.2784 11.5661 15.5693C12.2433 15.8407 12.8453 16.1994 13.372 16.6454C13.8987 17.0914 14.322 17.6537 14.6418 18.3324C14.9804 19.0111 15.1497 19.8449 15.1497 20.8338C15.1497 21.687 14.9992 22.4917 14.6982 23.2479C14.3973 24.0042 13.927 24.6634 13.2874 25.2258C12.6478 25.7687 11.8389 26.205 10.8607 26.5346C9.90132 26.8449 8.76323 27 7.44643 27C6.5811 27 5.7628 26.9224 4.99154 26.7673C4.23908 26.6122 3.55246 26.4183 2.93168 26.1856C2.31091 25.9335 1.76538 25.6621 1.29509 25.3712C0.843616 25.0609 0.26336 24.5249 0 24.2146C1.19595 21.8724 1.19595 21.8724 1.37974 21.4155C1.85003 21.8615 2.38615 22.2493 2.98812 22.5789C3.6089 22.9086 4.29551 23.1704 5.04797 23.3643C5.80043 23.5582 6.60932 23.6551 7.47464 23.6551C8.86669 23.6551 9.89191 23.4224 10.5503 22.9571C11.2087 22.4917 11.5379 21.8421 11.5379 21.0083C11.5379 20.2909 11.2557 19.7576 10.6914 19.4086C10.1459 19.0402 9.44985 18.7396 8.60333 18.5069C7.75682 18.2742 6.84446 18.0416 5.86627 17.8089C4.90689 17.5762 4.00394 17.2368 3.15742 16.7909C2.31091 16.3449 1.60548 15.7341 1.04114 14.9584C0.495605 14.1634 0.222839 13.0873 0.222839 11.7299C0.222839 9.9072 0.881239 8.50138 2.19804 7.51247C3.51484 6.50416 5.35836 6 7.7286 6C9.25233 6.01939 10.5691 6.22299 11.679 6.6108C12.7889 6.97922 13.9066 7.61939 14.471 8.06537C12.3183 9.79125 12.1987 9.91452 11.5943 10.4211Z" fill="#625EF6"/>
<path d="M20.3716 26.6801V6.31994H28.9496C33.3891 6.31994 35.6089 8.00693 35.6089 11.3809C35.6089 12.5443 35.3737 13.5139 34.9034 14.2895C34.4331 15.0651 33.6901 15.6565 32.6743 16.0637C33.897 16.277 34.7906 16.7812 35.3549 17.5762C35.9192 18.3518 36.2014 19.4086 36.2014 20.7465C36.2014 21.7936 36.0227 22.6953 35.6653 23.4515C35.3079 24.2078 34.7906 24.8283 34.1133 25.313C33.4549 25.7784 32.6461 26.1274 31.6867 26.3601C30.7461 26.5734 29.6739 26.6801 28.4699 26.6801H20.3716ZM28.6957 23.3352C30.0501 23.3352 31.0471 23.1122 31.6867 22.6662C32.3263 22.2008 32.6461 21.4737 32.6461 20.4848C32.6461 19.4958 32.3074 18.7978 31.6302 18.3906C30.953 17.9834 29.9936 17.7798 28.7521 17.7798H23.8987V23.3352H28.6957ZM28.4417 14.9294C29.5704 14.9294 30.4545 14.687 31.0941 14.2022C31.7525 13.7175 32.0817 13.0388 32.0817 12.1662C32.0817 11.3518 31.7995 10.7313 31.2352 10.3047C30.6897 9.87812 29.7867 9.66482 28.5264 9.66482H23.8987V14.9294H28.4417Z" fill="#625EF6"/>
<path d="M53.914 17.867H44.8281V23.3352H55.2684V26.6801H41.301V6.31994H54.9581L50.8278 9.66482H44.8281V14.5222H53.914V17.867Z" fill="#625EF6"/>
<path d="M68.5349 20.2521C67.9705 20.3103 67.3874 20.3393 66.7854 20.3393H64.0765V26.6801H60.5494V6.31994H66.7854C69.9081 6.31994 72.1655 6.90166 73.5575 8.0651C74.9684 9.20914 75.6738 10.9252 75.6738 13.2133C75.6738 16.2382 74.4322 18.313 71.9491 19.4377L77 26.6801H72.7674L68.5349 20.2521ZM64.0765 9.66482V16.9945H67.0393C68.6947 16.9945 69.9363 16.7036 70.764 16.1219C71.5917 15.5208 72.0056 14.5222 72.0056 13.126C72.0056 11.8657 71.6199 10.9737 70.8487 10.4501C70.0774 9.92659 68.8264 9.66482 67.0958 9.66482H64.0765Z" fill="#625EF6"/>
</svg>
