<svg width="801" height="623" viewBox="0 0 801 623" fill="none" xmlns="http://www.w3.org/2000/svg">
<g clip-path="url(#clip0)">
<g opacity="0.6">
<path opacity="0.6" d="M143.861 529.777L140.939 526.31C108.252 471.043 97.1364 405.648 109.727 342.688C122.317 279.727 157.726 223.64 209.152 185.198C218.086 179.036 227.458 173.533 237.193 168.733C243.993 165.371 251.027 162.504 258.24 160.154C316.809 141.632 345.237 179.289 301.135 240.106C270.828 281.87 238.11 300.412 197.053 342.903C180.86 359.74 165.8 377.631 151.971 396.459C114.34 447.342 137.06 513.2 143.861 529.777Z" fill="url(#paint0_linear)"/>
</g>
<g opacity="0.6">
<path opacity="0.6" d="M143.862 529.778L140.94 526.312C113.809 480.485 101.391 427.438 105.361 374.333C109.331 321.227 129.498 270.619 163.14 229.339C168.519 222.98 174.268 216.765 180.294 210.731C197.249 194.154 216.39 179.972 237.184 168.577C243.981 165.243 251.02 162.428 258.241 160.156C238.54 173.53 190.742 211.959 191.329 269.811C191.42 294.337 193.26 318.825 196.835 343.089C205.363 399.638 220.349 433.449 220.417 484.192C220.746 555.905 179.426 571.621 143.862 529.778Z" fill="url(#paint1_linear)"/>
</g>
<g opacity="0.6">
<path opacity="0.6" d="M412.039 126.167C413.499 125.931 415 125.744 416.546 125.561C480.753 126.934 542.195 151.961 589.09 195.842C635.985 239.724 665.033 299.371 670.662 363.347C671.186 374.189 670.922 385.055 669.874 395.859C669.145 403.319 667.869 410.716 666.055 417.989C650.954 477.496 603.866 481.944 575.502 412.343C555.947 364.552 557.436 326.969 542.879 269.614C537.114 246.975 529.843 224.745 521.117 203.073C497.688 144.49 429.715 129.18 412.039 126.167Z" fill="url(#paint2_linear)"/>
</g>
<g opacity="0.6">
<path opacity="0.6" d="M412.038 126.167C413.498 125.931 414.999 125.744 416.545 125.561C469.797 126.633 521.438 144.027 564.49 175.391C607.542 206.755 639.93 250.578 657.277 300.939C659.918 308.952 662.146 317.095 663.953 325.336C669.119 348.479 671.095 372.221 669.825 395.9C669.096 403.36 667.819 410.757 666.006 418.03C664.993 394.251 657.532 333.361 608.043 303.382C587.129 290.613 565.337 279.343 542.83 269.655C490.298 247.134 453.584 242.048 410.426 215.399C349.373 177.752 357.677 134.382 412.038 126.167Z" fill="url(#paint3_linear)"/>
</g>
<g opacity="0.6">
<path opacity="0.6" d="M231.53 633.77L234.432 637.212C283.391 678.761 345.972 700.76 410.157 698.987C474.343 697.214 535.61 671.793 582.194 627.605C589.784 619.843 596.787 611.528 603.145 602.728C607.543 596.662 611.493 590.284 614.962 583.643C643.122 529.05 610.787 494.728 543.388 527.909C497.079 550.693 473.291 579.828 424.448 613.084C405.132 626.222 384.95 638.041 364.04 648.458C307.785 676.807 246.8 643.373 231.53 633.77Z" fill="url(#paint4_linear)"/>
</g>
<g opacity="0.6">
<path opacity="0.6" d="M231.532 633.771L234.434 637.214C274.996 671.737 325.181 692.969 378.202 698.038C431.222 703.107 484.519 691.769 530.883 665.556C538.081 661.355 545.158 656.715 552.125 651.797C571.324 637.88 588.533 621.406 603.273 602.83C607.671 596.765 611.621 590.386 615.09 583.745C598.556 600.876 552.618 641.511 495.698 631.149C471.559 626.828 447.757 620.8 424.47 613.11C370.199 595.165 339.347 574.604 289.388 566.005C218.785 553.576 196.245 591.57 231.532 633.771Z" fill="url(#paint5_linear)"/>
</g>
</g>
<defs>
<linearGradient id="paint0_linear" x1="137.168" y1="251.982" x2="279.062" y2="398.219" gradientUnits="userSpaceOnUse">
<stop stop-color="#00DAB5"/>
<stop offset="0.75" stop-color="#25E05E"/>
<stop offset="1" stop-color="#31E242"/>
</linearGradient>
<linearGradient id="paint1_linear" x1="-22072.5" y1="-8254.07" x2="-8085.24" y2="8337.66" gradientUnits="userSpaceOnUse">
<stop stop-color="#00DAB5"/>
<stop offset="0.75" stop-color="#25E05E"/>
<stop offset="1" stop-color="#31E242"/>
</linearGradient>
<linearGradient id="paint2_linear" x1="-44656.9" y1="385926" x2="-69874.3" y2="391656" gradientUnits="userSpaceOnUse">
<stop stop-color="#00DAB5"/>
<stop offset="0.75" stop-color="#25E05E"/>
<stop offset="1" stop-color="#31E242"/>
</linearGradient>
<linearGradient id="paint3_linear" x1="-43749.4" y1="383557" x2="-74954" y2="390647" gradientUnits="userSpaceOnUse">
<stop stop-color="#00DAB5"/>
<stop offset="0.75" stop-color="#25E05E"/>
<stop offset="1" stop-color="#31E242"/>
</linearGradient>
<linearGradient id="paint4_linear" x1="183426" y1="176472" x2="175035" y2="164979" gradientUnits="userSpaceOnUse">
<stop stop-color="#00DAB5"/>
<stop offset="0.75" stop-color="#25E05E"/>
<stop offset="1" stop-color="#31E242"/>
</linearGradient>
<linearGradient id="paint5_linear" x1="210877" y1="225319" x2="198083" y2="207794" gradientUnits="userSpaceOnUse">
<stop stop-color="#00DAB5"/>
<stop offset="0.75" stop-color="#25E05E"/>
<stop offset="1" stop-color="#31E242"/>
</linearGradient>
<clipPath id="clip0">
<rect width="579.613" height="557.537" fill="white" transform="translate(427.165 0.827759) rotate(49.8683)"/>
</clipPath>
</defs>
</svg>
