<svg width="28" height="32" viewBox="0 0 28 32" fill="none" xmlns="http://www.w3.org/2000/svg">
<path fill-rule="evenodd" clip-rule="evenodd" d="M23.25 11.625C22.75 14.125 22.7187 16.2292 23.1562 17.9375C23.5938 19.6458 24.1667 21.0521 24.875 22.1562C25.5833 23.2604 26.2812 24.1042 26.9688 24.6875C27.6563 25.2708 28 25.7083 28 26C28 26.5833 27.8125 27.0625 27.4375 27.4375C27.0625 27.8125 26.5833 28 26 28H18C18 29.0833 17.6042 30.0208 16.8125 30.8125C16.0208 31.6042 15.0833 32 14 32C12.9167 32 11.9792 31.6042 11.1875 30.8125C10.3958 30.0208 10 29.0833 10 28H2C1.41666 28 0.937502 27.8125 0.5625 27.4375C0.187498 27.0625 0 26.5833 0 26C0 25.7083 0.312497 25.2708 0.9375 24.6875C1.5625 24.1042 2.20833 23.2604 2.875 22.1562C3.54167 21.0521 4.07291 19.6458 4.46875 17.9375C4.86459 16.2292 4.83334 14.125 4.375 11.625C4.16667 10.4167 4.21875 9.28126 4.53125 8.21875C4.84375 7.15624 5.36458 6.21875 6.09375 5.40625C6.82292 4.59375 7.69791 3.90625 8.71875 3.34375C9.73959 2.78125 10.8542 2.39583 12.0625 2.1875C12.0625 2.14583 12.0521 2.11458 12.0312 2.09375C12.0104 2.07292 12 2.04167 12 2C12 1.41666 12.1875 0.937502 12.5625 0.5625C12.9375 0.187498 13.4167 0 14 0C14.5833 0 15.0625 0.187498 15.4375 0.5625C15.8125 0.937502 16 1.41666 16 2C16 2.08333 15.9792 2.14583 15.9375 2.1875C17.0208 2.39583 18.0625 2.77083 19.0625 3.3125C20.0625 3.85417 20.9167 4.54166 21.625 5.375C22.3333 6.20834 22.8437 7.15624 23.1562 8.21875C23.4688 9.28126 23.5 10.4167 23.25 11.625ZM25.5 26C25.0833 25.5417 24.5521 24.9063 23.9062 24.0938C23.2604 23.2812 22.6771 22.2708 22.1562 21.0625C21.6354 19.8542 21.2604 18.4375 21.0312 16.8125C20.8021 15.1875 20.8958 13.3333 21.3125 11.25C21.5208 10.2083 21.4688 9.29167 21.1562 8.5C20.8437 7.70833 20.5 7.08334 20.125 6.625C19.3333 5.66666 18.4583 4.98959 17.5 4.59375C16.5417 4.19791 15.375 4 14 4C12.6667 4 11.4688 4.19791 10.4062 4.59375C9.34374 4.98959 8.41667 5.66666 7.625 6.625C7.20833 7.08334 6.83333 7.70833 6.5 8.5C6.16667 9.29167 6.10417 10.2083 6.3125 11.25C6.6875 13.3333 6.78125 15.1875 6.59375 16.8125C6.40625 18.4375 6.07292 19.8542 5.59375 21.0625C5.11458 22.2708 4.57292 23.2812 3.96875 24.0938C3.36458 24.9063 2.85417 25.5417 2.4375 26H25.5Z" fill="#69BDA0"/>
</svg>
