<svg width="28" height="28" viewBox="0 0 28 28" fill="none" xmlns="http://www.w3.org/2000/svg">
<path fill-rule="evenodd" clip-rule="evenodd" d="M21 15.75C21.9844 15.75 22.8958 15.9323 23.7344 16.2969C24.5729 16.6615 25.3112 17.1628 25.9492 17.8008C26.5872 18.4388 27.0885 19.1862 27.4531 20.043C27.8177 20.8997 28 21.8021 28 22.75V26.25H10.5V22.75C10.5 21.8021 10.6823 20.8997 11.0469 20.043C11.4115 19.1862 11.9128 18.4388 12.5508 17.8008C13.1888 17.1628 13.9362 16.6615 14.793 16.2969C15.6497 15.9323 16.5521 15.75 17.5 15.75H21ZM26.25 22.75C26.25 21.2917 25.7396 20.0521 24.7188 19.0312C23.6979 18.0104 22.4583 17.5 21 17.5H17.5C16.0417 17.5 14.8021 18.0104 13.7812 19.0312C12.7604 20.0521 12.25 21.2917 12.25 22.75V24.5H26.25V22.75ZM24.5 10.5C24.5 11.9583 23.9896 13.1979 22.9688 14.2188C21.9479 15.2396 20.7083 15.75 19.25 15.75C17.7917 15.75 16.5521 15.2396 15.5312 14.2188C14.5104 13.1979 14 11.9583 14 10.5C14 9.04166 14.5104 7.80209 15.5312 6.78125C16.5521 5.76041 17.7917 5.25 19.25 5.25C20.7083 5.25 21.9479 5.76041 22.9688 6.78125C23.9896 7.80209 24.5 9.04166 24.5 10.5ZM19.25 14C20.2344 14 21.0638 13.6536 21.7383 12.9609C22.4128 12.2682 22.75 11.4479 22.75 10.5C22.75 9.55208 22.4128 8.73177 21.7383 8.03906C21.0638 7.34635 20.2344 7 19.25 7C18.3021 7 17.4818 7.34635 16.7891 8.03906C16.0964 8.73177 15.75 9.55208 15.75 10.5C15.75 11.4479 16.0964 12.2682 16.7891 12.9609C17.4818 13.6536 18.3021 14 19.25 14ZM7.16406 16.6797V15.4766C6.32552 15.3672 5.63282 15.0755 5.08594 14.6016C4.61198 14.1641 4.28385 13.4531 4.10156 12.4688L5.96094 12.25C6.03385 12.724 6.16146 13.0521 6.34375 13.2344C6.5625 13.4531 6.83594 13.6354 7.16406 13.7812V10.9375C6.10677 10.6094 5.39584 10.2083 5.03125 9.73438C4.63021 9.22396 4.42969 8.58594 4.42969 7.82031C4.42969 7.05468 4.66666 6.41667 5.14062 5.90625C5.54167 5.39583 6.21614 5.08594 7.16406 4.97656V3.55469H8.25781L8.20312 4.97656C9.11459 5.15885 9.77083 5.41406 10.1719 5.74219C10.5729 6.17969 10.8646 6.74479 11.0469 7.4375L9.24219 7.65625C9.13281 7.14583 8.78646 6.76302 8.20312 6.50781V9.29688C9.51563 9.625 10.3359 10.0078 10.6641 10.4453C11.1016 10.9557 11.3203 11.5573 11.3203 12.25C11.3203 13.0521 11.0651 13.763 10.5547 14.3828C10.0807 14.9297 9.29688 15.2943 8.20312 15.4766V16.6797H7.16406ZM8.20312 13.8906C8.75 13.7812 9.11458 13.6172 9.29688 13.3984C9.47917 13.1432 9.57031 12.8516 9.57031 12.5234C9.57031 12.3411 9.55208 12.1953 9.51562 12.0859C9.47917 11.9766 9.42448 11.8672 9.35156 11.7578C9.16927 11.5026 8.78646 11.3203 8.20312 11.2109V13.8906ZM6.34375 8.42188C6.41667 8.49479 6.51693 8.57682 6.64453 8.66797C6.77214 8.75912 6.94531 8.84115 7.16406 8.91406V6.50781C6.76302 6.6901 6.50781 6.85417 6.39844 7C6.21615 7.21875 6.13411 7.46484 6.15234 7.73828C6.17057 8.01172 6.23437 8.23958 6.34375 8.42188ZM8.75 28H1.75C1.27604 28 0.865887 27.8359 0.519531 27.5078C0.173175 27.1797 0 26.7604 0 26.25V1.75C0 1.23958 0.173175 0.820314 0.519531 0.492188C0.865887 0.164061 1.27604 0 1.75 0H17.5C18.0104 0 18.4297 0.164061 18.7578 0.492188C19.0859 0.820314 19.25 1.23958 19.25 1.75V3.5H17.5V1.75H1.75V26.25H8.75V28ZM7.82031 19.25C8.40365 19.25 8.69531 19.5417 8.69531 20.125C8.69531 20.3438 8.61328 20.5443 8.44922 20.7266C8.28516 20.9089 8.07552 21 7.82031 21H4.375C4.15625 21 3.95573 20.9089 3.77344 20.7266C3.59115 20.5443 3.5 20.3438 3.5 20.125C3.5 19.8698 3.59115 19.6602 3.77344 19.4961C3.95573 19.332 4.15625 19.25 4.375 19.25H7.82031ZM7.82031 22.75C8.40365 22.75 8.69531 23.0417 8.69531 23.625C8.69531 23.8438 8.61328 24.0443 8.44922 24.2266C8.28516 24.4089 8.07552 24.5 7.82031 24.5H4.375C4.15625 24.5 3.95573 24.4089 3.77344 24.2266C3.59115 24.0443 3.5 23.8438 3.5 23.625C3.5 23.3698 3.59115 23.1602 3.77344 22.9961C3.95573 22.832 4.15625 22.75 4.375 22.75H7.82031Z" fill="#69BDA0"/>
</svg>
