<svg width="32" height="32" viewBox="0 0 32 32" fill="none" xmlns="http://www.w3.org/2000/svg">
<path fill-rule="evenodd" clip-rule="evenodd" d="M21.1665 16.896C19.4841 16.896 18.0587 16.3113 16.8887 15.1413C15.7193 13.9719 15.1345 12.5459 15.1345 10.8635C15.1345 9.18109 15.7193 7.76533 16.8887 6.61624C18.0582 5.46715 19.4841 4.89309 21.1665 4.89309C22.849 4.89309 24.2749 5.46764 25.4444 6.61624C26.6143 7.76533 27.199 9.18109 27.199 10.8635C27.199 12.5459 26.6143 13.9719 25.4444 15.1413C24.2749 16.3113 22.849 16.896 21.1665 16.896ZM21.1665 6.86255C20.0174 6.86255 19.0536 7.25236 18.2734 8.032C17.4938 8.81164 17.104 9.75564 17.104 10.8635C17.104 12.0126 17.4938 12.977 18.2734 13.7566C19.0536 14.5362 20.0174 14.9261 21.1665 14.9261C22.2744 14.9261 23.2286 14.5362 24.0291 13.7566C24.8291 12.977 25.2291 12.0126 25.2291 10.8635C25.2291 9.75564 24.8291 8.81164 24.0291 8.032C23.2291 7.25236 22.2744 6.86255 21.1665 6.86255ZM21.7823 3.96994C21.6179 3.92873 21.4128 3.90836 21.1665 3.90836C20.8795 3.90836 20.6744 3.92873 20.5508 3.96994V0.0300598H21.7823V3.96994ZM25.6601 16.2187C25.824 16.0955 25.968 15.9622 26.0911 15.8187C26.2138 15.6752 26.337 15.521 26.4601 15.3571L29.23 18.127L28.3685 18.9886L25.6601 16.2187ZM26.4601 6.432C26.3422 6.27402 26.2191 6.11992 26.0911 5.96994C25.9624 5.82123 25.8177 5.68709 25.6596 5.56994L28.3685 2.8L29.23 3.66206L26.4601 6.432ZM20.5513 17.8192C20.6332 17.8192 20.7258 17.8293 20.8281 17.8497C20.9309 17.8705 21.0434 17.8807 21.1665 17.8807C21.249 17.8807 21.3411 17.8705 21.4439 17.8497C21.5462 17.8293 21.6591 17.8192 21.7823 17.8192V21.697H20.5508V17.8192H20.5513ZM14.1498 10.8635C14.1498 10.9867 14.1595 11.0996 14.1804 11.2019C14.2007 11.3047 14.2114 11.3973 14.2114 11.4793H10.3336V10.3098H14.2114C14.2114 10.3918 14.2007 10.4844 14.1804 10.5867C14.1612 10.6777 14.1509 10.7705 14.1498 10.8635ZM13.0414 18.1265L15.8114 15.3571C16.0577 15.6853 16.3447 15.9728 16.6734 16.2187L13.9035 18.9886L13.0414 18.127V18.1265ZM32 10.3103V11.4798H28.0606C28.1018 11.3566 28.1222 11.1515 28.1222 10.864C28.1222 10.6177 28.1018 10.4335 28.0606 10.3103H32ZM16.6734 5.57042C16.3465 5.81524 16.0562 6.10553 15.8114 6.43248L13.0414 3.66254L13.9035 2.80048L16.6734 5.57042ZM18.2119 25.6369C19.4434 25.6369 20.5304 25.7804 21.4744 26.0679C22.3976 26.3455 23.278 26.7493 24.0907 27.2679C24.908 27.795 25.6617 28.4147 26.337 29.1147C27.0892 29.8942 27.8081 30.7053 28.4916 31.5457H26.6448C26.1115 31.5457 25.6601 31.3615 25.2907 30.992C24.224 29.9661 23.2082 29.1452 22.2439 28.5299C21.2795 27.9142 19.936 27.6068 18.2119 27.6068H7.44047L4.30059 31.5447H2.82374L6.57841 26.9901L0.731139 19.8497C0.526048 19.6446 0.433442 19.4085 0.45429 19.1418C0.474654 18.8752 0.587623 18.6395 0.792714 18.4339C0.997805 18.2288 1.23393 18.1469 1.50059 18.1881C1.76726 18.2288 2.00338 18.352 2.20847 18.5571L4.91684 21.6965C5.65526 22.6405 6.30156 23.3687 6.85575 23.8817C7.40944 24.3947 7.95344 24.7845 8.48678 25.0512C9.02011 25.3178 9.60484 25.4822 10.241 25.5438C10.8771 25.6053 11.6669 25.6359 12.6109 25.6359H18.2119V25.6369Z" fill="#69BDA0"/>
</svg>
