<svg width="28" height="37" viewBox="0 0 28 37" fill="none" xmlns="http://www.w3.org/2000/svg">
<path fill-rule="evenodd" clip-rule="evenodd" d="M7.94814 11.9242L5.25032 9.39458L6.56276 8.0216L7.94814 9.25057L11.886 5.27563L13.1985 6.64862L7.94757 11.9242H7.94814ZM7.94814 21.1742L5.25032 18.5006L6.56276 17.1993L7.94814 18.4283L11.886 14.4533L13.1985 15.8263L7.94757 21.1742H7.94814ZM5.25032 30.2074L7.94814 27.606L5.25032 25.0046L6.56276 23.7033L9.26058 26.377L11.8855 23.7033L13.1985 25.004L10.5001 27.6054L13.1985 30.2068L11.886 31.5081L9.26115 28.8344L6.56276 31.5081L5.25032 30.2074ZM25.6669 0.000569232C26.3475 0.000569232 26.9064 0.216877 27.3441 0.650631C27.7812 1.08438 28 1.63825 28 2.31278V34.6878C28 35.3139 27.7817 35.8558 27.3441 36.3135C26.9064 36.7712 26.3475 37 25.6669 37H2.33367C1.65304 37 1.0936 36.7712 0.656506 36.3135C0.218835 35.8558 0 35.3139 0 34.6878V2.31278C0 1.63825 0.218835 1.08438 0.656506 0.650631C1.0936 0.216877 1.65246 0 2.33367 0H25.6669V0.000569232ZM25.6669 2.31278H2.33367V34.6878H25.6669V2.31278ZM22.1667 6.93778C22.9444 6.93778 23.3332 7.32315 23.3332 8.09389C23.3332 8.38306 23.2241 8.64832 23.0053 8.88911C22.7864 9.12989 22.5067 9.25 22.1667 9.25H17.4999C17.2081 9.25 16.9411 9.12989 16.6975 8.88911C16.4546 8.64832 16.3334 8.38306 16.3334 8.09389C16.3334 7.75691 16.4546 7.47969 16.6975 7.26282C16.9411 7.04651 17.2087 6.93778 17.4999 6.93778H22.1667ZM22.1667 16.1878C22.9444 16.1878 23.3332 16.5732 23.3332 17.3439C23.3332 17.6331 23.2241 17.8983 23.0053 18.1391C22.7864 18.3799 22.5067 18.5 22.1667 18.5H17.4999C17.2081 18.5 16.9411 18.3799 16.6975 18.1391C16.4546 17.8983 16.3334 17.6331 16.3334 17.3439C16.3334 17.0069 16.4546 16.7297 16.6975 16.5128C16.9411 16.2965 17.2087 16.1878 17.4999 16.1878H22.1667ZM22.1667 25.4378C22.9444 25.4378 23.3332 25.8232 23.3332 26.5939C23.3332 26.8831 23.2241 27.1483 23.0053 27.3891C22.7864 27.6299 22.5067 27.7506 22.1667 27.7506H17.4999C17.2081 27.7506 16.9411 27.6299 16.6975 27.3891C16.4546 27.1483 16.3334 26.8831 16.3334 26.5939C16.3334 26.2569 16.4546 25.9797 16.6975 25.7628C16.9411 25.5465 17.2087 25.4378 17.4999 25.4378H22.1667Z" fill="#69BDA0"/>
</svg>
