<svg width="22" height="29" viewBox="0 0 22 29" fill="none" xmlns="http://www.w3.org/2000/svg">
<path fill-rule="evenodd" clip-rule="evenodd" d="M15.2393 9.3461L16.4998 10.5355L10.2549 17.9551L6.53095 14.2739L7.73407 12.9711L10.2549 15.4633L15.2393 9.3461ZM20.1664 3.62509C20.6629 3.62509 21.0929 3.80444 21.4558 4.1636C21.8186 4.5223 22 4.94704 22 5.43781V27.1877C22 27.7164 21.8186 28.1505 21.4558 28.4905C21.0929 28.8305 20.6629 29 20.1664 29H1.83311C1.29834 29 0.859241 28.8305 0.515364 28.4905C0.171487 28.1505 0 27.7164 0 27.1877V5.43781C0 4.94704 0.171487 4.5223 0.515364 4.1636C0.859241 3.80444 1.29834 3.62509 1.83311 3.62509H5.67171C6.0535 2.64355 6.7602 2.0582 7.79138 1.86948C8.0969 1.34079 8.536 0.896868 9.10913 0.538608C9.67362 0.182044 10.3306 -0.00501323 11.0005 0.000102178C11.6878 0.000102178 12.3182 0.179455 12.8913 0.538608C13.464 0.897314 13.9031 1.34079 14.2086 1.86948C15.2398 2.0582 15.9461 2.64355 16.3283 3.62509H20.1664ZM8.24989 3.62509C7.98228 3.62509 7.7625 3.71967 7.59101 3.9084C7.41953 4.09712 7.33333 4.30503 7.33333 4.53167C7.33333 5.13576 7.63885 5.43781 8.24944 5.43781H13.7497C14.3611 5.43781 14.6667 5.13576 14.6667 4.53167C14.6667 4.30503 14.5809 4.09712 14.4085 3.9084C14.237 3.71967 14.0173 3.62509 13.7497 3.62509H12.8336C12.8336 3.13432 12.6612 2.70959 12.3177 2.35088C11.9739 1.99217 11.5348 1.81282 11 1.81282C10.4652 1.81282 10.0257 1.99217 9.68226 2.35088C9.33838 2.70959 9.16644 3.13432 9.16644 3.62509H8.24989ZM20.1664 5.43781H16.3278C16.2132 5.81525 16.0223 6.19314 15.7547 6.57059C15.4113 7.02388 14.9149 7.25008 14.2655 7.25008H7.73407C7.08468 7.25008 6.58827 7.02388 6.24484 6.57059C5.97723 6.19314 5.78634 5.81525 5.67171 5.43781H1.83311V27.1877H20.1664V5.43781ZM15.5832 23.5627C16.1943 23.5627 16.4998 23.8648 16.4998 24.4689C16.4998 24.6955 16.414 24.9034 16.2421 25.0922C16.0702 25.2809 15.8504 25.375 15.5832 25.375H6.41633C6.18753 25.375 5.97723 25.2809 5.78634 25.0922C5.59545 24.9034 5.49977 24.6955 5.49977 24.4689C5.49977 24.2048 5.59545 23.9875 5.78634 23.8175C5.97723 23.648 6.18753 23.5627 6.41633 23.5627H15.5832ZM15.5832 19.9378C16.1943 19.9378 16.4998 20.2398 16.4998 20.8439C16.4998 21.0705 16.414 21.2784 16.2421 21.4672C16.0702 21.6559 15.8504 21.75 15.5832 21.75H6.41633C6.18753 21.75 5.97723 21.6559 5.78634 21.4672C5.59545 21.2784 5.49977 21.0705 5.49977 20.8439C5.49977 20.5798 5.59545 20.3625 5.78634 20.1925C5.97723 20.023 6.18753 19.9378 6.41633 19.9378H15.5832Z" fill="#69BDA0"/>
</svg>
