<svg width="26" height="29" viewBox="0 0 26 29" fill="none" xmlns="http://www.w3.org/2000/svg">
<path fill-rule="evenodd" clip-rule="evenodd" d="M18.5718 5.43728C19.0746 5.43728 19.5098 5.60726 19.8774 5.94723C20.2449 6.28675 20.4287 6.72131 20.4287 7.25V27.1873C20.4287 27.716 20.255 28.1501 19.9062 28.49C19.5583 28.83 19.113 29 18.5713 29H1.915C1.37328 29 0.918416 28.83 0.551324 28.49C0.183775 28.1501 0 27.716 0 27.1873V10.875L5.5713 5.43728H18.5718ZM18.5718 7.25H7.42779V10.875C7.42779 11.4037 7.24401 11.8378 6.87646 12.1778C6.50891 12.5173 6.05451 12.6873 5.51278 12.6873H1.915V27.1873H18.5713V7.25H18.5718ZM24.1426 0C24.6071 0 25.0327 0.169538 25.4194 0.509508C25.8062 0.849477 26 1.28358 26 1.81228V21.75C26 22.2787 25.8258 22.7128 25.4775 23.0528C25.1291 23.3923 24.6843 23.5623 24.1426 23.5623H22.2852V21.75H24.1426V1.81228H13V3.625H7.37064L11.1431 0H24.1431H24.1426ZM13.9285 18.125C14.5475 18.125 14.8574 18.427 14.8574 19.0307C14.8574 19.2578 14.7705 19.4652 14.5959 19.654C14.4222 19.8431 14.1996 19.9373 13.9285 19.9373H6.49977C6.26754 19.9373 6.05496 19.8431 5.86159 19.654C5.66821 19.4652 5.5713 19.2578 5.5713 19.0311C5.5713 18.7666 5.66821 18.5493 5.86159 18.3798C6.05496 18.2102 6.26754 18.125 6.49977 18.125H13.9285ZM13.9285 21.75C14.5475 21.75 14.8574 22.052 14.8574 22.6557C14.8574 22.8828 14.7705 23.0902 14.5959 23.279C14.4222 23.4681 14.1996 23.5623 13.9285 23.5623H6.49977C6.26754 23.5623 6.05496 23.4681 5.86159 23.279C5.66821 23.0902 5.5713 22.8828 5.5713 22.6561C5.5713 22.3916 5.66821 22.1743 5.86159 22.0048C6.05496 21.8352 6.26754 21.75 6.49977 21.75H13.9285Z" fill="#68BC9F"/>
</svg>
