<svg width="117" height="117" viewBox="0 0 117 117" fill="none" xmlns="http://www.w3.org/2000/svg">
<circle cx="58.5" cy="58.5" r="58.5" fill="#248582"/>
<g filter="url(#filter0_d)">
<circle cx="58.5" cy="58.5" r="42.5" fill="white"/>
</g>
<path fill-rule="evenodd" clip-rule="evenodd" d="M41.5156 41H74.4844C76.4229 41 78 42.5771 78 44.5156C78 46.0434 77.0202 47.3459 75.6562 47.8297V67.9531C75.6562 69.8916 74.0791 71.4688 72.1406 71.4688H59.1719V74.1703C60.5359 74.6541 61.5156 75.9566 61.5156 77.4844C61.5156 79.4229 59.9385 81 58 81C56.0615 81 54.4844 79.4229 54.4844 77.4844C54.4844 75.9566 55.4641 74.6541 56.8281 74.1703V71.4688H43.8594C41.9209 71.4688 40.3438 69.8916 40.3438 67.9531V47.8297C38.9798 47.3459 38 46.0434 38 44.5156C38 42.5771 39.5771 41 41.5156 41ZM56.8281 77.4844C56.8281 78.1305 57.3538 78.6562 58 78.6562C58.6462 78.6562 59.1719 78.1305 59.1719 77.4844C59.1719 76.8382 58.6462 76.3125 58 76.3125C57.3538 76.3125 56.8281 76.8382 56.8281 77.4844ZM72.1406 69.125C72.7868 69.125 73.3125 68.5993 73.3125 67.9531V48.0312H42.6875V67.9531C42.6875 68.5993 43.2132 69.125 43.8594 69.125H72.1406ZM41.5156 45.6875H74.4844C75.1305 45.6875 75.6562 45.1618 75.6562 44.5156C75.6562 43.8695 75.1305 43.3438 74.4844 43.3438H41.5156C40.8695 43.3438 40.3438 43.8695 40.3438 44.5156C40.3438 45.1618 40.8695 45.6875 41.5156 45.6875ZM70.5473 50.7183L68.2036 48.3745L68.2001 48.3713L68.1966 48.3682C67.7345 47.9133 66.9956 47.9254 66.5463 48.3745L64.2026 50.7183C63.7449 51.1759 63.7449 51.9179 64.2026 52.3755C64.6602 52.8332 65.4022 52.8332 65.8598 52.3755L66.2031 52.0322V55.0625H58C57.3528 55.0625 56.8281 55.5872 56.8281 56.2344V62.0937H54.2828C53.7991 60.7297 52.4965 59.75 50.9688 59.75C49.0302 59.75 47.4531 61.3271 47.4531 63.2656C47.4531 65.2041 49.0302 66.7812 50.9688 66.7812C52.4965 66.7812 53.7991 65.8015 54.2828 64.4375H58C58.6472 64.4375 59.1719 63.9128 59.1719 63.2656V57.4062H67.375C68.0222 57.4062 68.5469 56.8815 68.5469 56.2344V52.0322L68.8902 52.3755C69.1189 52.6043 69.4188 52.7187 69.7188 52.7187C70.0187 52.7187 70.3186 52.6043 70.5473 52.3755C71.005 51.9179 71.005 51.1759 70.5473 50.7183ZM50.9688 64.4375C50.3226 64.4375 49.7969 63.9118 49.7969 63.2656C49.7969 62.6194 50.3226 62.0937 50.9688 62.0937C51.6149 62.0937 52.1406 62.6194 52.1406 63.2656C52.1406 63.9118 51.6149 64.4375 50.9688 64.4375ZM52.626 53.8906L54.1412 55.4058C54.5988 55.8635 54.5988 56.6054 54.1412 57.0631C53.6835 57.5207 52.9415 57.5206 52.4839 57.0631L50.9688 55.5479L49.4537 57.0631C48.996 57.5207 48.254 57.5206 47.7964 57.0631C47.3387 56.6054 47.3387 55.8634 47.7964 55.4057L49.3115 53.8906L47.7963 52.3755C47.3387 51.9178 47.3387 51.1759 47.7963 50.7182C48.254 50.2606 48.996 50.2606 49.4536 50.7182L50.9688 52.2334L52.4838 50.7183C52.9415 50.2606 53.6835 50.2606 54.1411 50.7183C54.5987 51.176 54.5987 51.9179 54.1411 52.3756L52.626 53.8906ZM66.6885 63.2656L68.2037 64.7808C68.6613 65.2385 68.6613 65.9804 68.2037 66.4381C67.746 66.8957 67.004 66.8956 66.5464 66.4381L65.0313 64.9229L63.5162 66.438C63.0585 66.8956 62.3165 66.8956 61.8589 66.438C61.4013 65.9803 61.4013 65.2384 61.8589 64.7807L63.374 63.2656L61.8588 61.7505C61.4012 61.2928 61.4012 60.5509 61.8588 60.0932C62.3165 59.6356 63.0585 59.6356 63.5161 60.0932L65.0313 61.6084L66.5463 60.0932C67.004 59.6356 67.746 59.6356 68.2036 60.0932C68.6613 60.5509 68.6613 61.2929 68.2036 61.7506L66.6885 63.2656Z" fill="#6BBDB9"/>
<defs>
<filter id="filter0_d" x="6" y="10" width="105" height="105" filterUnits="userSpaceOnUse" color-interpolation-filters="sRGB">
<feFlood flood-opacity="0" result="BackgroundImageFix"/>
<feColorMatrix in="SourceAlpha" type="matrix" values="0 0 0 0 0 0 0 0 0 0 0 0 0 0 0 0 0 0 127 0"/>
<feOffset dy="4"/>
<feGaussianBlur stdDeviation="5"/>
<feColorMatrix type="matrix" values="0 0 0 0 0.0640657 0 0 0 0 0.188596 0 0 0 0 0.232874 0 0 0 0.5 0"/>
<feBlend mode="normal" in2="BackgroundImageFix" result="effect1_dropShadow"/>
<feBlend mode="normal" in="SourceGraphic" in2="effect1_dropShadow" result="shape"/>
</filter>
</defs>
</svg>
