<svg width="18" height="18" viewBox="0 0 18 18" fill="none" xmlns="http://www.w3.org/2000/svg">
<path d="M8.99998 18C4.03757 18 0 13.9628 0 9.00005C0 4.03729 4.03757 0 8.99998 0C13.9624 0 18 4.03729 18 9.00005C18 13.9628 13.9624 18 8.99998 18ZM8.99998 0.580623C4.35739 0.580623 0.580621 4.3577 0.580621 9.00005C0.580621 13.6424 4.35739 17.4194 8.99998 17.4194C13.6426 17.4194 17.4194 13.6424 17.4194 9.00005C17.4194 4.3577 13.6426 0.580623 8.99998 0.580623Z" fill="#2BC59D"/>
<path d="M7.33619 12.8389L4.11877 9.62151L4.52932 9.211L7.33619 12.0178L13.4456 5.90869L13.8561 6.31919L7.33619 12.8389Z" fill="#4B9279"/>
</svg>
