<svg width="37" height="41" viewBox="0 0 37 41" fill="none" xmlns="http://www.w3.org/2000/svg">
<path fill-rule="evenodd" clip-rule="evenodd" d="M26.429 7.68718C27.1447 7.68718 27.764 7.92751 28.287 8.40815C28.8101 8.88817 29.0716 9.50254 29.0716 10.25V38.4372C29.0716 39.1846 28.8244 39.7984 28.328 40.279C27.8329 40.7597 27.1993 41 26.4284 41H2.7252C1.95428 41 1.30698 40.7597 0.784576 40.279C0.261526 39.7984 0 39.1846 0 38.4372V15.375L7.92839 7.68718H26.429ZM26.429 10.25H10.5703V15.375C10.5703 16.1225 10.3088 16.7362 9.78574 17.2168C9.26269 17.6969 8.61603 17.9372 7.84511 17.9372H2.7252V38.4372H26.4284V10.25H26.429ZM34.3568 0C35.0177 0 35.6234 0.239692 36.1738 0.720338C36.7242 1.20098 37 1.81472 37 2.56218V30.75C37 31.4975 36.7521 32.1112 36.2564 32.5918C35.7607 33.0719 35.1277 33.3122 34.3568 33.3122H31.7135V30.75H34.3568V2.56218H18.5V5.125H10.489L15.8574 0H34.3574H34.3568ZM19.8213 25.625C20.7021 25.625 21.1432 26.052 21.1432 26.9055C21.1432 27.2265 21.0196 27.5198 20.7711 27.7866C20.5239 28.0541 20.2071 28.1872 19.8213 28.1872H9.24967C8.91919 28.1872 8.61668 28.0541 8.34149 27.7866C8.0663 27.5198 7.92839 27.2265 7.92839 26.9061C7.92839 26.532 8.0663 26.2249 8.34149 25.9852C8.61668 25.7455 8.91919 25.625 9.24967 25.625H19.8213ZM19.8213 30.75C20.7021 30.75 21.1432 31.177 21.1432 32.0305C21.1432 32.3515 21.0196 32.6448 20.7711 32.9116C20.5239 33.1791 20.2071 33.3122 19.8213 33.3122H9.24967C8.91919 33.3122 8.61668 33.1791 8.34149 32.9116C8.0663 32.6448 7.92839 32.3515 7.92839 32.0311C7.92839 31.657 8.0663 31.3499 8.34149 31.1102C8.61668 30.8705 8.91919 30.75 9.24967 30.75H19.8213Z" fill="#68BC9F"/>
</svg>
