<svg width="38" height="38" viewBox="0 0 38 38" fill="none" xmlns="http://www.w3.org/2000/svg">
<path fill-rule="evenodd" clip-rule="evenodd" d="M28.5 21.375C29.8359 21.375 31.0729 21.6224 32.2109 22.1172C33.349 22.612 34.3509 23.2923 35.2168 24.1582C36.0827 25.0241 36.763 26.0384 37.2578 27.2012C37.7526 28.3639 38 29.5885 38 30.875V35.625H14.25V30.875C14.25 29.5885 14.4974 28.3639 14.9922 27.2012C15.487 26.0384 16.1673 25.0241 17.0332 24.1582C17.8991 23.2923 18.9134 22.612 20.0762 22.1172C21.2389 21.6224 22.4635 21.375 23.75 21.375H28.5ZM35.625 30.875C35.625 28.8958 34.9323 27.2136 33.5469 25.8281C32.1615 24.4427 30.4792 23.75 28.5 23.75H23.75C21.7708 23.75 20.0885 24.4427 18.7031 25.8281C17.3177 27.2136 16.625 28.8958 16.625 30.875V33.25H35.625V30.875ZM33.25 14.25C33.25 16.2292 32.5573 17.9115 31.1719 19.2969C29.7865 20.6823 28.1042 21.375 26.125 21.375C24.1458 21.375 22.4635 20.6823 21.0781 19.2969C19.6927 17.9115 19 16.2292 19 14.25C19 12.2708 19.6927 10.5885 21.0781 9.20312C22.4635 7.8177 24.1458 7.125 26.125 7.125C28.1042 7.125 29.7865 7.8177 31.1719 9.20312C32.5573 10.5885 33.25 12.2708 33.25 14.25ZM26.125 19C27.4609 19 28.5866 18.53 29.502 17.5898C30.4173 16.6497 30.875 15.5365 30.875 14.25C30.875 12.9635 30.4173 11.8503 29.502 10.9102C28.5866 9.97005 27.4609 9.5 26.125 9.5C24.8385 9.5 23.7253 9.97005 22.7852 10.9102C21.845 11.8503 21.375 12.9635 21.375 14.25C21.375 15.5365 21.845 16.6497 22.7852 17.5898C23.7253 18.53 24.8385 19 26.125 19ZM9.72266 22.6367V21.0039C8.58463 20.8555 7.64454 20.4596 6.90234 19.8164C6.25911 19.2227 5.8138 18.2578 5.56641 16.9219L8.08984 16.625C8.1888 17.2682 8.36198 17.7135 8.60938 17.9609C8.90625 18.2578 9.27734 18.5052 9.72266 18.7031V14.8438C8.28775 14.3984 7.32292 13.8542 6.82813 13.2109C6.28385 12.5182 6.01172 11.6523 6.01172 10.6133C6.01172 9.57421 6.33333 8.70834 6.97656 8.01562C7.52084 7.32291 8.43619 6.90234 9.72266 6.75391V4.82422H11.207L11.1328 6.75391C12.3698 7.0013 13.2604 7.34765 13.8047 7.79297C14.349 8.38672 14.7448 9.15364 14.9922 10.0938L12.543 10.3906C12.3945 9.69791 11.9245 9.17839 11.1328 8.83203V12.6172C12.9141 13.0625 14.0273 13.582 14.4727 14.1758C15.0664 14.8685 15.3633 15.6849 15.3633 16.625C15.3633 17.7135 15.0169 18.6784 14.3242 19.5195C13.681 20.2617 12.6172 20.7565 11.1328 21.0039V22.6367H9.72266ZM11.1328 18.8516C11.875 18.7031 12.3698 18.4805 12.6172 18.1836C12.8646 17.8372 12.9883 17.4414 12.9883 16.9961C12.9883 16.7487 12.9635 16.5508 12.9141 16.4023C12.8646 16.2539 12.7904 16.1055 12.6914 15.957C12.444 15.6107 11.9245 15.3633 11.1328 15.2148V18.8516ZM8.60938 11.4297C8.70833 11.5286 8.8444 11.64 9.01758 11.7637C9.19076 11.8874 9.42578 11.9987 9.72266 12.0977V8.83203C9.17838 9.07943 8.83203 9.30208 8.68359 9.5C8.4362 9.79688 8.32487 10.1309 8.34961 10.502C8.37435 10.873 8.46094 11.1823 8.60938 11.4297ZM11.875 38H2.375C1.73177 38 1.17513 37.7773 0.705078 37.332C0.235024 36.8867 0 36.3177 0 35.625V2.375C0 1.68229 0.235024 1.11328 0.705078 0.667969C1.17513 0.222654 1.73177 0 2.375 0H23.75C24.4427 0 25.0117 0.222654 25.457 0.667969C25.9023 1.11328 26.125 1.68229 26.125 2.375V4.75H23.75V2.375H2.375V35.625H11.875V38ZM10.6133 26.125C11.405 26.125 11.8008 26.5208 11.8008 27.3125C11.8008 27.6094 11.6895 27.8815 11.4668 28.1289C11.2441 28.3763 10.9596 28.5 10.6133 28.5H5.9375C5.64062 28.5 5.36849 28.3763 5.12109 28.1289C4.8737 27.8815 4.75 27.6094 4.75 27.3125C4.75 26.9661 4.8737 26.6816 5.12109 26.459C5.36849 26.2363 5.64062 26.125 5.9375 26.125H10.6133ZM10.6133 30.875C11.405 30.875 11.8008 31.2708 11.8008 32.0625C11.8008 32.3594 11.6895 32.6315 11.4668 32.8789C11.2441 33.1263 10.9596 33.25 10.6133 33.25H5.9375C5.64062 33.25 5.36849 33.1263 5.12109 32.8789C4.8737 32.6315 4.75 32.3594 4.75 32.0625C4.75 31.7161 4.8737 31.4316 5.12109 31.209C5.36849 30.9863 5.64062 30.875 5.9375 30.875H10.6133Z" fill="#69BDA0"/>
</svg>
