<svg width="36" height="49" viewBox="0 0 36 49" fill="none" xmlns="http://www.w3.org/2000/svg">
<path fill-rule="evenodd" clip-rule="evenodd" d="M24.9371 15.7917L26.9996 17.8014L16.7808 30.3378L10.687 24.1179L12.6558 21.9167L16.7808 26.1276L24.9371 15.7917ZM32.9996 6.12515C33.8119 6.12515 34.5157 6.4282 35.1094 7.03504C35.7031 7.64113 36 8.35879 36 9.18802V45.9379C36 46.8312 35.7031 47.5647 35.1094 48.1391C34.5157 48.7135 33.8119 49 32.9996 49H2.99963C2.12455 49 1.40603 48.7135 0.843323 48.1391C0.280615 47.5647 0 46.8312 0 45.9379V9.18802C0 8.35879 0.280615 7.64113 0.843323 7.03504C1.40603 6.4282 2.12455 6.12515 2.99963 6.12515H9.28098C9.90572 4.4667 11.0622 3.47765 12.7495 3.15878C13.2495 2.26547 13.968 1.5154 14.9058 0.910062C15.8296 0.307592 16.9046 -0.00847063 18.0007 0.000172646C19.1254 0.000172646 20.157 0.303218 21.0949 0.910062C22.032 1.51615 22.7505 2.26547 23.2505 3.15878C24.9378 3.47765 26.0935 4.4667 26.719 6.12515H32.9996ZM13.4998 6.12515C13.0619 6.12515 12.7023 6.28497 12.4217 6.60384C12.141 6.92272 12 7.27401 12 7.65696C12 8.67766 12.4999 9.18802 13.4991 9.18802H22.4994C23.5001 9.18802 24 8.67766 24 7.65696C24 7.27401 23.8597 6.92272 23.5776 6.60384C23.297 6.28497 22.9374 6.12515 22.4994 6.12515H21.0004C21.0004 5.29592 20.7183 4.57826 20.1563 3.97217C19.5936 3.36608 18.8751 3.06304 18 3.06304C17.1249 3.06304 16.4057 3.36608 15.8437 3.97217C15.281 4.57826 14.9996 5.29592 14.9996 6.12515H13.4998ZM32.9996 9.18802H26.7183C26.5307 9.82577 26.2183 10.4643 25.7804 11.102C25.2185 11.8679 24.4062 12.2501 23.3435 12.2501H12.6558C11.5931 12.2501 10.7808 11.8679 10.2188 11.102C9.78092 10.4643 9.46855 9.82577 9.28098 9.18802H2.99963V45.9379H32.9996V9.18802ZM25.4998 39.8129C26.4997 39.8129 26.9996 40.3233 26.9996 41.344C26.9996 41.7269 26.8593 42.0782 26.578 42.3971C26.2966 42.716 25.937 42.875 25.4998 42.875H10.4994C10.125 42.875 9.78092 42.716 9.46855 42.3971C9.15618 42.0782 8.99963 41.7269 8.99963 41.344C8.99963 40.8977 9.15618 40.5306 9.46855 40.2434C9.78092 39.9569 10.125 39.8129 10.4994 39.8129H25.4998ZM25.4998 33.6879C26.4997 33.6879 26.9996 34.1983 26.9996 35.219C26.9996 35.6019 26.8593 35.9532 26.578 36.2721C26.2966 36.591 25.937 36.75 25.4998 36.75H10.4994C10.125 36.75 9.78092 36.591 9.46855 36.2721C9.15618 35.9532 8.99963 35.6019 8.99963 35.219C8.99963 34.7727 9.15618 34.4056 9.46855 34.1184C9.78092 33.8319 10.125 33.6879 10.4994 33.6879H25.4998Z" fill="#69BDA0"/>
</svg>
