<svg width="34" height="45" viewBox="0 0 34 45" fill="none" xmlns="http://www.w3.org/2000/svg">
<path fill-rule="evenodd" clip-rule="evenodd" d="M9.65132 14.5025L6.37539 11.4258L7.96907 9.756L9.65132 11.2507L14.433 6.41631L16.0267 8.08615L9.65062 14.5025H9.65132ZM9.65132 25.7525L6.37539 22.5007L7.96907 20.9181L9.65132 22.4128L14.433 17.5784L16.0267 19.2482L9.65062 25.7525H9.65132ZM6.37539 36.7387L9.65132 33.5748L6.37539 30.411L7.96907 28.8284L11.245 32.0802L14.4323 28.8284L16.0267 30.4103L12.7501 33.5742L16.0267 36.738L14.433 38.3206L11.2457 35.0688L7.96907 38.3206L6.37539 36.7387ZM31.167 0.000692309C31.9934 0.000692309 32.6721 0.263769 33.2035 0.791308C33.7343 1.31885 34 1.99246 34 2.81285V42.1878C34 42.9494 33.735 43.6085 33.2035 44.1651C32.6721 44.7217 31.9934 45 31.167 45H2.83374C2.00726 45 1.32795 44.7217 0.797186 44.1651C0.265729 43.6085 0 42.9494 0 42.1878V2.81285C0 1.99246 0.265729 1.31885 0.797186 0.791308C1.32795 0.263769 2.00656 0 2.83374 0H31.167V0.000692309ZM31.167 2.81285H2.83374V42.1878H31.167V2.81285ZM26.9167 8.43785C27.861 8.43785 28.3332 8.90654 28.3332 9.84392C28.3332 10.1956 28.2007 10.5182 27.935 10.8111C27.6692 11.1039 27.3296 11.25 26.9167 11.25H21.2499C20.8956 11.25 20.5713 11.1039 20.2756 10.8111C19.9806 10.5182 19.8334 10.1956 19.8334 9.84392C19.8334 9.43408 19.9806 9.09692 20.2756 8.83315C20.5713 8.57008 20.8963 8.43785 21.2499 8.43785H26.9167ZM26.9167 19.6878C27.861 19.6878 28.3332 20.1565 28.3332 21.0939C28.3332 21.4456 28.2007 21.7682 27.935 22.0611C27.6692 22.3539 27.3296 22.5 26.9167 22.5H21.2499C20.8956 22.5 20.5713 22.3539 20.2756 22.0611C19.9806 21.7682 19.8334 21.4456 19.8334 21.0939C19.8334 20.6841 19.9806 20.3469 20.2756 20.0832C20.5713 19.8201 20.8963 19.6878 21.2499 19.6878H26.9167ZM26.9167 30.9378C27.861 30.9378 28.3332 31.4065 28.3332 32.3439C28.3332 32.6956 28.2007 33.0182 27.935 33.3111C27.6692 33.6039 27.3296 33.7507 26.9167 33.7507H21.2499C20.8956 33.7507 20.5713 33.6039 20.2756 33.3111C19.9806 33.0182 19.8334 32.6956 19.8334 32.3439C19.8334 31.9341 19.9806 31.5969 20.2756 31.3332C20.5713 31.0701 20.8963 30.9378 21.2499 30.9378H26.9167Z" fill="#69BDA0"/>
</svg>
