<svg width="40" height="45" viewBox="0 0 40 45" fill="none" xmlns="http://www.w3.org/2000/svg">
<path fill-rule="evenodd" clip-rule="evenodd" d="M33.2143 16.3477C32.5 19.8633 32.4554 22.8223 33.0804 25.2246C33.7054 27.627 34.5238 29.6045 35.5357 31.1572C36.5476 32.71 37.5446 33.8965 38.5268 34.7168C39.5089 35.5371 40 36.1523 40 36.5625C40 37.3828 39.7321 38.0566 39.1964 38.584C38.6607 39.1113 37.9762 39.375 37.1429 39.375H25.7143C25.7143 40.8984 25.1488 42.2168 24.0179 43.3301C22.8869 44.4434 21.5476 45 20 45C18.4524 45 17.1131 44.4434 15.9821 43.3301C14.8512 42.2168 14.2857 40.8984 14.2857 39.375H2.85714C2.02381 39.375 1.33929 39.1113 0.803571 38.584C0.267854 38.0566 0 37.3828 0 36.5625C0 36.1523 0.446424 35.5371 1.33929 34.7168C2.23215 33.8965 3.15476 32.71 4.10714 31.1572C5.05953 29.6045 5.81845 27.627 6.38393 25.2246C6.94941 22.8223 6.90477 19.8633 6.25 16.3477C5.95238 14.6484 6.02678 13.0518 6.47321 11.5576C6.91965 10.0635 7.66369 8.74512 8.70536 7.60254C9.74703 6.45996 10.997 5.49317 12.4554 4.70215C13.9137 3.91113 15.5059 3.36914 17.2321 3.07617C17.2321 3.01758 17.2173 2.97363 17.1875 2.94434C17.1577 2.91504 17.1429 2.87109 17.1429 2.8125C17.1429 1.99218 17.4107 1.31836 17.9464 0.791016C18.4821 0.263669 19.1667 0 20 0C20.8333 0 21.5179 0.263669 22.0536 0.791016C22.5893 1.31836 22.8571 1.99218 22.8571 2.8125C22.8571 2.92969 22.8274 3.01758 22.7679 3.07617C24.3155 3.36914 25.8036 3.89648 27.2321 4.6582C28.6607 5.41993 29.8809 6.38671 30.8929 7.55859C31.9048 8.73047 32.6339 10.0635 33.0804 11.5576C33.5268 13.0518 33.5714 14.6484 33.2143 16.3477ZM36.4286 36.5625C35.8333 35.918 35.0744 35.0244 34.1518 33.8818C33.2292 32.7393 32.3958 31.3184 31.6518 29.6191C30.9077 27.9199 30.372 25.9277 30.0446 23.6426C29.7173 21.3574 29.8512 18.75 30.4464 15.8203C30.744 14.3555 30.6696 13.0664 30.2232 11.9531C29.7768 10.8398 29.2857 9.96094 28.75 9.31641C27.619 7.96874 26.3691 7.0166 25 6.45996C23.6309 5.90332 21.9643 5.625 20 5.625C18.0952 5.625 16.3839 5.90332 14.8661 6.45996C13.3482 7.0166 12.0238 7.96874 10.8929 9.31641C10.2976 9.96094 9.76191 10.8398 9.28571 11.9531C8.80952 13.0664 8.72024 14.3555 9.01786 15.8203C9.55357 18.75 9.6875 21.3574 9.41964 23.6426C9.15178 25.9277 8.6756 27.9199 7.99107 29.6191C7.30654 31.3184 6.53274 32.7393 5.66964 33.8818C4.80654 35.0244 4.07738 35.918 3.48214 36.5625H36.4286Z" fill="#69BDA0"/>
</svg>
