<svg width="64" height="94" viewBox="0 0 64 94" fill="none" xmlns="http://www.w3.org/2000/svg">
<path fill-rule="evenodd" clip-rule="evenodd" d="M55.4929 88.4672C55.1071 88.4674 54.725 88.3906 54.3685 88.2414C54.012 88.0922 53.6881 87.8734 53.4152 87.5975C53.1423 87.3217 52.9257 86.9941 52.7779 86.6336C52.6301 86.273 52.554 85.8866 52.5539 85.4963C52.5537 85.1059 52.6295 84.7194 52.777 84.3588C52.9245 83.9981 53.1408 83.6703 53.4135 83.3942C53.6862 83.1181 54.0099 82.8991 54.3663 82.7496C54.7227 82.6001 55.1047 82.523 55.4905 82.5228C56.2696 82.5225 57.017 82.8354 57.5682 83.3925C58.1194 83.9497 58.4292 84.7055 58.4295 85.4938C58.4299 86.2821 58.1206 87.0382 57.5699 87.5958C57.0192 88.1534 56.2721 88.4669 55.4929 88.4672ZM14.5559 89.0192C10.9354 88.2783 11.3088 79.9665 11.3088 79.9665L11.2991 60.2788C11.2991 60.2788 11.2967 53.6671 17.501 45.6424V81.804C17.501 81.804 18.1775 89.7539 14.5559 89.018V89.0192ZM8.40372 26.7606C7.62423 26.7606 6.87668 26.4473 6.3255 25.8897C5.77432 25.3321 5.46466 24.5758 5.46466 23.7872C5.46466 22.9986 5.77432 22.2423 6.3255 21.6847C6.87668 21.127 7.62423 20.8138 8.40372 20.8138C9.1832 20.8138 9.93077 21.127 10.482 21.6847C11.0331 22.2423 11.3428 22.9986 11.3428 23.7872C11.3428 24.5758 11.0331 25.3321 10.482 25.8897C9.93077 26.4473 9.1832 26.7606 8.40372 26.7606ZM55.4929 76.9919C54.8442 76.9919 54.2174 77.0814 53.6123 77.2213C50.8442 73.242 35.4009 50.9918 34.3787 48.947C33.2572 46.6973 35.4821 43.6098 35.4821 43.6098L61.6608 14.2647C61.6608 14.2647 66.7459 7.06425 61.1625 1.93195C54.8224 -3.89096 47.1098 5.30524 47.1098 5.30524L22.8529 31.9211C22.8565 31.9211 22.5958 9.6758 21.895 6.74288C20.942 2.73051 18.0915 0.344667 14.5753 0.344667C7.43374 0.344667 6.47952 6.61898 6.47952 6.61898C6.02726 8.33261 5.78234 15.3037 5.81265 15.7367C2.44922 16.848 0 20.0091 0 23.7872C0 26.0423 0.885515 28.2052 2.46174 29.7998C4.03797 31.3944 6.17581 32.2903 8.40494 32.2903C10.6341 32.2903 12.7719 31.3944 14.3481 29.7998C15.9243 28.2052 16.8099 26.0423 16.8099 23.7872C16.8099 20.0312 14.3849 16.8787 11.0457 15.7551L11.2785 11.4029C11.2785 11.4029 11.1827 5.5886 14.6335 5.7775C17.9144 5.95659 17.501 11.6311 17.501 11.6311V37.5551C5.84417 50.1099 6.11577 59.2055 6.11577 59.2055L6.25399 81.8801C6.25399 81.8801 5.65988 94.0055 14.7062 93.9773C23.755 93.9503 23.0154 82.4002 23.0154 82.4002L22.8529 39.8318L51.6178 7.84072C51.6178 7.84072 55.2261 3.76947 57.5299 6.2608C59.8324 8.7509 56.0458 12.8908 56.0458 12.8908C56.0458 12.8908 35.493 35.8255 31.1681 41.3013C26.8444 46.7746 30.8807 53.0673 30.8807 53.0673L49.1504 79.9714C47.8809 81.4593 47.0855 83.3754 47.0855 85.4938C47.0854 86.6108 47.3027 87.7169 47.7252 88.7489C48.1476 89.781 48.7669 90.7187 49.5477 91.5085C50.3284 92.2984 51.2553 92.9249 52.2754 93.3523C53.2955 93.7797 54.3888 93.9995 55.4929 93.9994C56.6052 94.0129 57.7091 93.8029 58.7407 93.3816C59.7722 92.9604 60.7108 92.3361 61.5021 91.5451C62.2934 90.7541 62.9216 89.8121 63.3504 88.7737C63.7792 87.7353 64 86.621 64 85.4956C64 84.3702 63.7792 83.256 63.3504 82.2176C62.9216 81.1792 62.2934 80.2371 61.5021 79.4462C60.7108 78.6552 59.7722 78.0309 58.7407 77.6096C57.7091 77.1883 56.6052 76.9784 55.4929 76.9919Z" fill="url(#paint0_linear)"/>
<defs>
<linearGradient id="paint0_linear" x1="32" y1="0" x2="32" y2="94" gradientUnits="userSpaceOnUse">
<stop stop-color="#DCF5F1"/>
<stop offset="1" stop-color="#BDF2E9"/>
</linearGradient>
</defs>
</svg>
