<svg width="58" height="58" viewBox="0 0 58 58" fill="none" xmlns="http://www.w3.org/2000/svg">
<path fill-rule="evenodd" clip-rule="evenodd" d="M38.0834 31.0393C34.9904 31.0393 32.3698 29.9632 30.2189 27.8101C28.0689 25.6579 26.994 23.0337 26.994 19.9374C26.994 16.8412 28.0689 14.2357 30.2189 12.1209C32.3689 10.0062 34.9904 8.94971 38.0834 8.94971C41.1764 8.94971 43.7979 10.0071 45.9479 12.1209C48.0987 14.2357 49.1737 16.8412 49.1737 19.9374C49.1737 23.0337 48.0987 25.6579 45.9479 27.8101C43.7979 29.9632 41.1764 31.0393 38.0834 31.0393ZM38.0834 12.5742C35.9709 12.5742 34.1988 13.2916 32.7646 14.7264C31.3313 16.1612 30.6147 17.8985 30.6147 19.9374C30.6147 22.0522 31.3313 23.8269 32.7646 25.2617C34.1988 26.6965 35.9709 27.4139 38.0834 27.4139C40.1202 27.4139 41.8744 26.6965 43.346 25.2617C44.8167 23.8269 45.5521 22.0522 45.5521 19.9374C45.5521 17.8985 44.8167 16.1612 43.346 14.7264C41.8753 13.2916 40.1202 12.5742 38.0834 12.5742ZM39.2154 7.25078C38.9133 7.17493 38.5362 7.13746 38.0834 7.13746C37.5557 7.13746 37.1787 7.17493 36.9514 7.25078V0H39.2154V7.25078ZM46.3445 29.7928C46.6458 29.5662 46.9106 29.3208 47.137 29.0567C47.3625 28.7925 47.5889 28.5088 47.8153 28.2072L52.9076 33.3049L51.3237 34.8905L46.3445 29.7928ZM47.8153 11.7818C47.5985 11.4911 47.3722 11.2075 47.137 10.9315C46.9002 10.6578 46.6342 10.4109 46.3437 10.1953L51.3237 5.09768L52.9076 6.68417L47.8153 11.7818ZM36.9523 32.7383C37.1029 32.7383 37.2731 32.757 37.4612 32.7945C37.6502 32.8328 37.857 32.8516 38.0834 32.8516C38.2349 32.8516 38.4043 32.8328 38.5933 32.7945C38.7813 32.757 38.989 32.7383 39.2154 32.7383V39.8748H36.9514V32.7383H36.9523ZM25.1836 19.9374C25.1836 20.1641 25.2014 20.372 25.2398 20.5602C25.2772 20.7494 25.2968 20.9198 25.2968 21.0706H18.1677V18.9184H25.2968C25.2968 19.0692 25.2772 19.2396 25.2398 19.4279C25.2045 19.5955 25.1857 19.7662 25.1836 19.9374ZM23.1459 33.304L28.2383 28.2072C28.6911 28.8113 29.2188 29.3404 29.8231 29.7928L24.7308 34.8905L23.1459 33.3049V33.304ZM58 18.9193V21.0715H50.7577C50.8334 20.8449 50.8709 20.4674 50.8709 19.9383C50.8709 19.485 50.8334 19.1459 50.7577 18.9193H58ZM29.8231 10.1962C29.2221 10.6468 28.6884 11.181 28.2383 11.7827L23.1459 6.68507L24.7308 5.09857L29.8231 10.1962ZM32.6514 47.1256C34.9155 47.1256 36.9139 47.3897 38.6494 47.9189C40.3466 48.4298 41.9652 49.173 43.4592 50.1273C44.9618 51.0975 46.3475 52.2379 47.5889 53.526C48.9719 54.9606 50.2935 56.4533 51.5501 58H48.1549C47.1744 58 46.3445 57.6609 45.6653 56.981C43.7043 55.0929 41.8369 53.5822 40.064 52.4499C38.2911 51.3167 35.8211 50.751 32.6514 50.751H12.8489L7.07646 57.9982H4.36137L11.2641 49.616L0.514252 36.4752C0.137206 36.0977 -0.0330447 35.6632 0.00528385 35.1724C0.0427211 34.6817 0.250409 34.248 0.627455 33.8697C1.0045 33.4923 1.43859 33.3415 1.92884 33.4173C2.41909 33.4923 2.85319 33.7189 3.23023 34.0963L8.20938 39.8739C9.56693 41.6112 10.7551 42.9515 11.7739 43.8955C12.7919 44.8396 13.792 45.557 14.7725 46.0477C15.753 46.5385 16.828 46.841 17.9974 46.9543C19.1669 47.0676 20.6189 47.1238 22.3544 47.1238H32.6514V47.1256Z" fill="#69BDA0"/>
</svg>
