<svg width="372" height="146" viewBox="0 0 372 146" fill="none" xmlns="http://www.w3.org/2000/svg">
<path d="M13.1057 28.0023C13.1057 23.923 13.0508 19.8358 13.0508 16.6489C13.0508 12.7744 14.277 4.99243 22.5129 4.99243C32.1214 4.99243 32.579 12.7744 32.5424 17.7957C32.4982 23.8492 32.5424 59.6707 32.5424 66.0764C32.5424 72.4821 33.0823 122.196 32.5424 127.234C32.0024 132.272 30.2088 137.186 23.3639 137.186C17.6628 137.186 14.7803 132.616 14.2404 126.98C13.7005 121.352 13.4351 92.2155 13.4625 89.1846C13.5174 83.1065 13.1057 80.0429 17.0681 75.6686C19.4015 73.0966 21.9638 70.0411 26.3288 65.716C30.6938 61.3908 80.7588 13.1265 84.9225 9.62885C89.0863 6.13105 95.5264 3.15159 99.738 6.5652C104.872 10.7265 102.016 15.7479 98.5937 19.8272C95.4915 23.5298 60.6724 57.3525 56.9205 61.8004C53.1594 66.2484 51.6861 68.0423 51.6861 72.4657C51.6861 79.0108 84.6297 116.519 88.7019 121.541" stroke="#18D47E" stroke-width="9.09761" stroke-miterlimit="8"/>
<path d="M14.0168 43.7399C18.8787 43.6973 22.7815 40.1347 22.7338 35.7826C22.6863 31.4305 18.7063 27.9369 13.8444 27.9795C8.98256 28.0221 5.0798 31.5848 5.12738 35.9369C5.17498 40.289 9.15491 43.7825 14.0168 43.7399Z" stroke="#18D47E" stroke-width="9.09761" stroke-miterlimit="8"/>
<path d="M94.1567 137.186C99.0188 137.186 102.96 133.659 102.96 129.306C102.96 124.954 99.0188 121.426 94.1567 121.426C89.2948 121.426 85.3535 124.954 85.3535 129.306C85.3535 133.659 89.2948 137.186 94.1567 137.186Z" stroke="#18D47E" stroke-width="9.09761" stroke-miterlimit="8"/>
<path d="M175.622 79H168.556L157.917 64.1251V79H151.694V49.6516H157.917V63.8641L168.435 49.6516H175.06L164.36 63.7437L175.622 79ZM201.639 49.6516L192.565 70.4083C191.428 73.0179 190.357 74.8915 189.353 76.029C188.363 77.1666 187.185 78.0164 185.82 78.5784C184.455 79.1271 182.796 79.4015 180.842 79.4015C179.169 79.4015 177.61 79.2007 176.165 78.7993V73.4595C177.342 73.9413 178.808 74.1822 180.561 74.1822C181.672 74.1822 182.568 73.9279 183.251 73.4194C183.933 72.8975 184.502 72.0008 184.957 70.7295L174.8 49.6516H181.384L188.611 66.012H188.811L189.173 65.0083L195.235 49.6516H201.639ZM210.753 63.4626H212.801C214.715 63.4626 216.147 63.0879 217.097 62.3385C218.047 61.5757 218.522 60.4716 218.522 59.0262C218.522 57.5675 218.121 56.4902 217.318 55.7943C216.528 55.0984 215.283 54.7505 213.584 54.7505H210.753V63.4626ZM224.805 58.8054C224.805 61.9638 223.815 64.3793 221.834 66.0522C219.867 67.725 217.063 68.5615 213.423 68.5615H210.753V79H204.53V49.6516H213.905C217.465 49.6516 220.168 50.4211 222.015 51.9602C223.875 53.4858 224.805 55.7675 224.805 58.8054ZM241.989 54.4092C239.647 54.4092 237.834 55.2925 236.549 57.059C235.265 58.8121 234.622 61.2612 234.622 64.4061C234.622 70.9503 237.078 74.2224 241.989 74.2224C244.05 74.2224 246.546 73.7071 249.477 72.6767V77.8959C247.068 78.8996 244.378 79.4015 241.407 79.4015C237.138 79.4015 233.873 78.11 231.611 75.5272C229.349 72.9309 228.219 69.2105 228.219 64.366C228.219 61.3147 228.774 58.6448 229.885 56.3564C230.996 54.0546 232.588 52.2947 234.662 51.0769C236.75 49.8457 239.192 49.2301 241.989 49.2301C244.84 49.2301 247.704 49.9193 250.581 51.2977L248.574 56.3564C247.476 55.8345 246.372 55.3795 245.262 54.9914C244.151 54.6033 243.06 54.4092 241.989 54.4092ZM160.576 107H158.509L151.724 99.5625V107H150.017V92.3258H151.724V99.4321L158.338 92.3258H160.295L153.801 99.4521L160.576 107ZM168.707 107L168.376 105.434H168.295C167.747 106.123 167.198 106.592 166.649 106.839C166.107 107.08 165.428 107.201 164.612 107.201C163.521 107.201 162.665 106.92 162.042 106.358C161.427 105.796 161.119 104.996 161.119 103.959C161.119 101.737 162.895 100.573 166.449 100.466L168.315 100.406V99.7231C168.315 98.8599 168.128 98.2243 167.753 97.8161C167.385 97.4012 166.793 97.1938 165.977 97.1938C165.06 97.1938 164.023 97.4748 162.865 98.0369L162.353 96.7622C162.895 96.4678 163.488 96.2369 164.13 96.0696C164.779 95.9024 165.428 95.8187 166.077 95.8187C167.389 95.8187 168.359 96.1098 168.988 96.6919C169.624 97.2741 169.941 98.2075 169.941 99.4923V107H168.707ZM164.943 105.826C165.98 105.826 166.793 105.541 167.382 104.973C167.977 104.404 168.275 103.607 168.275 102.584V101.59L166.609 101.66C165.284 101.707 164.327 101.915 163.739 102.283C163.156 102.644 162.865 103.209 162.865 103.979C162.865 104.581 163.046 105.039 163.407 105.354C163.775 105.668 164.287 105.826 164.943 105.826ZM172.401 100.406C172.401 97.9968 172.756 96.1198 173.465 94.7749C174.174 93.4232 175.298 92.5801 176.837 92.2455C178.751 91.8373 180.437 91.5061 181.896 91.2519L182.207 92.7173C179.885 93.1054 178.226 93.4132 177.229 93.6407C176.258 93.8615 175.529 94.3834 175.041 95.2065C174.559 96.0295 174.295 97.1503 174.248 98.5689H174.368C174.783 98.0068 175.318 97.5652 175.974 97.244C176.63 96.9228 177.316 96.7622 178.032 96.7622C179.383 96.7622 180.437 97.2005 181.193 98.0771C181.949 98.9536 182.328 100.168 182.328 101.721C182.328 103.44 181.889 104.785 181.013 105.755C180.136 106.719 178.915 107.201 177.349 107.201C175.803 107.201 174.592 106.609 173.716 105.424C172.839 104.24 172.401 102.567 172.401 100.406ZM177.5 105.806C179.541 105.806 180.561 104.504 180.561 101.901C180.561 99.4187 179.634 98.1774 177.781 98.1774C177.272 98.1774 176.78 98.2845 176.305 98.4986C175.837 98.706 175.405 98.9837 175.011 99.3317C174.622 99.6796 174.321 100.038 174.107 100.406C174.107 102.165 174.385 103.507 174.94 104.431C175.496 105.347 176.349 105.806 177.5 105.806ZM186.393 95.9994V102.975L186.323 104.802L186.293 105.374L192.245 95.9994H194.322V107H192.766V100.275L192.797 98.9503L192.847 97.6455L186.905 107H184.827V95.9994H186.393ZM199.11 95.9994V100.606H205.273V95.9994H206.939V107H205.273V102.042H199.11V107H197.444V95.9994H199.11ZM214.708 107.201C213.082 107.201 211.798 106.706 210.854 105.715C209.917 104.725 209.449 103.35 209.449 101.59C209.449 99.8168 209.884 98.4083 210.754 97.3644C211.63 96.3206 212.805 95.7986 214.277 95.7986C215.655 95.7986 216.746 96.2537 217.549 97.1637C218.352 98.067 218.753 99.2614 218.753 100.747V101.801H211.175C211.209 103.092 211.533 104.073 212.149 104.742C212.771 105.411 213.644 105.745 214.769 105.745C215.953 105.745 217.124 105.498 218.282 105.003V106.488C217.693 106.742 217.134 106.923 216.605 107.03C216.083 107.144 215.451 107.201 214.708 107.201ZM214.257 97.1938C213.373 97.1938 212.667 97.4815 212.139 98.057C211.617 98.6324 211.309 99.4287 211.215 100.446H216.967C216.967 99.3953 216.732 98.5923 216.264 98.0369C215.796 97.4748 215.127 97.1938 214.257 97.1938ZM228.61 97.4246H225.037V107H223.371V97.4246H219.838V95.9994H228.61V97.4246ZM233.559 95.9994H235.346L237.755 102.273C238.283 103.704 238.611 104.738 238.738 105.374H238.819C238.906 105.033 239.086 104.451 239.361 103.628C239.642 102.798 240.552 100.255 242.091 95.9994H243.877L239.15 108.526C238.681 109.764 238.133 110.64 237.504 111.155C236.881 111.677 236.115 111.938 235.205 111.938C234.697 111.938 234.195 111.881 233.7 111.768V110.433C234.068 110.513 234.479 110.553 234.934 110.553C236.078 110.553 236.895 109.911 237.383 108.626L237.996 107.06L233.559 95.9994ZM246.919 107H245.253V95.9994H254.487V107H252.801V97.4447H246.919V107ZM262.728 107.201C262.012 107.201 261.356 107.07 260.76 106.809C260.172 106.542 259.676 106.133 259.275 105.585H259.154C259.235 106.227 259.275 106.836 259.275 107.412V111.938H257.609V95.9994H258.964L259.195 97.5049H259.275C259.703 96.9027 260.202 96.4678 260.77 96.2001C261.339 95.9325 261.992 95.7986 262.728 95.7986C264.186 95.7986 265.31 96.2971 266.1 97.2942C266.896 98.2912 267.294 99.6897 267.294 101.49C267.294 103.296 266.89 104.702 266.08 105.705C265.277 106.702 264.16 107.201 262.728 107.201ZM262.487 97.2139C261.363 97.2139 260.55 97.525 260.048 98.1473C259.546 98.7696 259.288 99.7599 259.275 101.118V101.49C259.275 103.035 259.532 104.143 260.048 104.812C260.563 105.474 261.389 105.806 262.527 105.806C263.477 105.806 264.22 105.421 264.755 104.651C265.297 103.882 265.568 102.821 265.568 101.47C265.568 100.098 265.297 99.0473 264.755 98.3179C264.22 97.5819 263.464 97.2139 262.487 97.2139ZM276.569 107L276.238 105.434H276.158C275.609 106.123 275.06 106.592 274.512 106.839C273.97 107.08 273.29 107.201 272.474 107.201C271.383 107.201 270.527 106.92 269.905 106.358C269.289 105.796 268.981 104.996 268.981 103.959C268.981 101.737 270.758 100.573 274.311 100.466L276.178 100.406V99.7231C276.178 98.8599 275.99 98.2243 275.616 97.8161C275.248 97.4012 274.655 97.1938 273.839 97.1938C272.922 97.1938 271.885 97.4748 270.728 98.0369L270.216 96.7622C270.758 96.4678 271.35 96.2369 271.992 96.0696C272.641 95.9024 273.29 95.8187 273.939 95.8187C275.251 95.8187 276.221 96.1098 276.85 96.6919C277.486 97.2741 277.804 98.2075 277.804 99.4923V107H276.569ZM272.805 105.826C273.842 105.826 274.655 105.541 275.244 104.973C275.84 104.404 276.138 103.607 276.138 102.584V101.59L274.471 101.66C273.146 101.707 272.19 101.915 271.601 102.283C271.019 102.644 270.728 103.209 270.728 103.979C270.728 104.581 270.908 105.039 271.27 105.354C271.638 105.668 272.149 105.826 272.805 105.826ZM289.758 98.7596C289.758 99.4756 289.551 100.021 289.136 100.396C288.728 100.764 288.152 101.011 287.41 101.138V101.229C288.346 101.356 289.029 101.63 289.457 102.052C289.892 102.473 290.11 103.055 290.11 103.798C290.11 104.822 289.731 105.612 288.975 106.167C288.226 106.722 287.129 107 285.683 107H280.835V95.9994H285.663C288.393 95.9994 289.758 96.9194 289.758 98.7596ZM288.443 103.688C288.443 103.092 288.216 102.661 287.761 102.393C287.313 102.119 286.566 101.981 285.523 101.981H282.501V105.605H285.563C287.483 105.605 288.443 104.966 288.443 103.688ZM288.132 98.9202C288.132 98.3849 287.925 98.0068 287.51 97.786C287.102 97.5585 286.479 97.4447 285.643 97.4447H282.501V100.546H285.322C286.352 100.546 287.078 100.419 287.5 100.165C287.921 99.9105 288.132 99.4956 288.132 98.9202ZM300.328 107H298.641V97.4246H295.339C295.159 99.8068 294.908 101.697 294.586 103.096C294.265 104.494 293.847 105.518 293.332 106.167C292.823 106.816 292.174 107.141 291.385 107.141C291.023 107.141 290.736 107.1 290.521 107.02V105.786C290.669 105.826 290.836 105.846 291.023 105.846C291.793 105.846 292.405 105.033 292.86 103.407C293.315 101.781 293.66 99.3116 293.894 95.9994H300.328V107ZM308.107 107.201C306.481 107.201 305.196 106.706 304.253 105.715C303.316 104.725 302.847 103.35 302.847 101.59C302.847 99.8168 303.282 98.4083 304.152 97.3644C305.029 96.3206 306.203 95.7986 307.675 95.7986C309.054 95.7986 310.144 96.2537 310.947 97.1637C311.75 98.067 312.152 99.2614 312.152 100.747V101.801H304.574C304.607 103.092 304.932 104.073 305.547 104.742C306.17 105.411 307.043 105.745 308.167 105.745C309.351 105.745 310.522 105.498 311.68 105.003V106.488C311.091 106.742 310.532 106.923 310.004 107.03C309.482 107.144 308.85 107.201 308.107 107.201ZM307.655 97.1938C306.772 97.1938 306.066 97.4815 305.537 98.057C305.015 98.6324 304.708 99.4287 304.614 100.446H310.365C310.365 99.3953 310.131 98.5923 309.663 98.0369C309.194 97.4748 308.525 97.1938 307.655 97.1938ZM316.257 95.9994V100.606H322.42V95.9994H324.086V107H322.42V102.042H316.257V107H314.591V95.9994H316.257ZM328.774 95.9994V102.975L328.704 104.802L328.674 105.374L334.626 95.9994H336.703V107H335.147V100.275L335.178 98.9503L335.228 97.6455L329.286 107H327.208V95.9994H328.774ZM340.377 107H338.43L341.592 102.353C340.742 102.165 340.089 101.804 339.634 101.269C339.186 100.727 338.962 100.048 338.962 99.2313C338.962 98.2276 339.3 97.438 339.976 96.8626C340.651 96.2871 341.595 95.9994 342.806 95.9994H347.704V107H346.038V102.604H343.258L340.377 107ZM340.588 99.2514C340.588 100.523 341.511 101.158 343.358 101.158H346.038V97.4447H343.017C341.398 97.4447 340.588 98.0469 340.588 99.2514ZM154.885 135.201C154.169 135.201 153.514 135.07 152.918 134.809C152.329 134.542 151.834 134.133 151.433 133.585H151.312C151.393 134.227 151.433 134.836 151.433 135.412V139.938H149.767V123.999H151.122L151.352 125.505H151.433C151.861 124.903 152.359 124.468 152.928 124.2C153.497 123.932 154.149 123.799 154.885 123.799C156.344 123.799 157.468 124.297 158.258 125.294C159.054 126.291 159.452 127.69 159.452 129.49C159.452 131.296 159.047 132.702 158.238 133.705C157.435 134.702 156.317 135.201 154.885 135.201ZM154.645 125.214C153.52 125.214 152.707 125.525 152.206 126.147C151.704 126.77 151.446 127.76 151.433 129.118V129.49C151.433 131.035 151.69 132.143 152.206 132.812C152.721 133.474 153.547 133.806 154.685 133.806C155.635 133.806 156.378 133.421 156.913 132.651C157.455 131.882 157.726 130.821 157.726 129.47C157.726 128.098 157.455 127.047 156.913 126.318C156.378 125.582 155.621 125.214 154.645 125.214ZM166.609 135.201C164.983 135.201 163.698 134.706 162.755 133.715C161.818 132.725 161.35 131.35 161.35 129.59C161.35 127.817 161.785 126.408 162.655 125.364C163.531 124.321 164.705 123.799 166.178 123.799C167.556 123.799 168.647 124.254 169.45 125.164C170.253 126.067 170.654 127.261 170.654 128.747V129.801H163.076C163.11 131.092 163.434 132.073 164.05 132.742C164.672 133.411 165.545 133.745 166.669 133.745C167.854 133.745 169.025 133.498 170.182 133.003V134.488C169.593 134.742 169.035 134.923 168.506 135.03C167.984 135.144 167.352 135.201 166.609 135.201ZM166.157 125.194C165.274 125.194 164.568 125.482 164.04 126.057C163.518 126.632 163.21 127.429 163.116 128.446H168.867C168.867 127.395 168.633 126.592 168.165 126.037C167.696 125.475 167.027 125.194 166.157 125.194ZM177.49 135.201C175.897 135.201 174.663 134.712 173.786 133.735C172.916 132.752 172.481 131.363 172.481 129.57C172.481 127.73 172.923 126.308 173.806 125.304C174.696 124.3 175.961 123.799 177.6 123.799C178.129 123.799 178.657 123.856 179.186 123.969C179.715 124.083 180.129 124.217 180.431 124.371L179.919 125.786C179.551 125.639 179.149 125.518 178.714 125.425C178.279 125.324 177.895 125.274 177.56 125.274C175.325 125.274 174.208 126.699 174.208 129.55C174.208 130.902 174.479 131.939 175.021 132.661C175.569 133.384 176.379 133.745 177.45 133.745C178.366 133.745 179.306 133.548 180.27 133.153V134.629C179.534 135.01 178.607 135.201 177.49 135.201ZM180.732 123.999H182.519L184.928 130.273C185.456 131.704 185.784 132.738 185.911 133.374H185.991C186.078 133.033 186.259 132.451 186.533 131.628C186.815 130.798 187.725 128.255 189.264 123.999H191.05L186.323 136.526C185.854 137.764 185.306 138.64 184.677 139.155C184.054 139.677 183.288 139.938 182.378 139.938C181.87 139.938 181.368 139.881 180.873 139.768V138.433C181.241 138.513 181.652 138.553 182.107 138.553C183.251 138.553 184.068 137.911 184.556 136.626L185.168 135.06L180.732 123.999ZM197.545 135.201C196.829 135.201 196.173 135.07 195.577 134.809C194.988 134.542 194.493 134.133 194.092 133.585H193.971C194.052 134.227 194.092 134.836 194.092 135.412V139.938H192.426V123.999H193.781L194.011 125.505H194.092C194.52 124.903 195.019 124.468 195.587 124.2C196.156 123.932 196.808 123.799 197.545 123.799C199.003 123.799 200.127 124.297 200.917 125.294C201.713 126.291 202.111 127.69 202.111 129.49C202.111 131.296 201.707 132.702 200.897 133.705C200.094 134.702 198.976 135.201 197.545 135.201ZM197.304 125.214C196.179 125.214 195.366 125.525 194.865 126.147C194.363 126.77 194.105 127.76 194.092 129.118V129.49C194.092 131.035 194.349 132.143 194.865 132.812C195.38 133.474 196.206 133.806 197.344 133.806C198.294 133.806 199.037 133.421 199.572 132.651C200.114 131.882 200.385 130.821 200.385 129.47C200.385 128.098 200.114 127.047 199.572 126.318C199.037 125.582 198.281 125.214 197.304 125.214ZM209.017 135.201C207.425 135.201 206.19 134.712 205.314 133.735C204.444 132.752 204.009 131.363 204.009 129.57C204.009 127.73 204.45 126.308 205.334 125.304C206.224 124.3 207.488 123.799 209.128 123.799C209.656 123.799 210.185 123.856 210.714 123.969C211.242 124.083 211.657 124.217 211.958 124.371L211.446 125.786C211.078 125.639 210.677 125.518 210.242 125.425C209.807 125.324 209.422 125.274 209.088 125.274C206.853 125.274 205.735 126.699 205.735 129.55C205.735 130.902 206.006 131.939 206.548 132.661C207.097 133.384 207.907 133.745 208.977 133.745C209.894 133.745 210.834 133.548 211.798 133.153V134.629C211.062 135.01 210.135 135.201 209.017 135.201ZM220.771 135L220.44 133.434H220.36C219.811 134.123 219.262 134.592 218.713 134.839C218.171 135.08 217.492 135.201 216.676 135.201C215.585 135.201 214.729 134.92 214.106 134.358C213.491 133.796 213.183 132.996 213.183 131.959C213.183 129.737 214.96 128.573 218.513 128.466L220.38 128.406V127.723C220.38 126.86 220.192 126.224 219.818 125.816C219.45 125.401 218.857 125.194 218.041 125.194C217.124 125.194 216.087 125.475 214.93 126.037L214.418 124.762C214.96 124.468 215.552 124.237 216.194 124.07C216.843 123.902 217.492 123.819 218.141 123.819C219.453 123.819 220.423 124.11 221.052 124.692C221.688 125.274 222.006 126.208 222.006 127.492V135H220.771ZM217.007 133.826C218.044 133.826 218.857 133.541 219.446 132.973C220.042 132.404 220.34 131.607 220.34 130.584V129.59L218.673 129.66C217.348 129.707 216.392 129.915 215.803 130.283C215.221 130.644 214.93 131.209 214.93 131.979C214.93 132.581 215.11 133.039 215.472 133.354C215.84 133.668 216.351 133.826 217.007 133.826ZM230.748 133.394L231.059 132.461L231.491 131.276L234.472 124.019H236.59V135H235.114V125.916L234.914 126.499L234.332 128.034L231.491 135H230.096L227.255 128.014C226.901 127.118 226.657 126.418 226.523 125.916V135H225.037V124.019H227.075L229.955 130.995C230.243 131.731 230.507 132.531 230.748 133.394ZM241.308 123.999V130.975L241.237 132.802L241.207 133.374L247.159 123.999H249.237V135H247.681V128.275L247.711 126.95L247.762 125.645L241.82 135H239.742V123.999H241.308ZM263.822 121.641C262.209 121.641 260.934 122.179 259.998 123.257C259.067 124.327 258.602 125.796 258.602 127.663C258.602 129.583 259.051 131.069 259.947 132.119C260.851 133.163 262.135 133.685 263.802 133.685C264.825 133.685 265.993 133.501 267.305 133.133V134.629C266.287 135.01 265.033 135.201 263.541 135.201C261.379 135.201 259.71 134.545 258.532 133.233C257.361 131.922 256.776 130.058 256.776 127.643C256.776 126.131 257.057 124.806 257.619 123.668C258.188 122.531 259.004 121.654 260.068 121.038C261.138 120.423 262.396 120.115 263.842 120.115C265.381 120.115 266.726 120.396 267.877 120.958L267.154 122.424C266.043 121.902 264.932 121.641 263.822 121.641ZM269.272 128.406C269.272 125.997 269.627 124.12 270.336 122.775C271.045 121.423 272.17 120.58 273.709 120.246C275.622 119.837 277.309 119.506 278.767 119.252L279.078 120.717C276.756 121.105 275.097 121.413 274.1 121.641C273.13 121.861 272.4 122.383 271.912 123.206C271.43 124.029 271.166 125.15 271.119 126.569H271.239C271.654 126.007 272.19 125.565 272.845 125.244C273.501 124.923 274.187 124.762 274.903 124.762C276.255 124.762 277.309 125.2 278.065 126.077C278.821 126.954 279.199 128.168 279.199 129.721C279.199 131.44 278.761 132.785 277.884 133.755C277.007 134.719 275.786 135.201 274.22 135.201C272.675 135.201 271.464 134.609 270.587 133.424C269.71 132.24 269.272 130.567 269.272 128.406ZM274.371 133.806C276.412 133.806 277.432 132.504 277.432 129.901C277.432 127.419 276.506 126.177 274.652 126.177C274.144 126.177 273.652 126.284 273.177 126.499C272.708 126.706 272.277 126.984 271.882 127.332C271.494 127.68 271.193 128.038 270.978 128.406C270.978 130.165 271.256 131.507 271.812 132.431C272.367 133.347 273.22 133.806 274.371 133.806ZM286.346 135.201C284.72 135.201 283.435 134.706 282.491 133.715C281.555 132.725 281.086 131.35 281.086 129.59C281.086 127.817 281.521 126.408 282.391 125.364C283.268 124.321 284.442 123.799 285.914 123.799C287.292 123.799 288.383 124.254 289.186 125.164C289.989 126.067 290.391 127.261 290.391 128.747V129.801H282.813C282.846 131.092 283.171 132.073 283.786 132.742C284.408 133.411 285.282 133.745 286.406 133.745C287.59 133.745 288.761 133.498 289.919 133.003V134.488C289.33 134.742 288.771 134.923 288.243 135.03C287.721 135.144 287.088 135.201 286.346 135.201ZM285.894 125.194C285.011 125.194 284.305 125.482 283.776 126.057C283.254 126.632 282.946 127.429 282.853 128.446H288.604C288.604 127.395 288.37 126.592 287.901 126.037C287.433 125.475 286.764 125.194 285.894 125.194ZM297.949 135.201C297.233 135.201 296.577 135.07 295.982 134.809C295.393 134.542 294.898 134.133 294.496 133.585H294.376C294.456 134.227 294.496 134.836 294.496 135.412V139.938H292.83V123.999H294.185L294.416 125.505H294.496C294.924 124.903 295.423 124.468 295.992 124.2C296.56 123.932 297.213 123.799 297.949 123.799C299.408 123.799 300.532 124.297 301.321 125.294C302.118 126.291 302.516 127.69 302.516 129.49C302.516 131.296 302.111 132.702 301.301 133.705C300.498 134.702 299.381 135.201 297.949 135.201ZM297.708 125.214C296.584 125.214 295.771 125.525 295.269 126.147C294.767 126.77 294.51 127.76 294.496 129.118V129.49C294.496 131.035 294.754 132.143 295.269 132.812C295.784 133.474 296.611 133.806 297.748 133.806C298.698 133.806 299.441 133.421 299.976 132.651C300.518 131.882 300.789 130.821 300.789 129.47C300.789 128.098 300.518 127.047 299.976 126.318C299.441 125.582 298.685 125.214 297.708 125.214ZM311.79 135L311.459 133.434H311.379C310.83 134.123 310.281 134.592 309.733 134.839C309.191 135.08 308.512 135.201 307.695 135.201C306.605 135.201 305.748 134.92 305.126 134.358C304.51 133.796 304.202 132.996 304.202 131.959C304.202 129.737 305.979 128.573 309.532 128.466L311.399 128.406V127.723C311.399 126.86 311.212 126.224 310.837 125.816C310.469 125.401 309.877 125.194 309.06 125.194C308.144 125.194 307.106 125.475 305.949 126.037L305.437 124.762C305.979 124.468 306.571 124.237 307.213 124.07C307.863 123.902 308.512 123.819 309.161 123.819C310.472 123.819 311.442 124.11 312.071 124.692C312.707 125.274 313.025 126.208 313.025 127.492V135H311.79ZM308.026 133.826C309.064 133.826 309.877 133.541 310.465 132.973C311.061 132.404 311.359 131.607 311.359 130.584V129.59L309.693 129.66C308.368 129.707 307.411 129.915 306.822 130.283C306.24 130.644 305.949 131.209 305.949 131.979C305.949 132.581 306.129 133.039 306.491 133.354C306.859 133.668 307.371 133.826 308.026 133.826Z" fill="#3E3E3E"/>
</svg>
