<svg width="1618" height="279" viewBox="0 0 1618 279" fill="none" xmlns="http://www.w3.org/2000/svg">
<rect x="1028.88" y="91.066" width="23.5576" height="4.07608" rx="2.03804" transform="rotate(-90 1028.88 91.066)" fill="#69F8D2" fill-opacity="0.2"/>
<rect width="16.4219" height="4.07608" rx="2.03804" transform="matrix(-1.09317e-07 1 1 1.74784e-08 1613 -0.00012207)" fill="#69F8D2" fill-opacity="0.2"/>
<rect x="267.401" y="96.0175" width="48.8821" height="4.07608" rx="2.03804" transform="rotate(-90 267.401 96.0175)" fill="#69F8D2" fill-opacity="0.2"/>
<rect x="1316" y="189" width="42" height="4" rx="2" transform="rotate(-90 1316 189)" fill="#69F8D2" fill-opacity="0.2"/>
<path d="M2.4565 91.0662C1.33092 91.0662 0.418457 90.1537 0.418457 89.0281L0.418455 69.5466C0.418455 68.421 1.33092 67.5085 2.45649 67.5085V67.5085C3.58207 67.5085 4.49453 68.421 4.49453 69.5466L4.49453 89.0281C4.49453 90.1537 3.58207 91.0662 2.4565 91.0662V91.0662Z" fill="#69F8D2" fill-opacity="0.2"/>
<rect x="120.663" y="279" width="26.5023" height="4.07608" rx="2.03804" transform="rotate(-90 120.663 279)" fill="#69F8D2" fill-opacity="0.2"/>
<rect x="302.048" y="236.932" width="12.9567" height="4.07608" rx="2.03804" transform="rotate(-90 302.048 236.932)" fill="#69F8D2" fill-opacity="0.2"/>
<rect x="728" y="88.4038" width="42.4038" height="4.07608" rx="2.03804" transform="rotate(-90 728 88.4038)" fill="#69F8D2" fill-opacity="0.2"/>
<rect x="1149.13" y="279" width="26.5023" height="4.07608" rx="2.03804" transform="rotate(-90 1149.13 279)" fill="#69F8D2" fill-opacity="0.2"/>
<rect width="20.3733" height="4.07608" rx="2.03804" transform="matrix(-1.09317e-07 1 1 1.74784e-08 1471 86)" fill="#69F8D2" fill-opacity="0.2"/>
<rect width="36" height="4.47158" rx="2.23579" transform="matrix(9.49454e-08 -1 -1 -2.0124e-08 825.364 68)" fill="#69F8D2" fill-opacity="0.2"/>
<rect width="61.9552" height="4.07608" rx="2.03804" transform="matrix(-1.09317e-07 1 1 1.74784e-08 538.461 195.432)" fill="#69F8D2" fill-opacity="0.2"/>
<rect width="61.9552" height="4.07608" rx="2.03804" transform="matrix(-1.09317e-07 1 1 1.74784e-08 1566.92 195.432)" fill="#69F8D2" fill-opacity="0.2"/>
<rect width="30.5139" height="4.07608" rx="2.03804" transform="matrix(9.49454e-08 -1 -1 -2.0124e-08 972.236 279)" fill="#69F8D2" fill-opacity="0.2"/>
<rect width="23" height="4.47158" rx="2.23579" transform="matrix(-9.49454e-08 -1 -1 2.0124e-08 595.078 136)" fill="#69F8D2" fill-opacity="0.2"/>
</svg>
