<svg width="1402" height="147" viewBox="0 0 1402 147" fill="none" xmlns="http://www.w3.org/2000/svg">
<path fill-rule="evenodd" clip-rule="evenodd" d="M19.0769 0H11.9231V40.9532C5.08709 42.5679 0 48.7091 0 56.0384C0 64.5988 6.93959 71.5384 15.5 71.5384C24.0604 71.5384 31 64.5988 31 56.0384C31 48.7091 25.9129 42.5679 19.0769 40.9531V0ZM21.4615 56.0384C21.4615 59.3309 18.7925 61.9999 15.5 61.9999C12.2075 61.9999 9.53846 59.3309 9.53846 56.0384C9.53846 52.7459 12.2075 50.0769 15.5 50.0769C18.7925 50.0769 21.4615 52.7459 21.4615 56.0384Z" fill="#2BC39D"/>
<path fill-rule="evenodd" clip-rule="evenodd" d="M373.908 49H367.936V105.006C360.014 106.417 354 113.339 354 121.666C354 131.012 361.576 138.588 370.922 138.588C380.268 138.588 387.844 131.012 387.844 121.666C387.844 113.339 381.83 106.417 373.908 105.006V49ZM378.414 121.666C378.414 125.804 375.06 129.158 370.922 129.158C366.785 129.158 363.43 125.804 363.43 121.666C363.43 117.528 366.785 114.174 370.922 114.174C375.06 114.174 378.414 117.528 378.414 121.666Z" fill="#2BC39D"/>
<path fill-rule="evenodd" clip-rule="evenodd" d="M110.533 17H107.333V35.3188C104.276 36.0411 102 38.7881 102 42.0666C102 45.8958 105.104 49 108.933 49C112.763 49 115.867 45.8958 115.867 42.0666C115.867 38.7881 113.591 36.0411 110.533 35.3188V17ZM111.503 42.0666C111.503 43.4858 110.353 44.6363 108.933 44.6363C107.514 44.6363 106.364 43.4858 106.364 42.0666C106.364 40.6474 107.514 39.4969 108.933 39.4969C110.353 39.4969 111.503 40.6474 111.503 42.0666Z" fill="#2BC39D"/>
<circle cx="247.276" cy="96.2763" r="5.19737" stroke="#2BC39D" stroke-width="4.15789"/>
<circle cx="425.158" cy="68.1579" r="3.11842" stroke="#2BC39D" stroke-width="2.07895"/>
<circle cx="76.2763" cy="119.276" r="5.19737" stroke="#2BC39D" stroke-width="4.15789"/>
<path fill-rule="evenodd" clip-rule="evenodd" d="M1382.24 0H1389.39V40.9532C1396.23 42.5679 1401.32 48.7091 1401.32 56.0384C1401.32 64.5988 1394.38 71.5384 1385.82 71.5384C1377.26 71.5384 1370.32 64.5988 1370.32 56.0384C1370.32 48.7091 1375.4 42.5679 1382.24 40.9531V0ZM1379.85 56.0384C1379.85 59.3309 1382.52 61.9999 1385.82 61.9999C1389.11 61.9999 1391.78 59.3309 1391.78 56.0384C1391.78 52.7459 1389.11 50.0769 1385.82 50.0769C1382.52 50.0769 1379.85 52.7459 1379.85 56.0384Z" fill="#2BC39D"/>
<path fill-rule="evenodd" clip-rule="evenodd" d="M1081 49H1085V120.976C1091.23 121.938 1096 127.324 1096 133.824C1096 141.003 1090.18 146.823 1083 146.823C1075.82 146.823 1070 141.003 1070 133.824C1070 127.324 1074.77 121.938 1081 120.976V49ZM1077.24 133.824C1077.24 137.002 1079.82 139.579 1083 139.579C1086.18 139.579 1088.76 137.002 1088.76 133.824C1088.76 130.645 1086.18 128.068 1083 128.068C1079.82 128.068 1077.24 130.645 1077.24 133.824Z" fill="#2BC39D"/>
<path fill-rule="evenodd" clip-rule="evenodd" d="M1290.78 17H1293.98V35.3188C1297.04 36.0411 1299.32 38.7881 1299.32 42.0666C1299.32 45.8958 1296.21 49 1292.38 49C1288.55 49 1285.45 45.8958 1285.45 42.0666C1285.45 38.7881 1287.72 36.0411 1290.78 35.3188V17ZM1289.81 42.0666C1289.81 43.4858 1290.96 44.6363 1292.38 44.6363C1293.8 44.6363 1294.95 43.4858 1294.95 42.0666C1294.95 40.6474 1293.8 39.4969 1292.38 39.4969C1290.96 39.4969 1289.81 40.6474 1289.81 42.0666Z" fill="#2BC39D"/>
<circle r="5.19737" transform="matrix(-1 0 0 1 1154.04 96.2763)" stroke="#2BC39D" stroke-width="4.15789"/>
<circle r="3.11842" transform="matrix(-1 0 0 1 977.158 77.1579)" stroke="#2BC39D" stroke-width="2.07895"/>
<circle r="5.19737" transform="matrix(-1 0 0 1 1325.04 119.276)" stroke="#2BC39D" stroke-width="4.15789"/>
</svg>
