<svg width="1571" height="247" viewBox="0 0 1571 247" fill="none" xmlns="http://www.w3.org/2000/svg">
<path d="M2.4565 59.0662C1.33092 59.0662 0.418457 58.1537 0.418457 57.0281L0.418455 37.5466C0.418455 36.421 1.33092 35.5085 2.45649 35.5085V35.5085C3.58207 35.5085 4.49453 36.421 4.49453 37.5466L4.49453 57.0281C4.49453 58.1537 3.58207 59.0662 2.4565 59.0662V59.0662Z" fill="#69F8D2" fill-opacity="0.2"/>
<rect x="120.663" y="247" width="26.5023" height="4.07608" rx="2.03804" transform="rotate(-90 120.663 247)" fill="#69F8D2" fill-opacity="0.2"/>
<rect x="302.048" y="204.932" width="12.9567" height="4.07608" rx="2.03804" transform="rotate(-90 302.048 204.932)" fill="#69F8D2" fill-opacity="0.2"/>
<rect x="728" y="56.4038" width="42.4038" height="4.07608" rx="2.03804" transform="rotate(-90 728 56.4038)" fill="#69F8D2" fill-opacity="0.2"/>
<rect x="1149.13" y="247" width="26.5023" height="4.07608" rx="2.03804" transform="rotate(-90 1149.13 247)" fill="#69F8D2" fill-opacity="0.2"/>
<rect width="20.3733" height="4.07608" rx="2.03804" transform="matrix(-1.09317e-07 1 1 1.74784e-08 1471 54)" fill="#69F8D2" fill-opacity="0.2"/>
<rect width="36" height="4.47158" rx="2.23579" transform="matrix(9.49454e-08 -1 -1 -2.0124e-08 825.364 36)" fill="#69F8D2" fill-opacity="0.2"/>
<rect width="61.9552" height="4.07608" rx="2.03804" transform="matrix(-1.09317e-07 1 1 1.74784e-08 538.461 163.432)" fill="#69F8D2" fill-opacity="0.2"/>
<rect width="61.9552" height="4.07608" rx="2.03804" transform="matrix(-1.09317e-07 1 1 1.74784e-08 1566.92 163.432)" fill="#69F8D2" fill-opacity="0.2"/>
<rect width="30.5139" height="4.07608" rx="2.03804" transform="matrix(9.49454e-08 -1 -1 -2.0124e-08 972.236 247)" fill="#69F8D2" fill-opacity="0.2"/>
<rect width="23" height="4.47158" rx="2.23579" transform="matrix(-9.49454e-08 -1 -1 2.0124e-08 595.078 104)" fill="#69F8D2" fill-opacity="0.2"/>
</svg>
