<svg width="42" height="46" viewBox="0 0 42 46" fill="none" xmlns="http://www.w3.org/2000/svg">
<path d="M40.6605 25.7093C41.5539 24.3452 42 22.8436 42 21.2034C42 19.305 41.308 17.6562 39.9229 16.2542C38.5372 14.8536 36.8964 14.1535 35.0007 14.1535H30.188C31.0628 12.3292 31.501 10.5598 31.501 8.84614C31.501 6.68981 31.1811 4.97607 30.5436 3.70441C29.9055 2.43236 28.9756 1.49735 27.7541 0.89812C26.5323 0.29918 25.1564 0 23.6252 0C22.695 0 21.875 0.34091 21.1641 1.02302C20.3803 1.79692 19.8152 2.79234 19.469 4.00872C19.1225 5.2247 18.8444 6.39054 18.635 7.50554C18.4255 8.62044 18.1016 9.40828 17.6643 9.86896C16.7708 10.8457 15.7956 12.0255 14.7383 13.4075C12.8971 15.8215 11.6482 17.2499 10.9923 17.6924H3.50006C2.53389 17.6924 1.7089 18.0384 1.02526 18.7289C0.341913 19.4202 0 20.2541 0 21.2309V38.9225C0 39.8993 0.34153 40.733 1.02526 41.4242C1.70928 42.1154 2.53389 42.4613 3.50006 42.4613H11.3747C11.7758 42.4613 13.0334 42.8298 15.1481 43.567C17.3905 44.3595 19.3638 44.9629 21.0681 45.3777C22.7726 45.7925 24.4999 46 26.25 46H28.7924H29.7773C32.3475 46 34.4164 45.2578 35.9843 43.7741C37.5517 42.2904 38.3268 40.2679 38.3088 37.7062C39.4025 36.2871 39.9493 34.6469 39.9493 32.7858C39.9493 32.3806 39.9224 31.9844 39.8674 31.5971C40.5598 30.3628 40.9069 29.0358 40.9069 27.6167C40.9066 26.9532 40.8248 26.3171 40.6605 25.7093ZM6.48065 38.3976C6.13433 38.7476 5.72422 38.9232 5.25024 38.9232C4.77616 38.9232 4.36596 38.7477 4.01954 38.3976C3.67332 38.0478 3.50006 37.633 3.50006 37.1535C3.50006 36.6744 3.67294 36.2599 4.01954 35.9096C4.36634 35.5594 4.77616 35.3843 5.25024 35.3843C5.72422 35.3843 6.13433 35.5594 6.48065 35.9096C6.82706 36.2598 7.00032 36.6743 7.00032 37.1535C7.00032 37.633 6.82706 38.0478 6.48065 38.3976ZM37.9133 23.4715C37.5213 24.3191 37.0335 24.7521 36.4503 24.7703C36.7236 25.0838 36.9517 25.5219 37.134 26.0834C37.3162 26.6457 37.4067 27.1569 37.4067 27.6179C37.4067 28.8889 36.9243 29.9857 35.958 30.9068C36.2865 31.4963 36.4504 32.1324 36.4504 32.8139C36.4504 33.4958 36.2911 34.1731 35.9719 34.8456C35.6532 35.5176 35.22 36.0015 34.6733 36.2962C34.7644 36.849 34.8096 37.3651 34.8096 37.8442C34.8096 40.9217 33.0594 42.4605 29.5589 42.4605H26.2513C23.8627 42.4605 20.7459 41.7882 16.8991 40.4426C16.8079 40.4058 16.5439 40.3087 16.1061 40.1523C15.6684 39.996 15.3449 39.8807 15.1352 39.8072C14.9254 39.7329 14.6067 39.627 14.178 39.4891C13.7494 39.3506 13.4035 39.2491 13.139 39.1849C12.8748 39.1206 12.5738 39.0607 12.2369 39.0053C11.8997 38.95 11.6125 38.9225 11.3756 38.9225H10.5006V21.2316H11.3756C11.6672 21.2316 11.9907 21.1484 12.3462 20.983C12.7017 20.817 13.0665 20.5683 13.4401 20.2365C13.8139 19.9047 14.1645 19.5776 14.4928 19.2549C14.821 18.9325 15.1856 18.5271 15.5868 18.0389C15.9878 17.5503 16.3022 17.1589 16.5302 16.864C16.758 16.5691 17.045 16.1911 17.3914 15.7305C17.7376 15.2699 17.9475 14.9934 18.0204 14.9011C19.0228 13.6481 19.7247 12.8096 20.1257 12.3856C20.8731 11.5934 21.4154 10.5844 21.7526 9.35881C22.0902 8.13304 22.3681 6.9766 22.5861 5.88948C22.8047 4.80227 23.1515 4.01879 23.626 3.53962C25.3756 3.53962 26.5426 3.97251 27.1258 4.83877C27.7089 5.70484 28.0006 7.04108 28.0006 8.8471C28.0006 9.93432 27.5627 11.4132 26.6875 13.2836C25.8127 15.1542 25.3756 16.6239 25.3756 17.6928H35.0004C35.9129 17.6928 36.7237 18.0473 37.4344 18.7572C38.1456 19.4666 38.5016 20.2912 38.5016 21.2313C38.5013 21.8762 38.3052 22.6227 37.9133 23.4715Z" fill="#A4CEDA"/>
</svg>
