<svg width="48" height="71" viewBox="0 0 48 71" fill="none" xmlns="http://www.w3.org/2000/svg">
<path fill-rule="evenodd" clip-rule="evenodd" d="M41.4589 66.1783C41.1708 66.1785 40.8854 66.1215 40.6191 66.0108C40.3528 65.9001 40.1109 65.7377 39.907 65.533C39.7031 65.3283 39.5414 65.0852 39.431 64.8176C39.3206 64.5501 39.2637 64.2633 39.2636 63.9737C39.2635 63.6841 39.3201 63.3972 39.4303 63.1296C39.5405 62.862 39.702 62.6188 39.9057 62.4139C40.1094 62.209 40.3512 62.0464 40.6174 61.9355C40.8836 61.8245 41.169 61.7673 41.4571 61.7672C42.0391 61.767 42.5974 61.9991 43.0091 62.4126C43.4208 62.826 43.6522 63.3869 43.6525 63.9719C43.6527 64.5568 43.4217 65.1179 43.0104 65.5317C42.599 65.9455 42.0409 66.1781 41.4589 66.1783ZM10.8811 66.588C8.17682 66.0382 8.45577 59.8703 8.45577 59.8703L8.44852 45.2607C8.44852 45.2607 8.44671 40.3544 13.081 34.3995V61.2338C13.081 61.2338 13.5863 67.1332 10.8811 66.587V66.588ZM6.2858 20.3879C5.70356 20.3879 5.14518 20.1554 4.73348 19.7416C4.32178 19.3278 4.09048 18.7666 4.09048 18.1814C4.09048 17.5962 4.32178 17.035 4.73348 16.6212C5.14518 16.2074 5.70356 15.975 6.2858 15.975C6.86804 15.975 7.42643 16.2074 7.83813 16.6212C8.24984 17.035 8.48113 17.5962 8.48113 18.1814C8.48113 18.7666 8.24984 19.3278 7.83813 19.7416C7.42643 20.1554 6.86804 20.3879 6.2858 20.3879ZM41.4589 57.6629C40.9744 57.6629 40.5062 57.7293 40.0543 57.8331C37.9866 54.8802 26.4512 38.3691 25.6878 36.8517C24.85 35.1823 26.5119 32.8912 26.5119 32.8912L46.066 11.1151C46.066 11.1151 49.8644 5.7719 45.6938 1.96339C40.9581 -2.3576 35.1972 4.4666 35.1972 4.4666L17.0786 24.2173C17.0813 24.2173 16.8866 7.70984 16.3631 5.53342C15.6512 2.55597 13.522 0.785521 10.8956 0.785521C5.56128 0.785521 4.84853 5.44148 4.84853 5.44148C4.51071 6.71311 4.32777 11.8861 4.35041 12.2074C1.83811 13.0321 0.00866699 15.3778 0.00866699 18.1814C0.00866699 19.8549 0.6701 21.4599 1.84746 22.6432C3.02482 23.8265 4.62167 24.4913 6.28671 24.4913C7.95175 24.4913 9.54859 23.8265 10.7259 22.6432C11.9033 21.4599 12.5647 19.8549 12.5647 18.1814C12.5647 15.3942 10.7534 13.0549 8.25923 12.2211L8.43312 8.99148C8.43312 8.99148 8.36157 4.67687 10.9391 4.81705C13.3898 4.94994 13.081 9.16079 13.081 9.16079V28.3981C4.37396 37.7146 4.57682 44.4642 4.57682 44.4642L4.68007 61.2903C4.68007 61.2903 4.2363 70.2881 10.9934 70.2672C17.7524 70.2472 17.1999 61.6762 17.1999 61.6762L17.0786 30.0876L38.5645 6.3481C38.5645 6.3481 41.2597 3.32695 42.9804 5.17569C44.7003 7.02351 41.8719 10.0956 41.8719 10.0956C41.8719 10.0956 26.5201 27.1147 23.2896 31.1781C20.06 35.2396 23.0749 39.9092 23.0749 39.9092L36.7214 59.8739C35.7732 60.978 35.1791 62.3999 35.1791 63.9719C35.179 64.8008 35.3413 65.6216 35.6569 66.3874C35.9724 67.1532 36.435 67.8491 37.0182 68.4352C37.6013 69.0213 38.2936 69.4862 39.0556 69.8034C39.8176 70.1205 40.6342 70.2837 41.4589 70.2836C42.2898 70.2936 43.1144 70.1378 43.8848 69.8252C44.6553 69.5126 45.3564 69.0493 45.9475 68.4624C46.5385 67.8754 47.0078 67.1764 47.3281 66.4058C47.6484 65.6352 47.8133 64.8084 47.8133 63.9732C47.8133 63.1381 47.6484 62.3113 47.3281 61.5407C47.0078 60.7701 46.5385 60.0711 45.9475 59.4841C45.3564 58.8972 44.6553 58.4339 43.8848 58.1213C43.1144 57.8087 42.2898 57.6529 41.4589 57.6629Z" fill="url(#paint0_linear)"/>
<defs>
<linearGradient id="paint0_linear" x1="23.911" y1="0.529755" x2="23.911" y2="70.284" gradientUnits="userSpaceOnUse">
<stop stop-color="#DCF5F1"/>
<stop offset="1" stop-color="#BDF2E9"/>
</linearGradient>
</defs>
</svg>
