<svg width="333" height="331" viewBox="0 0 333 331" fill="none" xmlns="http://www.w3.org/2000/svg">
<path d="M211.374 301.698H198.426C198.161 306.225 197.927 310.21 197.666 314.643H184.959V275.721H158.723V248.838H171.529L171.3 248.594V261.444H210.685V235.313H184.589L184.821 235.545V222.031H171.3L171.532 222.263V208.665H224.244C224.512 203.929 224.738 199.949 224.993 195.447C229.763 195.447 233.857 195.447 237.952 195.447C237.953 199.736 237.953 204.031 237.953 208.33H263.817V195.682H237.716C237.719 191.193 237.723 186.704 237.726 182.214C242.017 182.214 246.311 182.214 250.608 182.214V169.607H237.961V182.451L211.166 182.188L211.398 182.419L211.398 168.906L211.167 169.138H224.687V155.625L224.455 155.856H250.629V142.754C246.155 142.508 242.183 142.29 237.976 142.058V129.062L237.749 129.305H251.479V103.019H264.505V155.369C269.315 155.664 273.31 155.908 277.869 156.187C277.869 160.906 277.869 165.012 277.868 169.119C273.577 169.119 269.285 169.119 264.971 169.119V181.72H277.633V168.883C282.131 168.972 286.629 169.061 291.127 169.15L290.899 168.906C290.984 182.257 291.069 195.609 291.154 208.96C286.863 208.961 282.565 208.961 278.261 208.961V221.563H290.919V208.724H304.587V235.429H332.542V248.71H318.146V261.991H332.542V330.058H251.148C251.105 316.195 251.061 302.332 251.017 288.468C255.435 288.565 259.852 288.662 264.27 288.76V301.701C274.151 301.701 282.628 301.701 291.104 301.701C291.105 306.003 291.105 310.305 291.105 314.499H317.194V289.026H304.622C304.364 293.465 304.133 297.455 303.873 301.936H290.868V275.858H278.1C277.781 280.416 277.503 284.391 277.234 288.232C272.271 288.526 268.159 288.77 264.056 289.004C264.065 284.521 264.065 280.049 264.065 275.897H251.253V288.705H238.323C238.029 284.119 237.772 280.121 237.49 275.712H224.974V288.691C219.812 288.691 215.502 288.691 211.191 288.691C211.191 284.402 211.191 280.108 211.191 275.809H198.578V288.456H211.427C211.331 292.948 211.235 297.441 211.138 301.933L211.374 301.698ZM263.809 261.659V222.553H225.05V261.659H263.809ZM291.456 249.079V261.475H303.712V249.079H291.456Z" fill="#4F4F4F"/>
<path d="M0.324463 235.429H91.6842V330.059H0.324463V235.429ZM12.3216 314.528H77.7345V249.15H12.3216V314.528Z" fill="#4F4F4F"/>
<path d="M332.542 89.3339H237.86V-1.97545H332.542V89.3339ZM317.003 75.683V10.3063H251.588V75.683H317.003Z" fill="#4F4F4F"/>
<path d="M91.6842 -1.97545V89.3339H0.324463V-1.97545H91.6842ZM78.0285 10.2351H12.615V75.6105H78.0285V10.2351Z" fill="#4F4F4F"/>
<path d="M0.324463 102.615H64.6753C64.9278 106.94 65.1594 110.906 65.4583 116.025H78.5074L78.2795 115.781C78.2795 120.285 78.2795 124.789 78.2795 129.294L78.5074 129.05H25.8105V142.392H64.7188V155.45H39.0413V168.751H51.2087V208.724H38.4333L38.6689 208.96V182.779C34.1174 182.489 30.1422 182.236 25.3264 181.93V155.991H12.3143V115.897H0.324463V102.615Z" fill="#4F4F4F"/>
<path d="M104.973 330.059V262.516H117.979V274.916H144.318C144.651 279.723 144.927 283.703 145.262 288.539H171.064V301.418C167.019 301.661 163.024 301.901 158.591 302.168V314.946H171.416V330.059H104.973ZM118.833 288.699V314.448H144.374V302.166C139.938 301.901 135.939 301.663 131.892 301.421C131.604 296.734 131.358 292.74 131.109 288.699H118.833Z" fill="#4F4F4F"/>
<path d="M291.127 169.15V155.93H317.136V142.901C313.401 142.66 309.404 142.401 304.857 142.107V103.092H317.428V129.178H332.542V169.022H318.146V182.303H332.542V208.866H317.984C317.647 203.738 317.385 199.754 317.128 195.854C312.486 195.628 308.712 195.445 304.108 195.222V168.906H290.899L291.127 169.15Z" fill="#4F4F4F"/>
<path d="M0.324463 169.022H11.4533V222.147H0.324463V169.022Z" fill="#4F4F4F"/>
<path d="M144.839 -1.97545V22.3508H131.55V-1.97545H144.839Z" fill="#4F4F4F"/>
<path d="M211.166 9.76148L211.282 -1.97545H224.571V9.76148H211.166Z" fill="#4F4F4F"/>
<path d="M171.416 -1.97545V9.11168H158.127V-1.97545H171.416Z" fill="#4F4F4F"/>
<path d="M158.012 115.781H171.005C171.248 111.526 171.475 107.542 171.729 103.098H237.749C237.749 111.899 237.749 120.602 237.749 129.306L237.976 129.062H224.455V155.856L224.687 155.625H211.167V169.138L211.398 168.906H198.312C198.044 164.056 197.825 160.082 197.578 155.625H184.589L184.821 155.856C184.853 151.448 184.884 147.04 184.916 142.631C189.196 142.434 193.476 142.237 198.264 142.017V129.602C202.804 129.284 206.794 129.004 210.676 128.732V116.579H185.17C185.17 125.794 185.17 134.324 185.16 142.845C180.533 142.672 175.913 142.505 171.3 142.343L171.545 142.571V129.593C167.072 129.346 163.094 129.126 158.012 128.846V115.781Z" fill="#4F4F4F"/>
<path d="M91.8123 155.852V142.874C87.3374 142.627 83.3591 142.407 78.5075 142.139C78.5075 137.643 78.5075 133.346 78.5075 129.05L78.2796 129.293C87.216 129.293 96.1525 129.293 105.089 129.293L104.845 129.066V142.031C109.355 142.291 113.342 142.52 117.845 142.78C118.112 146.997 118.363 150.977 118.65 155.507H144.19V168.776H118.112V208.969L118.349 208.734H105.398C105.141 204.459 104.901 200.472 104.611 195.649H78.788V182.651H91.8122V168.91L91.5684 169.138H104.41V155.625H91.5684L91.8123 155.852Z" fill="#4F4F4F"/>
<path d="M158.24 222.02H145.38V182.473H170.969V169.508C167.241 169.245 163.256 168.964 158.699 168.643V142.572C162.947 142.572 167.246 142.572 171.545 142.572L171.301 142.344V155.857H184.821L184.589 155.625V182.419H211.399L211.167 182.188V195.882H158.012V222.264L158.24 222.02Z" fill="#4F4F4F"/>
<path d="M78.5075 116.025V102.884H118.389V89.222L118.146 89.4497H131.666V75.9368L131.439 76.1803L144.951 76.1804L144.723 75.9367V89.4498H158.244L158 89.2218C158.081 98.1521 158.162 107.082 158.243 116.013C153.738 115.931 149.233 115.85 144.727 115.769L144.955 116.013V103.178H131.435V116.013L131.662 115.769H118.678C118.43 120.243 118.21 124.221 117.942 129.066C113.443 129.066 109.144 129.066 104.845 129.066L105.089 129.294V115.781H78.2796L78.5075 116.025Z" fill="#4F4F4F"/>
<path d="M117.8 221.757C118.046 225.874 118.293 229.991 118.593 234.996H144.249V248.219H105.409V221.98C109.898 221.98 113.976 221.98 118.064 221.989C118.074 221.998 117.8 221.757 117.8 221.757Z" fill="#4F4F4F"/>
<path d="M211.138 301.934H237.239V314.581H211.375C211.375 310.277 211.375 305.983 211.374 301.699C211.374 301.698 211.138 301.934 211.138 301.934Z" fill="#4F4F4F"/>
<path d="M144.727 115.769V141.871H131.662C131.662 133.206 131.662 124.487 131.662 115.769L131.434 116.012C135.941 116.012 140.448 116.012 144.955 116.012L144.727 115.769Z" fill="#4F4F4F"/>
<path d="M38.433 208.724V221.564H25.7768V208.96C30.0853 208.96 34.3825 208.96 38.6684 208.96C38.6687 208.96 38.433 208.724 38.433 208.724Z" fill="#4F4F4F"/>
<path d="M91.5336 209.533V221.519H78.9513V209.533H91.5336Z" fill="#4F4F4F"/>
<path d="M118.112 208.969H130.925V221.775C126.77 221.775 122.295 221.775 117.81 221.766C117.8 221.757 118.074 221.998 118.064 221.989C118.153 217.564 118.248 213.146 118.349 208.734C118.349 208.734 118.112 208.969 118.112 208.969Z" fill="#4F4F4F"/>
<path d="M171.528 235.301H158.24C158.24 230.658 158.24 226.339 158.24 222.02L158.012 222.264H171.532L171.3 222.032C171.3 226.536 171.3 231.041 171.3 235.545L171.528 235.301Z" fill="#4F4F4F"/>
<path d="M171.529 248.838C171.529 244.326 171.529 239.814 171.529 235.301L171.301 235.545C175.807 235.545 180.314 235.545 184.821 235.545L184.589 235.313V248.594H171.301L171.529 248.838Z" fill="#4F4F4F"/>
<path d="M91.812 168.91H78.9601V155.853C83.2117 155.853 87.5118 155.853 91.812 155.853L91.5681 155.625V169.138L91.812 168.91Z" fill="#4F4F4F"/>
<path d="M144.951 76.1802V63.0035H170.924V49.7469H158.735V23.4861H171.077C171.29 27.4957 171.501 31.4823 171.732 35.8201H184.361V22.8112C189.502 22.8112 193.806 22.8112 198.11 22.8112V35.8076C202.332 36.041 206.309 36.2608 211.155 36.5287V49.6017L211.398 49.3741H185.292V62.8867H211.399L211.155 62.6589L211.142 76.1463L211.378 75.9109H198.418C198.161 80.4224 197.935 84.4021 197.682 88.8472H184.985V76.697H171.794C171.588 80.3853 171.365 84.3632 171.094 89.2215C166.604 89.2215 162.302 89.2215 158 89.2216L158.244 89.4495V75.9365H144.723L144.951 76.1802Z" fill="#4F4F4F"/>
<path d="M290.573 142.089H278.315V129.692H290.573V142.089Z" fill="#4F4F4F"/>
<path d="M277.866 115.391V103.264H290.437V115.391H277.866Z" fill="#4F4F4F"/>
<path d="M211.142 76.1464H223.987V88.7994H211.379C211.379 84.4895 211.378 80.1935 211.378 75.9113C211.378 75.9109 211.142 76.1464 211.142 76.1464Z" fill="#4F4F4F"/>
<path d="M211.155 49.6018H224.006V62.659C219.754 62.659 215.454 62.659 211.155 62.659L211.399 62.8868C211.399 58.3826 211.399 53.8784 211.399 49.3742L211.155 49.6018Z" fill="#4F4F4F"/>
<path d="M197.878 23.0431V9.53018C202.769 9.53018 207.084 9.53018 211.398 9.53018V23.0431H197.878Z" fill="#4F4F4F"/>
<path d="M118.389 89.2216H105.514V63.0827C109.54 62.886 113.522 62.6914 117.866 62.4793V49.844H105.5V36.6573H144.454V49.0953C140.537 49.3157 136.548 49.5402 131.439 49.8277C131.439 58.7184 131.439 67.4491 131.439 76.1799L131.666 75.9364H118.146V89.4494L118.389 89.2216Z" fill="#4F4F4F"/>
<path d="M117.934 10.2437V22.4747H105.352V10.2437H117.934Z" fill="#4F4F4F"/>
<path d="M238.408 235.807H250.744V248.087H238.408V235.807Z" fill="#4F4F4F"/>
<path d="M64.7117 262.458V301.221H25.782V262.458H64.7117Z" fill="#4F4F4F"/>
<path d="M264.808 62.1858V23.3657H303.643V62.1858H264.808Z" fill="#4F4F4F"/>
<path d="M25.6476 62.2215V23.3302H64.4839V62.2215H25.6476Z" fill="#4F4F4F"/>
</svg>
