<svg width="29" height="29" viewBox="0 0 29 29" fill="none" xmlns="http://www.w3.org/2000/svg">
<path d="M21.8977 17.2411L20.7992 16.1426L21.8976 15.0442C22.2295 14.7124 22.2295 14.1744 21.8976 13.8426C21.5659 13.5108 21.0279 13.5108 20.6961 13.8426L19.5977 14.9411L18.4992 13.8426C18.1675 13.5108 17.6295 13.5108 17.2977 13.8426C16.9659 14.1744 16.9659 14.7123 17.2977 15.0441L18.3962 16.1426L17.2977 17.241C16.9659 17.5728 16.9659 18.1108 17.2977 18.4426C17.6295 18.7743 18.1675 18.7744 18.4993 18.4426L19.5977 17.3441L20.6962 18.4426C21.0279 18.7744 21.5659 18.7744 21.8977 18.4426C22.2295 18.1108 22.2295 17.5729 21.8977 17.2411Z" fill="#BDF2E9"/>
<path d="M11.7024 10.4442L10.6039 9.34573L11.7023 8.2473C12.0341 7.9155 12.0341 7.37758 11.7023 7.04578C11.3706 6.71398 10.8326 6.71398 10.5008 7.04578L9.40237 8.14421L8.30388 7.04573C7.97214 6.71392 7.43417 6.71392 7.10237 7.04573C6.77057 7.37753 6.77057 7.91544 7.10237 8.24724L8.20085 9.34573L7.10242 10.4442C6.77057 10.776 6.77057 11.3139 7.10242 11.6457C7.43417 11.9775 7.97214 11.9775 8.30394 11.6457L9.40237 10.5472L10.5009 11.6457C10.8326 11.9775 11.3706 11.9775 11.7024 11.6457C12.0342 11.3139 12.0342 10.776 11.7024 10.4442Z" fill="#BDF2E9"/>
<path d="M23.5968 7.04576L21.8976 5.34654C21.896 5.3449 21.8942 5.34359 21.8926 5.34195C21.5575 5.01219 21.0218 5.02091 20.6961 5.34654L18.9969 7.04576C18.6651 7.37756 18.6651 7.91548 18.9969 8.24728C19.3286 8.57908 19.8666 8.57908 20.1984 8.24728L20.4473 7.9984V10.1953H14.5C14.0308 10.1953 13.6504 10.5757 13.6504 11.0449V15.293H11.805C11.4543 14.3041 10.51 13.5938 9.40234 13.5938C7.99692 13.5938 6.85352 14.7372 6.85352 16.1426C6.85352 17.548 7.99692 18.6914 9.40234 18.6914C10.51 18.6914 11.4543 17.9811 11.805 16.9922H14.5C14.9692 16.9922 15.3496 16.6118 15.3496 16.1426V11.8945H21.2969C21.7661 11.8945 22.1465 11.5141 22.1465 11.0449V7.9984L22.3954 8.24728C22.5612 8.41312 22.7787 8.4961 22.9961 8.4961C23.2135 8.4961 23.431 8.41312 23.5968 8.24728C23.9286 7.91548 23.9286 7.37756 23.5968 7.04576ZM9.40234 16.9922C8.93387 16.9922 8.55273 16.6111 8.55273 16.1426C8.55273 15.6741 8.93387 15.293 9.40234 15.293C9.87082 15.293 10.252 15.6741 10.252 16.1426C10.252 16.6111 9.87082 16.9922 9.40234 16.9922Z" fill="#BDF2E9"/>
<path d="M26.4512 0H2.54883C1.1434 0 0 1.1434 0 2.54883C0 3.65644 0.71033 4.6008 1.69922 4.95152V19.541C1.69922 20.9464 2.84262 22.0898 4.24805 22.0898H13.6504V24.0485C12.6615 24.3992 11.9512 25.3436 11.9512 26.4512C11.9512 27.8566 13.0946 29 14.5 29C15.9054 29 17.0488 27.8566 17.0488 26.4512C17.0488 25.3436 16.3385 24.3992 15.3496 24.0485V22.0898H24.752C26.1574 22.0898 27.3008 20.9464 27.3008 19.541V4.95152C28.2897 4.6008 29 3.65644 29 2.54883C29 1.1434 27.8566 0 26.4512 0ZM14.5 27.3008C14.0315 27.3008 13.6504 26.9196 13.6504 26.4512C13.6504 25.9827 14.0315 25.6016 14.5 25.6016C14.9685 25.6016 15.3496 25.9827 15.3496 26.4512C15.3496 26.9196 14.9685 27.3008 14.5 27.3008ZM25.6016 19.541C25.6016 20.0095 25.2204 20.3906 24.752 20.3906H4.24805C3.77957 20.3906 3.39844 20.0095 3.39844 19.541V5.09766H25.6016V19.541ZM26.4512 3.39844H2.54883C2.08035 3.39844 1.69922 3.0173 1.69922 2.54883C1.69922 2.08035 2.08035 1.69922 2.54883 1.69922H26.4512C26.9196 1.69922 27.3008 2.08035 27.3008 2.54883C27.3008 3.0173 26.9196 3.39844 26.4512 3.39844Z" fill="#BDF2E9"/>
</svg>
