<svg width="28" height="28" viewBox="0 0 28 28" fill="none" xmlns="http://www.w3.org/2000/svg">
<path d="M26.0982 15.6491C26.6479 14.8188 26.9224 13.9048 26.9224 12.9064C26.9224 11.7509 26.4966 10.7472 25.6443 9.89384C24.7916 9.04135 23.7819 8.61519 22.6154 8.61519H19.6539C20.1922 7.50473 20.4618 6.42769 20.4618 5.3846C20.4618 4.07206 20.2649 3.02891 19.8727 2.25486C19.48 1.48057 18.9078 0.911431 18.1561 0.546682C17.4043 0.182109 16.5576 0 15.6154 0C15.043 0 14.5384 0.20751 14.1009 0.622708C13.6187 1.09378 13.2709 1.69969 13.0578 2.44009C12.8447 3.18025 12.6735 3.88989 12.5446 4.56859C12.4157 5.24723 12.2164 5.72678 11.9473 6.00719C11.3975 6.60173 10.7974 7.31985 10.1468 8.16109C9.01383 9.63046 8.24532 10.4999 7.84167 10.7693H3.2313C2.63676 10.7693 2.12909 10.9799 1.70841 11.4002C1.28791 11.821 1.07751 12.3286 1.07751 12.9232V23.692C1.07751 24.2866 1.28768 24.794 1.70841 25.2147C2.12933 25.6355 2.63676 25.846 3.2313 25.846H8.077C8.32382 25.846 9.09769 26.0703 10.399 26.519C11.7788 27.0015 12.9931 27.3687 14.0419 27.6212C15.0907 27.8737 16.1536 28 17.2306 28H18.795H19.4011C20.9827 28 22.2558 27.5482 23.2207 26.6451C24.1851 25.742 24.6621 24.5109 24.651 22.9516C25.3241 22.0878 25.6605 21.0894 25.6605 19.9566C25.6605 19.71 25.644 19.4688 25.6101 19.233C26.0362 18.4817 26.2498 17.674 26.2498 16.8102C26.2496 16.4063 26.1992 16.0191 26.0982 15.6491ZM5.06542 23.3725C4.85231 23.5855 4.59995 23.6924 4.30828 23.6924C4.01655 23.6924 3.76413 23.5855 3.55096 23.3725C3.33791 23.1595 3.2313 22.9071 3.2313 22.6152C3.2313 22.3235 3.33767 22.0712 3.55096 21.858C3.76436 21.6448 4.01655 21.5383 4.30828 21.5383C4.59995 21.5383 4.85231 21.6448 5.06542 21.858C5.27858 22.0712 5.3852 22.3235 5.3852 22.6152C5.3852 22.9071 5.27858 23.1595 5.06542 23.3725ZM24.4077 14.287C24.1665 14.8029 23.8663 15.0665 23.5074 15.0776C23.6756 15.2684 23.8159 15.5351 23.9281 15.8769C24.0402 16.2191 24.0959 16.5303 24.0959 16.8109C24.0959 17.5845 23.799 18.2521 23.2045 18.8128C23.4066 19.1716 23.5074 19.5588 23.5074 19.9737C23.5074 20.3888 23.4094 20.801 23.213 21.2104C23.0169 21.6194 22.7503 21.9139 22.4139 22.0933C22.4699 22.4298 22.4978 22.744 22.4978 23.0356C22.4978 24.9089 21.4208 25.8455 19.2668 25.8455H17.2314C15.7615 25.8455 13.8436 25.4363 11.4765 24.6172C11.4203 24.5948 11.2579 24.5357 10.9885 24.4406C10.7191 24.3454 10.5201 24.2752 10.391 24.2304C10.262 24.1852 10.0658 24.1208 9.80203 24.0368C9.53829 23.9525 9.32542 23.8907 9.16264 23.8517C9.0001 23.8125 8.81486 23.7761 8.60753 23.7423C8.40008 23.7087 8.22333 23.692 8.07753 23.692H7.5391V12.9236H8.07753C8.25699 12.9236 8.45607 12.873 8.67483 12.7722C8.89354 12.6712 9.11803 12.5198 9.34793 12.3178C9.57796 12.1159 9.79372 11.9168 9.99575 11.7204C10.1977 11.5241 10.422 11.2773 10.6689 10.9802C10.9157 10.6828 11.1091 10.4445 11.2495 10.265C11.3896 10.0856 11.5662 9.85548 11.7794 9.57506C11.9925 9.29471 12.1216 9.12639 12.1664 9.07023C12.7833 8.30755 13.2152 7.79717 13.462 7.53903C13.9219 7.05683 14.2556 6.44266 14.4631 5.69666C14.6708 4.95055 14.8419 4.24663 14.976 3.5849C15.1105 2.92312 15.3239 2.44622 15.6159 2.15455C16.6925 2.15455 17.4107 2.41805 17.7695 2.94534C18.1283 3.47251 18.3078 4.28588 18.3078 5.38519C18.3078 6.04697 18.0384 6.94715 17.4998 8.08566C16.9615 9.22428 16.6925 10.1189 16.6925 10.7695H22.6152C23.1767 10.7695 23.6756 10.9853 24.1129 11.4174C24.5506 11.8493 24.7697 12.3511 24.7697 12.9234C24.7695 13.316 24.6488 13.7704 24.4077 14.287Z" fill="#BDF2E9"/>
</svg>
