<svg width="291" height="280" viewBox="0 0 291 280" fill="none" xmlns="http://www.w3.org/2000/svg">
<g opacity="0.6">
<path opacity="0.6" d="M43.2173 46.38C43.5993 45.7431 44.0132 45.1062 44.443 44.4535C62.0872 24.3532 85.4749 10.1547 111.446 3.77652C137.417 -2.60167 164.719 -0.852133 189.664 8.78873C193.595 10.3682 197.441 12.1484 201.189 14.1225C211.745 19.6304 221.498 26.5569 230.176 34.7093C232.804 37.4041 235.23 40.2884 237.435 43.3389C227.979 36.0308 202.192 19.1856 174.67 28.4839C163.001 32.3812 151.622 37.1005 140.621 42.6065C114.976 55.4872 101.144 67.938 76.9479 75.883C42.7398 87.1397 28.7795 69.9123 43.2173 46.38Z" fill="url(#paint0_linear)"/>
</g>
<defs>
<linearGradient id="paint0_linear" x1="132935" y1="141119" x2="125555" y2="155393" gradientUnits="userSpaceOnUse">
<stop stop-color="#00DAB5"/>
<stop offset="0.75" stop-color="#25E05E"/>
<stop offset="1" stop-color="#31E242"/>
</linearGradient>
</defs>
</svg>
