<svg width="395" height="155" viewBox="0 0 395 155" fill="none" xmlns="http://www.w3.org/2000/svg">
<path d="M13.9164 29.7285C13.9164 25.3977 13.8581 21.0585 13.8581 17.6752C13.8581 13.5618 15.1601 5.30017 23.9052 5.30017C34.1078 5.30017 34.5937 13.5618 34.5548 18.8927C34.5079 25.3193 34.5548 63.349 34.5548 70.1496C34.5548 76.9502 35.1281 129.729 34.5548 135.077C33.9815 140.426 32.077 145.643 24.8089 145.643C18.7553 145.643 15.6946 140.791 15.1213 134.808C14.548 128.833 14.2662 97.9 14.2953 94.6823C14.3536 88.2295 13.9164 84.977 18.1238 80.3331C20.6015 77.6025 23.3222 74.3587 27.9571 69.767C32.592 65.1752 85.7524 13.9357 90.1735 10.2224C94.5947 6.50898 101.433 3.34585 105.905 6.96989C111.356 11.3877 108.324 16.7186 104.69 21.0494C101.396 24.9802 64.4241 60.8879 60.4402 65.61C56.4466 70.3322 54.8822 72.2367 54.8822 76.9328C54.8822 83.8813 89.8626 123.702 94.1866 129.033" stroke="#18D47E" stroke-width="9.09761" stroke-miterlimit="8"/>
<path d="M14.8831 46.4362C20.0456 46.391 24.1897 42.6088 24.1391 37.9884C24.0886 33.368 19.8626 29.6591 14.7001 29.7043C9.53763 29.7495 5.39357 33.5318 5.4441 38.1522C5.49464 42.7726 9.72064 46.4815 14.8831 46.4362Z" stroke="#18D47E" stroke-width="9.09761" stroke-miterlimit="8"/>
<path d="M99.9783 145.643C105.141 145.643 109.326 141.898 109.326 137.277C109.326 132.657 105.141 128.911 99.9783 128.911C94.8158 128.911 90.6308 132.657 90.6308 137.277C90.6308 141.898 94.8158 145.643 99.9783 145.643Z" stroke="#18D47E" stroke-width="9.09761" stroke-miterlimit="8"/>
<path d="M185.358 83.7901H177.415L165.457 67.0705V83.7901H158.462V50.8022H165.457V66.7772L177.28 50.8022H184.726L172.7 66.6418L185.358 83.7901ZM214.601 50.8022L204.402 74.1329C203.124 77.0662 201.92 79.1721 200.792 80.4507C199.679 81.7293 198.355 82.6845 196.821 83.3163C195.286 83.933 193.421 84.2414 191.225 84.2414C189.345 84.2414 187.592 84.0157 185.968 83.5645V77.5626C187.291 78.1041 188.939 78.3749 190.909 78.3749C192.158 78.3749 193.166 78.0891 193.933 77.5174C194.7 76.9308 195.339 75.923 195.851 74.4939L184.433 50.8022H191.834L199.957 69.1915H200.183L200.589 68.0633L207.403 50.8022H214.601ZM224.846 66.3259H227.147C229.298 66.3259 230.908 65.9048 231.976 65.0624C233.044 64.205 233.578 62.964 233.578 61.3394C233.578 59.6998 233.126 58.4889 232.224 57.7067C231.336 56.9245 229.937 56.5334 228.027 56.5334H224.846V66.3259ZM240.64 61.0912C240.64 64.6412 239.527 67.3563 237.301 69.2366C235.089 71.1169 231.938 72.0571 227.847 72.0571H224.846V83.7901H217.851V50.8022H228.388C232.389 50.8022 235.428 51.6672 237.504 53.397C239.595 55.1119 240.64 57.6766 240.64 61.0912ZM259.955 56.1498C257.323 56.1498 255.285 57.1426 253.841 59.1282C252.397 61.0987 251.675 63.8515 251.675 67.3864C251.675 74.7421 254.435 78.42 259.955 78.42C262.272 78.42 265.077 77.8409 268.372 76.6826V82.5491C265.664 83.6773 262.64 84.2414 259.301 84.2414C254.502 84.2414 250.832 82.7898 248.29 79.8866C245.748 76.9684 244.477 72.7866 244.477 67.3413C244.477 63.9116 245.101 60.9107 246.35 58.3385C247.598 55.7512 249.388 53.7731 251.72 52.4043C254.066 51.0204 256.811 50.3284 259.955 50.3284C263.159 50.3284 266.378 51.1031 269.613 52.6524L267.356 58.3385C266.123 57.7518 264.882 57.2404 263.633 56.8041C262.385 56.3679 261.159 56.1498 259.955 56.1498ZM168.446 114.79H166.122L158.496 106.43V114.79H156.578V98.2962H158.496V106.284L165.93 98.2962H168.13L160.831 106.306L168.446 114.79ZM177.585 114.79L177.213 113.03H177.122C176.506 113.805 175.889 114.331 175.272 114.61C174.663 114.88 173.9 115.016 172.982 115.016C171.756 115.016 170.793 114.7 170.094 114.068C169.402 113.436 169.056 112.538 169.056 111.372C169.056 108.875 171.053 107.566 175.047 107.446L177.145 107.378V106.611C177.145 105.641 176.934 104.926 176.513 104.467C176.1 104.001 175.434 103.768 174.516 103.768C173.486 103.768 172.32 104.084 171.019 104.715L170.444 103.283C171.053 102.952 171.718 102.692 172.44 102.504C173.17 102.316 173.9 102.222 174.629 102.222C176.103 102.222 177.194 102.549 177.901 103.204C178.615 103.858 178.973 104.907 178.973 106.351V114.79H177.585ZM173.354 113.47C174.52 113.47 175.434 113.15 176.096 112.511C176.765 111.872 177.1 110.977 177.1 109.826V108.709L175.227 108.788C173.738 108.841 172.662 109.074 172 109.488C171.346 109.894 171.019 110.529 171.019 111.394C171.019 112.071 171.222 112.586 171.628 112.94C172.042 113.293 172.617 113.47 173.354 113.47ZM181.737 107.378C181.737 104.67 182.136 102.561 182.933 101.049C183.73 99.5296 184.994 98.582 186.724 98.2059C188.875 97.7471 190.77 97.3748 192.41 97.089L192.759 98.7362C190.15 99.1724 188.284 99.5184 187.164 99.7741C186.073 100.022 185.253 100.609 184.704 101.534C184.163 102.459 183.866 103.719 183.813 105.313H183.948C184.415 104.682 185.016 104.185 185.753 103.824C186.49 103.463 187.261 103.283 188.066 103.283C189.585 103.283 190.77 103.775 191.62 104.761C192.47 105.746 192.895 107.111 192.895 108.856C192.895 110.789 192.402 112.301 191.417 113.391C190.432 114.474 189.059 115.016 187.299 115.016C185.562 115.016 184.2 114.35 183.215 113.019C182.23 111.688 181.737 109.807 181.737 107.378ZM187.468 113.448C189.762 113.448 190.909 111.985 190.909 109.059C190.909 106.269 189.867 104.873 187.784 104.873C187.213 104.873 186.66 104.994 186.126 105.234C185.599 105.468 185.114 105.78 184.67 106.171C184.234 106.562 183.896 106.964 183.655 107.378C183.655 109.356 183.967 110.864 184.591 111.902C185.216 112.932 186.175 113.448 187.468 113.448ZM197.464 102.425V110.266L197.385 112.319L197.351 112.962L204.042 102.425H206.377V114.79H204.628V107.231L204.662 105.742L204.718 104.276L198.04 114.79H195.704V102.425H197.464ZM211.759 102.425V107.604H218.686V102.425H220.559V114.79H218.686V109.217H211.759V114.79H209.886V102.425H211.759ZM229.291 115.016C227.463 115.016 226.019 114.459 224.959 113.346C223.906 112.233 223.379 110.687 223.379 108.709C223.379 106.716 223.868 105.133 224.846 103.96C225.831 102.786 227.151 102.2 228.806 102.2C230.355 102.2 231.581 102.711 232.484 103.734C233.386 104.749 233.838 106.092 233.838 107.762V108.946H225.32C225.357 110.398 225.722 111.5 226.414 112.252C227.114 113.004 228.095 113.38 229.359 113.38C230.69 113.38 232.006 113.102 233.307 112.545V114.215C232.646 114.501 232.017 114.704 231.423 114.824C230.837 114.952 230.126 115.016 229.291 115.016ZM228.783 103.768C227.791 103.768 226.997 104.091 226.403 104.738C225.816 105.385 225.47 106.28 225.365 107.423H231.829C231.829 106.242 231.566 105.34 231.04 104.715C230.513 104.084 229.761 103.768 228.783 103.768ZM244.917 104.027H240.9V114.79H239.028V104.027H235.056V102.425H244.917V104.027ZM250.48 102.425H252.488L255.195 109.476C255.79 111.086 256.158 112.248 256.301 112.962H256.391C256.489 112.579 256.692 111.925 257 110.999C257.316 110.067 258.339 107.209 260.069 102.425H262.077L256.763 116.505C256.237 117.896 255.62 118.882 254.913 119.461C254.214 120.047 253.353 120.341 252.33 120.341C251.758 120.341 251.194 120.277 250.638 120.149V118.648C251.051 118.739 251.514 118.784 252.025 118.784C253.311 118.784 254.229 118.062 254.778 116.618L255.466 114.858L250.48 102.425ZM265.496 114.79H263.623V102.425H274.002V114.79H272.107V104.05H265.496V114.79ZM283.265 115.016C282.46 115.016 281.723 114.869 281.054 114.576C280.392 114.275 279.836 113.816 279.384 113.199H279.249C279.339 113.921 279.384 114.606 279.384 115.253V120.341H277.512V102.425H279.035L279.294 104.118H279.384C279.866 103.441 280.426 102.952 281.065 102.651C281.705 102.35 282.438 102.2 283.265 102.2C284.905 102.2 286.168 102.76 287.056 103.881C287.951 105.001 288.398 106.573 288.398 108.596C288.398 110.627 287.943 112.207 287.033 113.335C286.131 114.455 284.875 115.016 283.265 115.016ZM282.994 103.79C281.731 103.79 280.817 104.14 280.253 104.84C279.689 105.539 279.399 106.652 279.384 108.179V108.596C279.384 110.334 279.674 111.579 280.253 112.331C280.832 113.075 281.761 113.448 283.04 113.448C284.108 113.448 284.942 113.015 285.544 112.15C286.153 111.285 286.458 110.093 286.458 108.574C286.458 107.032 286.153 105.851 285.544 105.031C284.942 104.204 284.093 103.79 282.994 103.79ZM298.823 114.79L298.451 113.03H298.361C297.744 113.805 297.127 114.331 296.51 114.61C295.901 114.88 295.138 115.016 294.22 115.016C292.994 115.016 292.032 114.7 291.332 114.068C290.64 113.436 290.294 112.538 290.294 111.372C290.294 108.875 292.291 107.566 296.285 107.446L298.383 107.378V106.611C298.383 105.641 298.173 104.926 297.751 104.467C297.338 104.001 296.672 103.768 295.755 103.768C294.724 103.768 293.558 104.084 292.257 104.715L291.682 103.283C292.291 102.952 292.957 102.692 293.679 102.504C294.408 102.316 295.138 102.222 295.867 102.222C297.342 102.222 298.432 102.549 299.139 103.204C299.854 103.858 300.211 104.907 300.211 106.351V114.79H298.823ZM294.593 113.47C295.758 113.47 296.672 113.15 297.334 112.511C298.003 111.872 298.338 110.977 298.338 109.826V108.709L296.465 108.788C294.976 108.841 293.901 109.074 293.239 109.488C292.584 109.894 292.257 110.529 292.257 111.394C292.257 112.071 292.46 112.586 292.866 112.94C293.28 113.293 293.856 113.47 294.593 113.47ZM313.648 105.528C313.648 106.333 313.415 106.946 312.948 107.367C312.49 107.78 311.843 108.059 311.008 108.202V108.303C312.061 108.446 312.828 108.754 313.309 109.228C313.798 109.702 314.043 110.356 314.043 111.191C314.043 112.342 313.618 113.229 312.768 113.854C311.926 114.478 310.692 114.79 309.068 114.79H303.618V102.425H309.045C312.114 102.425 313.648 103.459 313.648 105.528ZM312.17 111.067C312.17 110.398 311.914 109.913 311.403 109.612C310.899 109.303 310.06 109.149 308.887 109.149H305.491V113.222H308.932C311.091 113.222 312.17 112.504 312.17 111.067ZM311.82 105.708C311.82 105.107 311.587 104.682 311.121 104.433C310.662 104.178 309.963 104.05 309.022 104.05H305.491V107.536H308.661C309.82 107.536 310.636 107.393 311.11 107.107C311.583 106.821 311.82 106.355 311.82 105.708ZM325.528 114.79H323.633V104.027H319.921C319.718 106.705 319.436 108.83 319.075 110.401C318.714 111.973 318.244 113.124 317.665 113.854C317.093 114.583 316.364 114.948 315.476 114.948C315.07 114.948 314.746 114.903 314.506 114.813V113.425C314.671 113.47 314.859 113.493 315.07 113.493C315.935 113.493 316.623 112.579 317.134 110.751C317.646 108.924 318.033 106.148 318.296 102.425H325.528V114.79ZM334.272 115.016C332.444 115.016 331 114.459 329.94 113.346C328.887 112.233 328.36 110.687 328.36 108.709C328.36 106.716 328.849 105.133 329.827 103.96C330.812 102.786 332.132 102.2 333.787 102.2C335.336 102.2 336.562 102.711 337.465 103.734C338.367 104.749 338.818 106.092 338.818 107.762V108.946H330.301C330.338 110.398 330.703 111.5 331.395 112.252C332.094 113.004 333.076 113.38 334.34 113.38C335.671 113.38 336.987 113.102 338.288 112.545V114.215C337.626 114.501 336.998 114.704 336.404 114.824C335.817 114.952 335.107 115.016 334.272 115.016ZM333.764 103.768C332.771 103.768 331.978 104.091 331.384 104.738C330.797 105.385 330.451 106.28 330.346 107.423H336.81C336.81 106.242 336.547 105.34 336.021 104.715C335.494 104.084 334.742 103.768 333.764 103.768ZM343.433 102.425V107.604H350.36V102.425H352.233V114.79H350.36V109.217H343.433V114.79H341.56V102.425H343.433ZM357.502 102.425V110.266L357.423 112.319L357.389 112.962L364.079 102.425H366.415V114.79H364.666V107.231L364.7 105.742L364.756 104.276L358.077 114.79H355.742V102.425H357.502ZM370.544 114.79H368.355L371.909 109.567C370.954 109.356 370.221 108.95 369.709 108.348C369.205 107.739 368.953 106.976 368.953 106.058C368.953 104.93 369.333 104.042 370.093 103.396C370.852 102.749 371.913 102.425 373.274 102.425H378.78V114.79H376.907V109.849H373.782L370.544 114.79ZM370.781 106.081C370.781 107.51 371.819 108.224 373.895 108.224H376.907V104.05H373.511C371.691 104.05 370.781 104.727 370.781 106.081ZM162.05 146.016C161.245 146.016 160.508 145.869 159.838 145.576C159.176 145.275 158.62 144.816 158.169 144.199H158.033C158.123 144.921 158.169 145.606 158.169 146.253V151.341H156.296V133.425H157.819L158.078 135.118H158.169C158.65 134.441 159.21 133.952 159.85 133.651C160.489 133.35 161.222 133.2 162.05 133.2C163.689 133.2 164.953 133.76 165.84 134.881C166.735 136.001 167.183 137.573 167.183 139.596C167.183 141.627 166.728 143.207 165.818 144.335C164.915 145.455 163.659 146.016 162.05 146.016ZM161.779 134.79C160.515 134.79 159.601 135.14 159.037 135.84C158.473 136.539 158.184 137.652 158.169 139.179V139.596C158.169 141.334 158.458 142.579 159.037 143.331C159.616 144.075 160.545 144.448 161.824 144.448C162.892 144.448 163.727 144.015 164.328 143.15C164.938 142.285 165.242 141.093 165.242 139.574C165.242 138.032 164.938 136.851 164.328 136.031C163.727 135.204 162.877 134.79 161.779 134.79ZM175.227 146.016C173.399 146.016 171.955 145.459 170.895 144.346C169.842 143.233 169.315 141.687 169.315 139.709C169.315 137.716 169.804 136.133 170.782 134.96C171.767 133.786 173.087 133.2 174.742 133.2C176.291 133.2 177.517 133.711 178.42 134.734C179.322 135.749 179.774 137.092 179.774 138.762V139.946H171.256C171.293 141.398 171.658 142.5 172.35 143.252C173.05 144.004 174.031 144.38 175.295 144.38C176.626 144.38 177.942 144.102 179.243 143.545V145.215C178.582 145.501 177.953 145.704 177.359 145.824C176.773 145.952 176.062 146.016 175.227 146.016ZM174.719 134.768C173.727 134.768 172.933 135.091 172.339 135.738C171.752 136.385 171.406 137.28 171.301 138.423H177.765C177.765 137.242 177.502 136.34 176.976 135.715C176.449 135.084 175.697 134.768 174.719 134.768ZM187.457 146.016C185.667 146.016 184.279 145.467 183.294 144.369C182.316 143.263 181.827 141.702 181.827 139.687C181.827 137.618 182.324 136.02 183.317 134.892C184.317 133.764 185.738 133.2 187.581 133.2C188.175 133.2 188.769 133.264 189.364 133.391C189.958 133.519 190.424 133.67 190.763 133.843L190.187 135.433C189.773 135.268 189.322 135.133 188.833 135.027C188.344 134.914 187.912 134.858 187.536 134.858C185.024 134.858 183.768 136.46 183.768 139.664C183.768 141.183 184.072 142.349 184.682 143.161C185.298 143.974 186.208 144.38 187.412 144.38C188.442 144.38 189.499 144.158 190.582 143.714V145.373C189.755 145.801 188.713 146.016 187.457 146.016ZM191.101 133.425H193.11L195.817 140.476C196.411 142.086 196.78 143.248 196.923 143.962H197.013C197.111 143.579 197.314 142.925 197.622 141.999C197.938 141.067 198.961 138.209 200.691 133.425H202.699L197.385 147.505C196.859 148.896 196.242 149.882 195.535 150.461C194.836 151.047 193.974 151.341 192.952 151.341C192.38 151.341 191.816 151.277 191.259 151.149V149.648C191.673 149.739 192.136 149.784 192.647 149.784C193.933 149.784 194.851 149.062 195.4 147.618L196.088 145.858L191.101 133.425ZM209.999 146.016C209.194 146.016 208.457 145.869 207.788 145.576C207.126 145.275 206.569 144.816 206.118 144.199H205.982C206.073 144.921 206.118 145.606 206.118 146.253V151.341H204.245V133.425H205.768L206.028 135.118H206.118C206.599 134.441 207.16 133.952 207.799 133.651C208.438 133.35 209.171 133.2 209.999 133.2C211.638 133.2 212.902 133.76 213.789 134.881C214.684 136.001 215.132 137.573 215.132 139.596C215.132 141.627 214.677 143.207 213.767 144.335C212.864 145.455 211.608 146.016 209.999 146.016ZM209.728 134.79C208.464 134.79 207.551 135.14 206.987 135.84C206.422 136.539 206.133 137.652 206.118 139.179V139.596C206.118 141.334 206.407 142.579 206.987 143.331C207.566 144.075 208.495 144.448 209.773 144.448C210.841 144.448 211.676 144.015 212.278 143.15C212.887 142.285 213.192 141.093 213.192 139.574C213.192 138.032 212.887 136.851 212.278 136.031C211.676 135.204 210.826 134.79 209.728 134.79ZM222.894 146.016C221.104 146.016 219.717 145.467 218.731 144.369C217.754 143.263 217.265 141.702 217.265 139.687C217.265 137.618 217.761 136.02 218.754 134.892C219.754 133.764 221.176 133.2 223.018 133.2C223.613 133.2 224.207 133.264 224.801 133.391C225.395 133.519 225.861 133.67 226.2 133.843L225.624 135.433C225.211 135.268 224.76 135.133 224.271 135.027C223.782 134.914 223.349 134.858 222.973 134.858C220.461 134.858 219.205 136.46 219.205 139.664C219.205 141.183 219.51 142.349 220.119 143.161C220.736 143.974 221.646 144.38 222.849 144.38C223.88 144.38 224.936 144.158 226.019 143.714V145.373C225.192 145.801 224.15 146.016 222.894 146.016ZM236.106 145.79L235.733 144.03H235.643C235.026 144.805 234.41 145.331 233.793 145.61C233.184 145.88 232.42 146.016 231.503 146.016C230.277 146.016 229.314 145.7 228.615 145.068C227.923 144.436 227.577 143.538 227.577 142.372C227.577 139.875 229.574 138.566 233.567 138.446L235.666 138.378V137.611C235.666 136.641 235.455 135.926 235.034 135.467C234.62 135.001 233.955 134.768 233.037 134.768C232.007 134.768 230.841 135.084 229.54 135.715L228.964 134.283C229.574 133.952 230.239 133.692 230.961 133.504C231.691 133.316 232.42 133.222 233.15 133.222C234.624 133.222 235.715 133.549 236.422 134.204C237.136 134.858 237.493 135.907 237.493 137.351V145.79H236.106ZM231.875 144.47C233.041 144.47 233.955 144.15 234.616 143.511C235.286 142.872 235.621 141.977 235.621 140.826V139.709L233.748 139.788C232.259 139.841 231.183 140.074 230.521 140.488C229.867 140.894 229.54 141.529 229.54 142.394C229.54 143.071 229.743 143.586 230.149 143.94C230.563 144.293 231.138 144.47 231.875 144.47ZM247.32 143.985L247.67 142.936L248.155 141.605L251.506 133.448H253.886V145.79H252.228V135.58L252.002 136.234L251.348 137.961L248.155 145.79H246.587L243.394 137.938C242.996 136.93 242.721 136.144 242.571 135.58V145.79H240.901V133.448H243.191L246.429 141.289C246.752 142.116 247.049 143.015 247.32 143.985ZM259.189 133.425V141.266L259.11 143.319L259.076 143.962L265.766 133.425H268.102V145.79H266.353V138.231L266.387 136.742L266.443 135.276L259.764 145.79H257.429V133.425H259.189ZM284.495 130.774C282.682 130.774 281.25 131.38 280.197 132.59C279.151 133.794 278.628 135.445 278.628 137.543C278.628 139.702 279.132 141.371 280.14 142.552C281.156 143.726 282.6 144.312 284.472 144.312C285.623 144.312 286.936 144.105 288.41 143.692V145.373C287.267 145.801 285.856 146.016 284.179 146.016C281.75 146.016 279.873 145.279 278.549 143.805C277.233 142.33 276.575 140.236 276.575 137.521C276.575 135.821 276.891 134.332 277.523 133.053C278.162 131.774 279.08 130.789 280.276 130.097C281.479 129.405 282.893 129.059 284.518 129.059C286.247 129.059 287.759 129.375 289.053 130.007L288.24 131.654C286.992 131.067 285.743 130.774 284.495 130.774ZM290.621 138.378C290.621 135.67 291.02 133.561 291.817 132.049C292.615 130.53 293.878 129.582 295.608 129.206C297.759 128.747 299.654 128.375 301.294 128.089L301.644 129.736C299.034 130.172 297.169 130.518 296.048 130.774C294.957 131.022 294.138 131.609 293.589 132.534C293.047 133.459 292.75 134.719 292.697 136.313H292.833C293.299 135.682 293.901 135.185 294.638 134.824C295.375 134.463 296.146 134.283 296.95 134.283C298.47 134.283 299.654 134.775 300.504 135.761C301.354 136.746 301.779 138.111 301.779 139.856C301.779 141.789 301.286 143.301 300.301 144.391C299.316 145.474 297.943 146.016 296.183 146.016C294.446 146.016 293.085 145.35 292.099 144.019C291.114 142.688 290.621 140.807 290.621 138.378ZM296.353 144.448C298.646 144.448 299.793 142.985 299.793 140.059C299.793 137.269 298.752 135.873 296.668 135.873C296.097 135.873 295.544 135.994 295.01 136.234C294.484 136.468 293.998 136.78 293.555 137.171C293.118 137.562 292.78 137.964 292.539 138.378C292.539 140.356 292.851 141.864 293.476 142.902C294.1 143.932 295.059 144.448 296.353 144.448ZM309.812 146.016C307.984 146.016 306.54 145.459 305.48 144.346C304.427 143.233 303.9 141.687 303.9 139.709C303.9 137.716 304.389 136.133 305.367 134.96C306.352 133.786 307.672 133.2 309.327 133.2C310.876 133.2 312.102 133.711 313.005 134.734C313.907 135.749 314.359 137.092 314.359 138.762V139.946H305.841C305.879 141.398 306.243 142.5 306.935 143.252C307.635 144.004 308.616 144.38 309.88 144.38C311.211 144.38 312.527 144.102 313.828 143.545V145.215C313.167 145.501 312.539 145.704 311.944 145.824C311.358 145.952 310.647 146.016 309.812 146.016ZM309.304 134.768C308.312 134.768 307.518 135.091 306.924 135.738C306.337 136.385 305.991 137.28 305.886 138.423H312.351C312.351 137.242 312.087 136.34 311.561 135.715C311.034 135.084 310.282 134.768 309.304 134.768ZM322.854 146.016C322.05 146.016 321.312 145.869 320.643 145.576C319.981 145.275 319.425 144.816 318.973 144.199H318.838C318.928 144.921 318.973 145.606 318.973 146.253V151.341H317.101V133.425H318.624L318.883 135.118H318.973C319.455 134.441 320.015 133.952 320.654 133.651C321.294 133.35 322.027 133.2 322.854 133.2C324.494 133.2 325.757 133.76 326.645 134.881C327.54 136.001 327.987 137.573 327.987 139.596C327.987 141.627 327.532 143.207 326.622 144.335C325.72 145.455 324.464 146.016 322.854 146.016ZM322.584 134.79C321.32 134.79 320.406 135.14 319.842 135.84C319.278 136.539 318.988 137.652 318.973 139.179V139.596C318.973 141.334 319.263 142.579 319.842 143.331C320.421 144.075 321.35 144.448 322.629 144.448C323.697 144.448 324.532 144.015 325.133 143.15C325.742 142.285 326.047 141.093 326.047 139.574C326.047 138.032 325.742 136.851 325.133 136.031C324.532 135.204 323.682 134.79 322.584 134.79ZM330.165 138.378C330.165 135.67 330.564 133.561 331.361 132.049C332.158 130.53 333.422 129.582 335.152 129.206C337.303 128.747 339.198 128.375 340.838 128.089L341.188 129.736C338.578 130.172 336.712 130.518 335.592 130.774C334.501 131.022 333.681 131.609 333.132 132.534C332.591 133.459 332.294 134.719 332.241 136.313H332.377C332.843 135.682 333.445 135.185 334.182 134.824C334.919 134.463 335.69 134.283 336.494 134.283C338.014 134.283 339.198 134.775 340.048 135.761C340.898 136.746 341.323 138.111 341.323 139.856C341.323 141.789 340.83 143.301 339.845 144.391C338.86 145.474 337.487 146.016 335.727 146.016C333.99 146.016 332.628 145.35 331.643 144.019C330.658 142.688 330.165 140.807 330.165 138.378ZM335.896 144.448C338.19 144.448 339.337 142.985 339.337 140.059C339.337 137.269 338.296 135.873 336.212 135.873C335.641 135.873 335.088 135.994 334.554 136.234C334.027 136.468 333.542 136.78 333.099 137.171C332.662 137.562 332.324 137.964 332.083 138.378C332.083 140.356 332.395 141.864 333.02 142.902C333.644 143.932 334.603 144.448 335.896 144.448ZM351.736 145.79L351.364 144.03H351.274C350.657 144.805 350.04 145.331 349.424 145.61C348.815 145.88 348.051 146.016 347.134 146.016C345.908 146.016 344.945 145.7 344.245 145.068C343.553 144.436 343.207 143.538 343.207 142.372C343.207 139.875 345.204 138.566 349.198 138.446L351.296 138.378V137.611C351.296 136.641 351.086 135.926 350.665 135.467C350.251 135.001 349.585 134.768 348.668 134.768C347.637 134.768 346.472 135.084 345.17 135.715L344.595 134.283C345.204 133.952 345.87 133.692 346.592 133.504C347.322 133.316 348.051 133.222 348.781 133.222C350.255 133.222 351.345 133.549 352.052 134.204C352.767 134.858 353.124 135.907 353.124 137.351V145.79H351.736ZM347.506 144.47C348.672 144.47 349.585 144.15 350.247 143.511C350.917 142.872 351.251 141.977 351.251 140.826V139.709L349.379 139.788C347.889 139.841 346.814 140.074 346.152 140.488C345.498 140.894 345.17 141.529 345.17 142.394C345.17 143.071 345.374 143.586 345.78 143.94C346.193 144.293 346.769 144.47 347.506 144.47ZM358.404 133.425V138.604H365.331V133.425H367.204V145.79H365.331V140.217H358.404V145.79H356.532V133.425H358.404ZM377.922 133.425H379.976L374.639 139.393L380.416 145.79H378.227L372.586 139.529V145.79H370.713V133.425H372.586V139.438L377.922 133.425ZM389.859 145.79L389.487 144.03H389.396C388.78 144.805 388.163 145.331 387.546 145.61C386.937 145.88 386.174 146.016 385.256 146.016C384.03 146.016 383.067 145.7 382.368 145.068C381.676 144.436 381.33 143.538 381.33 142.372C381.33 139.875 383.327 138.566 387.321 138.446L389.419 138.378V137.611C389.419 136.641 389.208 135.926 388.787 135.467C388.373 135.001 387.708 134.768 386.79 134.768C385.76 134.768 384.594 135.084 383.293 135.715L382.718 134.283C383.327 133.952 383.992 133.692 384.714 133.504C385.444 133.316 386.174 133.222 386.903 133.222C388.377 133.222 389.468 133.549 390.175 134.204C390.889 134.858 391.247 135.907 391.247 137.351V145.79H389.859ZM385.628 144.47C386.794 144.47 387.708 144.15 388.37 143.511C389.039 142.872 389.374 141.977 389.374 140.826V139.709L387.501 139.788C386.012 139.841 384.936 140.074 384.274 140.488C383.62 140.894 383.293 141.529 383.293 142.394C383.293 143.071 383.496 143.586 383.902 143.94C384.316 144.293 384.891 144.47 385.628 144.47Z" fill="#3E3E3E"/>
</svg>
