<svg width="291" height="280" viewBox="0 0 291 280" fill="none" xmlns="http://www.w3.org/2000/svg">
<g opacity="0.6">
<path opacity="0.6" d="M111.365 280H109.088C82.718 275.583 58.3372 263.18 39.2369 244.466C20.1366 225.751 7.23638 201.626 2.27753 175.346C1.57714 171.223 1.05184 167.003 0.685718 162.736C-0.190708 150.86 0.559073 138.92 2.91426 127.247C3.83407 123.558 5.03134 119.944 6.49585 116.436C5.25423 128.329 4.53791 159.122 26.9348 177.623C36.3786 185.527 46.3741 192.747 56.845 199.229C81.3112 214.259 99.1396 219.45 118.639 235.849C146.273 258.936 138.935 279.889 111.365 280Z" fill="url(#paint0_linear)"/>
</g>
<defs>
<linearGradient id="paint0_linear" x1="-10449.6" y1="5967.13" x2="445.529" y2="5967.13" gradientUnits="userSpaceOnUse">
<stop stop-color="#00DAB5"/>
<stop offset="0.75" stop-color="#25E05E"/>
<stop offset="1" stop-color="#31E242"/>
</linearGradient>
</defs>
</svg>
