<svg width="291" height="280" viewBox="0 0 291 280" fill="none" xmlns="http://www.w3.org/2000/svg">
<g opacity="0.6">
<path opacity="0.6" d="M179.653 280H181.913C208.291 275.6 232.681 263.203 251.785 244.486C270.888 225.768 283.783 201.633 288.724 175.346C289.441 171.222 289.95 167.003 290.316 162.736C291.187 150.859 290.432 138.919 288.072 127.247C287.167 123.594 285.996 120.013 284.57 116.531C285.795 128.425 286.528 159.217 264.131 177.719C254.661 185.589 244.644 192.777 234.157 199.229C209.707 214.259 191.83 219.449 172.363 235.849C144.744 258.935 152.035 279.888 179.653 280Z" fill="url(#paint0_linear)"/>
</g>
<defs>
<linearGradient id="paint0_linear" x1="154592" y1="-7871.83" x2="143724" y2="-8631.56" gradientUnits="userSpaceOnUse">
<stop stop-color="#00DAB5"/>
<stop offset="0.75" stop-color="#25E05E"/>
<stop offset="1" stop-color="#31E242"/>
</linearGradient>
</defs>
</svg>
