<svg width="291" height="280" viewBox="0 0 291 280" fill="none" xmlns="http://www.w3.org/2000/svg">
<g opacity="0.6">
<path opacity="0.6" d="M43.2178 46.38C43.5998 45.7432 44.0137 45.1063 44.4435 44.4535C65.7479 20.2443 95.2374 4.75333 127.257 0.951248C159.277 -2.85083 191.572 5.30356 217.952 23.8507V23.8507C222.283 27.1594 226.369 30.7779 230.177 34.6775C232.804 37.3723 235.23 40.2566 237.435 43.3071C255.391 68.368 241.861 87.888 205.965 76.2492C181.292 68.2884 167.348 55.551 140.621 42.5747C130.065 37.4602 119.179 33.056 108.037 29.3915C77.9671 19.4245 50.0944 40.5686 43.2178 46.38Z" fill="url(#paint0_linear)"/>
</g>
<defs>
<linearGradient id="paint0_linear" x1="133551" y1="142234" x2="127587" y2="153770" gradientUnits="userSpaceOnUse">
<stop stop-color="#00DAB5"/>
<stop offset="0.75" stop-color="#25E05E"/>
<stop offset="1" stop-color="#31E242"/>
</linearGradient>
</defs>
</svg>
